<ttFont>
    <TTGlyph name=".notdef" xMin="99" yMin="-220" xMax="656" yMax="1030">
      <contour>
        <pt x="99" y="1030" on="1"/>
        <pt x="656" y="1030" on="1"/>
        <pt x="656" y="-220" on="1"/>
        <pt x="99" y="-220" on="1"/>
      </contour>
      <contour>
        <pt x="594" y="-160" on="1"/>
        <pt x="594" y="971" on="1"/>
        <pt x="161" y="971" on="1"/>
        <pt x="161" y="-160" on="1"/>
      </contour>
    </TTGlyph>
    <TTGlyph name="A" xMin="9" yMin="0" xMax="656" yMax="740">
      <contour>
        <pt x="9" y="6" on="1"/>
        <pt x="281" y="740" on="1"/>
        <pt x="384" y="740" on="1"/>
        <pt x="656" y="6" on="1"/>
        <pt x="656" y="0" on="1"/>
        <pt x="589" y="0" on="1"/>
        <pt x="502" y="231" on="1"/>
        <pt x="162" y="231" on="1"/>
        <pt x="76" y="0" on="1"/>
        <pt x="9" y="0" on="1"/>
      </contour>
      <contour>
        <pt x="483" y="291" on="1"/>
        <pt x="381" y="563" on="1"/>
        <pt x="335" y="688" on="1"/>
        <pt x="329" y="688" on="1"/>
        <pt x="284" y="563" on="1"/>
        <pt x="182" y="291" on="1"/>
      </contour>
    </TTGlyph>
    <TTGlyph name="A.sc" xMin="15" yMin="0" xMax="584" yMax="577">
      <contour>
        <pt x="15" y="5" on="1"/>
        <pt x="250" y="577" on="1"/>
        <pt x="350" y="577" on="1"/>
        <pt x="584" y="5" on="1"/>
        <pt x="584" y="0" on="1"/>
        <pt x="519" y="0" on="1"/>
        <pt x="447" y="173" on="1"/>
        <pt x="153" y="173" on="1"/>
        <pt x="80" y="0" on="1"/>
        <pt x="15" y="0" on="1"/>
      </contour>
      <contour>
        <pt x="429" y="224" on="1"/>
        <pt x="342" y="433" on="1"/>
        <pt x="302" y="529" on="1"/>
        <pt x="296" y="529" on="1"/>
        <pt x="257" y="433" on="1"/>
        <pt x="170" y="224" on="1"/>
      </contour>
    </TTGlyph>
    <TTGlyph name="AE" xMin="8" yMin="0" xMax="813" yMax="740">
      <contour>
        <pt x="8" y="7" on="1"/>
        <pt x="309" y="740" on="1"/>
        <pt x="802" y="740" on="1"/>
        <pt x="802" y="681" on="1"/>
        <pt x="467" y="681" on="1"/>
        <pt x="480" y="404" on="1"/>
        <pt x="774" y="404" on="1"/>
        <pt x="774" y="346" on="1"/>
        <pt x="483" y="346" on="1"/>
        <pt x="497" y="59" on="1"/>
        <pt x="813" y="59" on="1"/>
        <pt x="813" y="0" on="1"/>
        <pt x="429" y="0" on="1"/>
        <pt x="420" y="231" on="1"/>
        <pt x="169" y="231" on="1"/>
        <pt x="74" y="0" on="1"/>
        <pt x="8" y="0" on="1"/>
      </contour>
      <contour>
        <pt x="194" y="291" on="1"/>
        <pt x="417" y="291" on="1"/>
        <pt x="401" y="684" on="1"/>
        <pt x="357" y="684" on="1"/>
      </contour>
    </TTGlyph>
    <TTGlyph name="AE.sc" xMin="18" yMin="0" xMax="725" yMax="577">
      <contour>
        <pt x="18" y="6" on="1"/>
        <pt x="279" y="577" on="1"/>
        <pt x="715" y="577" on="1"/>
        <pt x="715" y="523" on="1"/>
        <pt x="426" y="523" on="1"/>
        <pt x="436" y="317" on="1"/>
        <pt x="691" y="317" on="1"/>
        <pt x="691" y="267" on="1"/>
        <pt x="440" y="267" on="1"/>
        <pt x="452" y="54" on="1"/>
        <pt x="725" y="54" on="1"/>
        <pt x="725" y="0" on="1"/>
        <pt x="386" y="0" on="1"/>
        <pt x="378" y="173" on="1"/>
        <pt x="161" y="173" on="1"/>
        <pt x="82" y="0" on="1"/>
        <pt x="18" y="0" on="1"/>
      </contour>
      <contour>
        <pt x="186" y="223" on="1"/>
        <pt x="376" y="223" on="1"/>
        <pt x="362" y="525" on="1"/>
        <pt x="325" y="525" on="1"/>
      </contour>
    </TTGlyph>
    <TTGlyph name="AEacute" xMin="8" yMin="0" xMax="813" yMax="939">
      <contour>
        <pt x="481" y="806" on="1"/>
        <pt x="557" y="939" on="1"/>
        <pt x="628" y="939" on="1"/>
        <pt x="535" y="800" on="1"/>
      </contour>
      <contour>
        <pt x="8" y="7" on="1"/>
        <pt x="309" y="740" on="1"/>
        <pt x="802" y="740" on="1"/>
        <pt x="802" y="681" on="1"/>
        <pt x="467" y="681" on="1"/>
        <pt x="480" y="404" on="1"/>
        <pt x="774" y="404" on="1"/>
        <pt x="774" y="346" on="1"/>
        <pt x="483" y="346" on="1"/>
        <pt x="497" y="59" on="1"/>
        <pt x="813" y="59" on="1"/>
        <pt x="813" y="0" on="1"/>
        <pt x="429" y="0" on="1"/>
        <pt x="420" y="231" on="1"/>
        <pt x="169" y="231" on="1"/>
        <pt x="74" y="0" on="1"/>
        <pt x="8" y="0" on="1"/>
      </contour>
      <contour>
        <pt x="194" y="291" on="1"/>
        <pt x="417" y="291" on="1"/>
        <pt x="401" y="684" on="1"/>
        <pt x="357" y="684" on="1"/>
      </contour>
    </TTGlyph>
    <TTGlyph name="AEacute.sc" xMin="18" yMin="0" xMax="725" yMax="738">
      <contour>
        <pt x="18" y="6" on="1"/>
        <pt x="279" y="577" on="1"/>
        <pt x="715" y="577" on="1"/>
        <pt x="715" y="523" on="1"/>
        <pt x="426" y="523" on="1"/>
        <pt x="436" y="317" on="1"/>
        <pt x="691" y="317" on="1"/>
        <pt x="691" y="267" on="1"/>
        <pt x="440" y="267" on="1"/>
        <pt x="452" y="54" on="1"/>
        <pt x="725" y="54" on="1"/>
        <pt x="725" y="0" on="1"/>
        <pt x="386" y="0" on="1"/>
        <pt x="378" y="173" on="1"/>
        <pt x="161" y="173" on="1"/>
        <pt x="82" y="0" on="1"/>
        <pt x="18" y="0" on="1"/>
      </contour>
      <contour>
        <pt x="376" y="223" on="1"/>
        <pt x="362" y="525" on="1"/>
        <pt x="325" y="525" on="1"/>
        <pt x="186" y="223" on="1"/>
      </contour>
      <contour>
        <pt x="427" y="630" on="1"/>
        <pt x="492" y="738" on="1"/>
        <pt x="561" y="738" on="1"/>
        <pt x="479" y="625" on="1"/>
      </contour>
    </TTGlyph>
    <TTGlyph name="Aacute" xMin="9" yMin="0" xMax="656" yMax="939">
      <contour>
        <pt x="9" y="6" on="1"/>
        <pt x="281" y="740" on="1"/>
        <pt x="384" y="740" on="1"/>
        <pt x="656" y="6" on="1"/>
        <pt x="656" y="0" on="1"/>
        <pt x="589" y="0" on="1"/>
        <pt x="502" y="231" on="1"/>
        <pt x="162" y="231" on="1"/>
        <pt x="76" y="0" on="1"/>
        <pt x="9" y="0" on="1"/>
      </contour>
      <contour>
        <pt x="483" y="291" on="1"/>
        <pt x="381" y="563" on="1"/>
        <pt x="335" y="688" on="1"/>
        <pt x="329" y="688" on="1"/>
        <pt x="284" y="563" on="1"/>
        <pt x="182" y="291" on="1"/>
      </contour>
      <contour>
        <pt x="300" y="806" on="1"/>
        <pt x="376" y="939" on="1"/>
        <pt x="447" y="939" on="1"/>
        <pt x="354" y="800" on="1"/>
      </contour>
    </TTGlyph>
    <TTGlyph name="Aacute.sc" xMin="15" yMin="0" xMax="584" yMax="738">
      <contour>
        <pt x="15" y="5" on="1"/>
        <pt x="250" y="577" on="1"/>
        <pt x="350" y="577" on="1"/>
        <pt x="584" y="5" on="1"/>
        <pt x="584" y="0" on="1"/>
        <pt x="519" y="0" on="1"/>
        <pt x="447" y="173" on="1"/>
        <pt x="153" y="173" on="1"/>
        <pt x="80" y="0" on="1"/>
        <pt x="15" y="0" on="1"/>
      </contour>
      <contour>
        <pt x="429" y="225" on="1"/>
        <pt x="342" y="433" on="1"/>
        <pt x="302" y="529" on="1"/>
        <pt x="296" y="529" on="1"/>
        <pt x="257" y="433" on="1"/>
        <pt x="170" y="225" on="1"/>
      </contour>
      <contour>
        <pt x="270" y="630" on="1"/>
        <pt x="334" y="738" on="1"/>
        <pt x="403" y="738" on="1"/>
        <pt x="321" y="625" on="1"/>
      </contour>
    </TTGlyph>
    <TTGlyph name="Abreve" xMin="9" yMin="0" xMax="656" yMax="957">
      <contour>
        <pt x="9" y="6" on="1"/>
        <pt x="281" y="740" on="1"/>
        <pt x="384" y="740" on="1"/>
        <pt x="656" y="6" on="1"/>
        <pt x="656" y="0" on="1"/>
        <pt x="589" y="0" on="1"/>
        <pt x="502" y="231" on="1"/>
        <pt x="162" y="231" on="1"/>
        <pt x="76" y="0" on="1"/>
        <pt x="9" y="0" on="1"/>
      </contour>
      <contour>
        <pt x="483" y="291" on="1"/>
        <pt x="381" y="563" on="1"/>
        <pt x="335" y="688" on="1"/>
        <pt x="329" y="688" on="1"/>
        <pt x="284" y="563" on="1"/>
        <pt x="182" y="291" on="1"/>
      </contour>
      <contour>
        <pt x="333" y="814" on="1"/>
        <pt x="248" y="814" on="0"/>
        <pt x="161" y="891" on="0"/>
        <pt x="161" y="957" on="1"/>
        <pt x="214" y="957" on="1"/>
        <pt x="214" y="911" on="0"/>
        <pt x="275" y="860" on="0"/>
        <pt x="333" y="860" on="1"/>
        <pt x="390" y="860" on="0"/>
        <pt x="451" y="911" on="0"/>
        <pt x="451" y="957" on="1"/>
        <pt x="505" y="957" on="1"/>
        <pt x="505" y="891" on="0"/>
        <pt x="418" y="814" on="0"/>
      </contour>
    </TTGlyph>
    <TTGlyph name="Abreve.sc" xMin="15" yMin="0" xMax="584" yMax="750">
      <contour>
        <pt x="300" y="634" on="1"/>
        <pt x="224" y="634" on="0"/>
        <pt x="147" y="698" on="0"/>
        <pt x="147" y="750" on="1"/>
        <pt x="198" y="750" on="1"/>
        <pt x="198" y="714" on="0"/>
        <pt x="249" y="675" on="0"/>
        <pt x="300" y="675" on="1"/>
        <pt x="351" y="675" on="0"/>
        <pt x="403" y="714" on="0"/>
        <pt x="403" y="750" on="1"/>
        <pt x="453" y="750" on="1"/>
        <pt x="453" y="697" on="0"/>
        <pt x="376" y="634" on="0"/>
      </contour>
      <contour>
        <pt x="15" y="5" on="1"/>
        <pt x="250" y="577" on="1"/>
        <pt x="350" y="577" on="1"/>
        <pt x="584" y="5" on="1"/>
        <pt x="584" y="0" on="1"/>
        <pt x="519" y="0" on="1"/>
        <pt x="447" y="173" on="1"/>
        <pt x="153" y="173" on="1"/>
        <pt x="80" y="0" on="1"/>
        <pt x="15" y="0" on="1"/>
      </contour>
      <contour>
        <pt x="429" y="225" on="1"/>
        <pt x="342" y="433" on="1"/>
        <pt x="302" y="529" on="1"/>
        <pt x="296" y="529" on="1"/>
        <pt x="257" y="433" on="1"/>
        <pt x="170" y="225" on="1"/>
      </contour>
    </TTGlyph>
    <TTGlyph name="Acircumflex" xMin="9" yMin="0" xMax="656" yMax="947">
      <contour>
        <pt x="9" y="6" on="1"/>
        <pt x="281" y="740" on="1"/>
        <pt x="384" y="740" on="1"/>
        <pt x="656" y="6" on="1"/>
        <pt x="656" y="0" on="1"/>
        <pt x="589" y="0" on="1"/>
        <pt x="502" y="231" on="1"/>
        <pt x="162" y="231" on="1"/>
        <pt x="76" y="0" on="1"/>
        <pt x="9" y="0" on="1"/>
      </contour>
      <contour>
        <pt x="483" y="291" on="1"/>
        <pt x="381" y="563" on="1"/>
        <pt x="335" y="688" on="1"/>
        <pt x="329" y="688" on="1"/>
        <pt x="284" y="563" on="1"/>
        <pt x="182" y="291" on="1"/>
      </contour>
      <contour>
        <pt x="176" y="874" on="1"/>
        <pt x="333" y="947" on="1"/>
        <pt x="490" y="874" on="1"/>
        <pt x="490" y="814" on="1"/>
        <pt x="333" y="888" on="1"/>
        <pt x="176" y="814" on="1"/>
      </contour>
    </TTGlyph>
    <TTGlyph name="Acircumflex.sc" xMin="15" yMin="0" xMax="584" yMax="744">
      <contour>
        <pt x="15" y="5" on="1"/>
        <pt x="250" y="577" on="1"/>
        <pt x="350" y="577" on="1"/>
        <pt x="584" y="5" on="1"/>
        <pt x="584" y="0" on="1"/>
        <pt x="519" y="0" on="1"/>
        <pt x="447" y="173" on="1"/>
        <pt x="153" y="173" on="1"/>
        <pt x="80" y="0" on="1"/>
        <pt x="15" y="0" on="1"/>
      </contour>
      <contour>
        <pt x="429" y="225" on="1"/>
        <pt x="342" y="433" on="1"/>
        <pt x="302" y="529" on="1"/>
        <pt x="296" y="529" on="1"/>
        <pt x="257" y="433" on="1"/>
        <pt x="170" y="225" on="1"/>
      </contour>
      <contour>
        <pt x="162" y="686" on="1"/>
        <pt x="301" y="744" on="1"/>
        <pt x="440" y="686" on="1"/>
        <pt x="440" y="634" on="1"/>
        <pt x="301" y="691" on="1"/>
        <pt x="162" y="634" on="1"/>
      </contour>
    </TTGlyph>
    <TTGlyph name="Adblgrave" xMin="9" yMin="0" xMax="656" yMax="932">
      <contour>
        <pt x="9" y="6" on="1"/>
        <pt x="281" y="740" on="1"/>
        <pt x="384" y="740" on="1"/>
        <pt x="656" y="6" on="1"/>
        <pt x="656" y="0" on="1"/>
        <pt x="589" y="0" on="1"/>
        <pt x="502" y="231" on="1"/>
        <pt x="162" y="231" on="1"/>
        <pt x="76" y="0" on="1"/>
        <pt x="9" y="0" on="1"/>
      </contour>
      <contour>
        <pt x="483" y="291" on="1"/>
        <pt x="381" y="563" on="1"/>
        <pt x="335" y="688" on="1"/>
        <pt x="329" y="688" on="1"/>
        <pt x="284" y="563" on="1"/>
        <pt x="182" y="291" on="1"/>
      </contour>
      <contour>
        <pt x="233" y="794" on="1"/>
        <pt x="140" y="932" on="1"/>
        <pt x="209" y="932" on="1"/>
        <pt x="285" y="807" on="1"/>
      </contour>
      <contour>
        <pt x="380" y="794" on="1"/>
        <pt x="287" y="932" on="1"/>
        <pt x="356" y="932" on="1"/>
        <pt x="432" y="807" on="1"/>
      </contour>
    </TTGlyph>
    <TTGlyph name="Adblgrave.sc" xMin="15" yMin="0" xMax="584" yMax="734">
      <contour>
        <pt x="15" y="5" on="1"/>
        <pt x="250" y="577" on="1"/>
        <pt x="350" y="577" on="1"/>
        <pt x="584" y="5" on="1"/>
        <pt x="584" y="0" on="1"/>
        <pt x="519" y="0" on="1"/>
        <pt x="447" y="173" on="1"/>
        <pt x="153" y="173" on="1"/>
        <pt x="80" y="0" on="1"/>
        <pt x="15" y="0" on="1"/>
      </contour>
      <contour>
        <pt x="429" y="225" on="1"/>
        <pt x="342" y="433" on="1"/>
        <pt x="302" y="529" on="1"/>
        <pt x="296" y="529" on="1"/>
        <pt x="257" y="433" on="1"/>
        <pt x="170" y="225" on="1"/>
      </contour>
      <contour>
        <pt x="127" y="734" on="1"/>
        <pt x="194" y="734" on="1"/>
        <pt x="258" y="630" on="1"/>
        <pt x="209" y="620" on="1"/>
      </contour>
      <contour>
        <pt x="258" y="734" on="1"/>
        <pt x="324" y="734" on="1"/>
        <pt x="389" y="630" on="1"/>
        <pt x="340" y="620" on="1"/>
      </contour>
    </TTGlyph>
    <TTGlyph name="Adieresis" xMin="9" yMin="0" xMax="656" yMax="916">
      <contour>
        <pt x="9" y="6" on="1"/>
        <pt x="281" y="740" on="1"/>
        <pt x="384" y="740" on="1"/>
        <pt x="656" y="6" on="1"/>
        <pt x="656" y="0" on="1"/>
        <pt x="589" y="0" on="1"/>
        <pt x="502" y="231" on="1"/>
        <pt x="162" y="231" on="1"/>
        <pt x="76" y="0" on="1"/>
        <pt x="9" y="0" on="1"/>
      </contour>
      <contour>
        <pt x="483" y="291" on="1"/>
        <pt x="381" y="563" on="1"/>
        <pt x="335" y="688" on="1"/>
        <pt x="329" y="688" on="1"/>
        <pt x="284" y="563" on="1"/>
        <pt x="182" y="291" on="1"/>
      </contour>
      <contour>
        <pt x="206" y="823" on="1"/>
        <pt x="159" y="823" on="0"/>
        <pt x="159" y="870" on="1"/>
        <pt x="159" y="916" on="0"/>
        <pt x="206" y="916" on="1"/>
        <pt x="228" y="916" on="0"/>
        <pt x="254" y="894" on="0"/>
        <pt x="254" y="870" on="1"/>
        <pt x="254" y="845" on="0"/>
        <pt x="228" y="823" on="0"/>
      </contour>
      <contour>
        <pt x="459" y="823" on="1"/>
        <pt x="412" y="823" on="0"/>
        <pt x="412" y="870" on="1"/>
        <pt x="412" y="916" on="0"/>
        <pt x="459" y="916" on="1"/>
        <pt x="481" y="916" on="0"/>
        <pt x="507" y="894" on="0"/>
        <pt x="507" y="870" on="1"/>
        <pt x="507" y="845" on="0"/>
        <pt x="481" y="823" on="0"/>
      </contour>
    </TTGlyph>
    <TTGlyph name="Adieresis.sc" xMin="15" yMin="0" xMax="584" yMax="724">
      <contour>
        <pt x="188" y="641" on="1"/>
        <pt x="145" y="641" on="0"/>
        <pt x="145" y="682" on="1"/>
        <pt x="145" y="724" on="0"/>
        <pt x="188" y="724" on="1"/>
        <pt x="209" y="724" on="0"/>
        <pt x="233" y="704" on="0"/>
        <pt x="233" y="682" on="1"/>
        <pt x="233" y="660" on="0"/>
        <pt x="209" y="641" on="0"/>
      </contour>
      <contour>
        <pt x="412" y="641" on="1"/>
        <pt x="368" y="641" on="0"/>
        <pt x="368" y="682" on="1"/>
        <pt x="368" y="724" on="0"/>
        <pt x="412" y="724" on="1"/>
        <pt x="432" y="724" on="0"/>
        <pt x="456" y="704" on="0"/>
        <pt x="456" y="682" on="1"/>
        <pt x="456" y="660" on="0"/>
        <pt x="432" y="641" on="0"/>
      </contour>
      <contour>
        <pt x="15" y="5" on="1"/>
        <pt x="250" y="577" on="1"/>
        <pt x="350" y="577" on="1"/>
        <pt x="584" y="5" on="1"/>
        <pt x="584" y="0" on="1"/>
        <pt x="519" y="0" on="1"/>
        <pt x="447" y="173" on="1"/>
        <pt x="153" y="173" on="1"/>
        <pt x="80" y="0" on="1"/>
        <pt x="15" y="0" on="1"/>
      </contour>
      <contour>
        <pt x="429" y="225" on="1"/>
        <pt x="342" y="433" on="1"/>
        <pt x="302" y="529" on="1"/>
        <pt x="296" y="529" on="1"/>
        <pt x="257" y="433" on="1"/>
        <pt x="170" y="225" on="1"/>
      </contour>
    </TTGlyph>
    <TTGlyph name="Agrave" xMin="9" yMin="0" xMax="656" yMax="939">
      <contour>
        <pt x="9" y="6" on="1"/>
        <pt x="281" y="740" on="1"/>
        <pt x="384" y="740" on="1"/>
        <pt x="656" y="6" on="1"/>
        <pt x="656" y="0" on="1"/>
        <pt x="589" y="0" on="1"/>
        <pt x="502" y="231" on="1"/>
        <pt x="162" y="231" on="1"/>
        <pt x="76" y="0" on="1"/>
        <pt x="9" y="0" on="1"/>
      </contour>
      <contour>
        <pt x="483" y="291" on="1"/>
        <pt x="381" y="563" on="1"/>
        <pt x="335" y="688" on="1"/>
        <pt x="329" y="688" on="1"/>
        <pt x="284" y="563" on="1"/>
        <pt x="182" y="291" on="1"/>
      </contour>
      <contour>
        <pt x="305" y="800" on="1"/>
        <pt x="212" y="939" on="1"/>
        <pt x="283" y="939" on="1"/>
        <pt x="359" y="813" on="1"/>
      </contour>
    </TTGlyph>
    <TTGlyph name="Agrave.sc" xMin="15" yMin="0" xMax="584" yMax="738">
      <contour>
        <pt x="15" y="5" on="1"/>
        <pt x="250" y="577" on="1"/>
        <pt x="350" y="577" on="1"/>
        <pt x="584" y="5" on="1"/>
        <pt x="584" y="0" on="1"/>
        <pt x="519" y="0" on="1"/>
        <pt x="447" y="173" on="1"/>
        <pt x="153" y="173" on="1"/>
        <pt x="80" y="0" on="1"/>
        <pt x="15" y="0" on="1"/>
      </contour>
      <contour>
        <pt x="429" y="225" on="1"/>
        <pt x="342" y="433" on="1"/>
        <pt x="302" y="529" on="1"/>
        <pt x="296" y="529" on="1"/>
        <pt x="257" y="433" on="1"/>
        <pt x="170" y="225" on="1"/>
      </contour>
      <contour>
        <pt x="273" y="625" on="1"/>
        <pt x="191" y="738" on="1"/>
        <pt x="260" y="738" on="1"/>
        <pt x="324" y="635" on="1"/>
      </contour>
    </TTGlyph>
    <TTGlyph name="Ainvertedbreve" xMin="9" yMin="0" xMax="656" yMax="961">
      <contour>
        <pt x="9" y="6" on="1"/>
        <pt x="281" y="740" on="1"/>
        <pt x="384" y="740" on="1"/>
        <pt x="656" y="6" on="1"/>
        <pt x="656" y="0" on="1"/>
        <pt x="589" y="0" on="1"/>
        <pt x="502" y="231" on="1"/>
        <pt x="162" y="231" on="1"/>
        <pt x="76" y="0" on="1"/>
        <pt x="9" y="0" on="1"/>
      </contour>
      <contour>
        <pt x="483" y="291" on="1"/>
        <pt x="381" y="563" on="1"/>
        <pt x="335" y="688" on="1"/>
        <pt x="329" y="688" on="1"/>
        <pt x="284" y="563" on="1"/>
        <pt x="182" y="291" on="1"/>
      </contour>
      <contour>
        <pt x="451" y="818" on="1"/>
        <pt x="451" y="864" on="0"/>
        <pt x="390" y="915" on="0"/>
        <pt x="332" y="915" on="1"/>
        <pt x="275" y="915" on="0"/>
        <pt x="213" y="864" on="0"/>
        <pt x="213" y="818" on="1"/>
        <pt x="160" y="818" on="1"/>
        <pt x="160" y="884" on="0"/>
        <pt x="247" y="961" on="0"/>
        <pt x="332" y="961" on="1"/>
        <pt x="417" y="961" on="0"/>
        <pt x="504" y="884" on="0"/>
        <pt x="504" y="818" on="1"/>
      </contour>
    </TTGlyph>
    <TTGlyph name="Ainvertedbreve.sc" xMin="15" yMin="0" xMax="584" yMax="754">
      <contour>
        <pt x="147" y="638" on="1"/>
        <pt x="147" y="690" on="0"/>
        <pt x="224" y="754" on="0"/>
        <pt x="300" y="754" on="1"/>
        <pt x="376" y="754" on="0"/>
        <pt x="453" y="691" on="0"/>
        <pt x="453" y="638" on="1"/>
        <pt x="402" y="638" on="1"/>
        <pt x="402" y="673" on="0"/>
        <pt x="351" y="712" on="0"/>
        <pt x="300" y="712" on="1"/>
        <pt x="249" y="712" on="0"/>
        <pt x="198" y="673" on="0"/>
        <pt x="198" y="638" on="1"/>
      </contour>
      <contour>
        <pt x="15" y="5" on="1"/>
        <pt x="250" y="577" on="1"/>
        <pt x="350" y="577" on="1"/>
        <pt x="584" y="5" on="1"/>
        <pt x="584" y="0" on="1"/>
        <pt x="519" y="0" on="1"/>
        <pt x="447" y="173" on="1"/>
        <pt x="153" y="173" on="1"/>
        <pt x="80" y="0" on="1"/>
        <pt x="15" y="0" on="1"/>
      </contour>
      <contour>
        <pt x="429" y="225" on="1"/>
        <pt x="342" y="433" on="1"/>
        <pt x="302" y="529" on="1"/>
        <pt x="296" y="529" on="1"/>
        <pt x="257" y="433" on="1"/>
        <pt x="170" y="225" on="1"/>
      </contour>
    </TTGlyph>
    <TTGlyph name="Amacron" xMin="9" yMin="0" xMax="656" yMax="895">
      <contour>
        <pt x="9" y="6" on="1"/>
        <pt x="281" y="740" on="1"/>
        <pt x="384" y="740" on="1"/>
        <pt x="656" y="6" on="1"/>
        <pt x="656" y="0" on="1"/>
        <pt x="589" y="0" on="1"/>
        <pt x="502" y="231" on="1"/>
        <pt x="162" y="231" on="1"/>
        <pt x="76" y="0" on="1"/>
        <pt x="9" y="0" on="1"/>
      </contour>
      <contour>
        <pt x="483" y="291" on="1"/>
        <pt x="381" y="563" on="1"/>
        <pt x="335" y="688" on="1"/>
        <pt x="329" y="688" on="1"/>
        <pt x="284" y="563" on="1"/>
        <pt x="182" y="291" on="1"/>
      </contour>
      <contour>
        <pt x="180" y="895" on="1"/>
        <pt x="483" y="895" on="1"/>
        <pt x="483" y="842" on="1"/>
        <pt x="180" y="842" on="1"/>
      </contour>
    </TTGlyph>
    <TTGlyph name="Amacron.sc" xMin="15" yMin="0" xMax="584" yMax="705">
      <contour>
        <pt x="15" y="5" on="1"/>
        <pt x="250" y="577" on="1"/>
        <pt x="350" y="577" on="1"/>
        <pt x="584" y="5" on="1"/>
        <pt x="584" y="0" on="1"/>
        <pt x="519" y="0" on="1"/>
        <pt x="447" y="173" on="1"/>
        <pt x="153" y="173" on="1"/>
        <pt x="80" y="0" on="1"/>
        <pt x="15" y="0" on="1"/>
      </contour>
      <contour>
        <pt x="429" y="225" on="1"/>
        <pt x="342" y="433" on="1"/>
        <pt x="302" y="529" on="1"/>
        <pt x="296" y="529" on="1"/>
        <pt x="257" y="433" on="1"/>
        <pt x="170" y="225" on="1"/>
      </contour>
      <contour>
        <pt x="164" y="705" on="1"/>
        <pt x="435" y="705" on="1"/>
        <pt x="435" y="657" on="1"/>
        <pt x="164" y="657" on="1"/>
      </contour>
    </TTGlyph>
    <TTGlyph name="Aogonek" xMin="9" yMin="-220" xMax="656" yMax="740">
      <contour>
        <pt x="585" y="-220" on="1"/>
        <pt x="489" y="-220" on="0"/>
        <pt x="489" y="-139" on="1"/>
        <pt x="489" y="-120" on="0"/>
        <pt x="501" y="-85" on="0"/>
        <pt x="528" y="-52" on="0"/>
        <pt x="570" y="-18" on="0"/>
        <pt x="601" y="0" on="1"/>
        <pt x="589" y="0" on="1"/>
        <pt x="502" y="231" on="1"/>
        <pt x="162" y="231" on="1"/>
        <pt x="76" y="0" on="1"/>
        <pt x="9" y="0" on="1"/>
        <pt x="9" y="6" on="1"/>
        <pt x="281" y="740" on="1"/>
        <pt x="384" y="740" on="1"/>
        <pt x="656" y="6" on="1"/>
        <pt x="656" y="-20" on="1"/>
        <pt x="595" y="-49" on="0"/>
        <pt x="540" y="-105" on="0"/>
        <pt x="540" y="-136" on="1"/>
        <pt x="540" y="-175" on="0"/>
        <pt x="589" y="-175" on="1"/>
        <pt x="620" y="-175" on="0"/>
        <pt x="655" y="-164" on="1"/>
        <pt x="655" y="-208" on="1"/>
        <pt x="641" y="-214" on="0"/>
        <pt x="604" y="-220" on="0"/>
      </contour>
      <contour>
        <pt x="483" y="291" on="1"/>
        <pt x="381" y="563" on="1"/>
        <pt x="335" y="688" on="1"/>
        <pt x="329" y="688" on="1"/>
        <pt x="284" y="563" on="1"/>
        <pt x="182" y="291" on="1"/>
      </contour>
    </TTGlyph>
    <TTGlyph name="Aogonek.sc" xMin="14" yMin="-169" xMax="583" yMax="577">
      <contour>
        <pt x="519" y="-169" on="1"/>
        <pt x="434" y="-169" on="0"/>
        <pt x="434" y="-105" on="1"/>
        <pt x="434" y="-77" on="0"/>
        <pt x="474" y="-29" on="0"/>
        <pt x="524" y="0" on="1"/>
        <pt x="517" y="0" on="1"/>
        <pt x="446" y="173" on="1"/>
        <pt x="152" y="173" on="1"/>
        <pt x="79" y="0" on="1"/>
        <pt x="14" y="0" on="1"/>
        <pt x="14" y="5" on="1"/>
        <pt x="249" y="577" on="1"/>
        <pt x="349" y="577" on="1"/>
        <pt x="583" y="5" on="1"/>
        <pt x="583" y="-12" on="1"/>
        <pt x="532" y="-32" on="0"/>
        <pt x="483" y="-73" on="0"/>
        <pt x="483" y="-98" on="1"/>
        <pt x="483" y="-115" on="0"/>
        <pt x="504" y="-128" on="0"/>
        <pt x="524" y="-128" on="1"/>
        <pt x="538" y="-128" on="0"/>
        <pt x="569" y="-124" on="0"/>
        <pt x="583" y="-119" on="1"/>
        <pt x="583" y="-160" on="1"/>
        <pt x="569" y="-165" on="0"/>
        <pt x="536" y="-169" on="0"/>
      </contour>
      <contour>
        <pt x="427" y="225" on="1"/>
        <pt x="341" y="436" on="1"/>
        <pt x="301" y="529" on="1"/>
        <pt x="295" y="529" on="1"/>
        <pt x="256" y="436" on="1"/>
        <pt x="169" y="225" on="1"/>
      </contour>
    </TTGlyph>
    <TTGlyph name="Aring" xMin="9" yMin="0" xMax="656" yMax="994">
      <contour>
        <pt x="9" y="6" on="1"/>
        <pt x="281" y="740" on="1"/>
        <pt x="384" y="740" on="1"/>
        <pt x="656" y="6" on="1"/>
        <pt x="656" y="0" on="1"/>
        <pt x="589" y="0" on="1"/>
        <pt x="502" y="231" on="1"/>
        <pt x="162" y="231" on="1"/>
        <pt x="76" y="0" on="1"/>
        <pt x="9" y="0" on="1"/>
      </contour>
      <contour>
        <pt x="483" y="291" on="1"/>
        <pt x="381" y="563" on="1"/>
        <pt x="335" y="688" on="1"/>
        <pt x="329" y="688" on="1"/>
        <pt x="284" y="563" on="1"/>
        <pt x="182" y="291" on="1"/>
      </contour>
      <contour>
        <pt x="334" y="780" on="1"/>
        <pt x="283" y="780" on="0"/>
        <pt x="217" y="841" on="0"/>
        <pt x="217" y="887" on="1"/>
        <pt x="217" y="933" on="0"/>
        <pt x="283" y="994" on="0"/>
        <pt x="334" y="994" on="1"/>
        <pt x="385" y="994" on="0"/>
        <pt x="450" y="933" on="0"/>
        <pt x="450" y="887" on="1"/>
        <pt x="450" y="841" on="0"/>
        <pt x="385" y="780" on="0"/>
      </contour>
      <contour>
        <pt x="334" y="821" on="1"/>
        <pt x="369" y="821" on="0"/>
        <pt x="407" y="856" on="0"/>
        <pt x="407" y="887" on="1"/>
        <pt x="407" y="918" on="0"/>
        <pt x="369" y="954" on="0"/>
        <pt x="334" y="954" on="1"/>
        <pt x="298" y="954" on="0"/>
        <pt x="260" y="918" on="0"/>
        <pt x="260" y="887" on="1"/>
        <pt x="260" y="856" on="0"/>
        <pt x="298" y="821" on="0"/>
      </contour>
    </TTGlyph>
    <TTGlyph name="Aring.sc" xMin="15" yMin="0" xMax="584" yMax="792">
      <contour>
        <pt x="15" y="5" on="1"/>
        <pt x="250" y="577" on="1"/>
        <pt x="350" y="577" on="1"/>
        <pt x="584" y="5" on="1"/>
        <pt x="584" y="0" on="1"/>
        <pt x="519" y="0" on="1"/>
        <pt x="447" y="173" on="1"/>
        <pt x="153" y="173" on="1"/>
        <pt x="80" y="0" on="1"/>
        <pt x="15" y="0" on="1"/>
      </contour>
      <contour>
        <pt x="429" y="225" on="1"/>
        <pt x="342" y="433" on="1"/>
        <pt x="302" y="529" on="1"/>
        <pt x="296" y="529" on="1"/>
        <pt x="257" y="433" on="1"/>
        <pt x="170" y="225" on="1"/>
      </contour>
      <contour>
        <pt x="301" y="623" on="1"/>
        <pt x="256" y="623" on="0"/>
        <pt x="198" y="671" on="0"/>
        <pt x="198" y="707" on="1"/>
        <pt x="198" y="743" on="0"/>
        <pt x="256" y="792" on="0"/>
        <pt x="301" y="792" on="1"/>
        <pt x="346" y="792" on="0"/>
        <pt x="403" y="743" on="0"/>
        <pt x="403" y="707" on="1"/>
        <pt x="403" y="671" on="0"/>
        <pt x="346" y="623" on="0"/>
      </contour>
      <contour>
        <pt x="301" y="657" on="1"/>
        <pt x="332" y="657" on="0"/>
        <pt x="364" y="684" on="0"/>
        <pt x="364" y="707" on="1"/>
        <pt x="364" y="731" on="0"/>
        <pt x="332" y="758" on="0"/>
        <pt x="301" y="758" on="1"/>
        <pt x="269" y="758" on="0"/>
        <pt x="237" y="731" on="0"/>
        <pt x="237" y="707" on="1"/>
        <pt x="237" y="684" on="0"/>
        <pt x="269" y="657" on="0"/>
      </contour>
    </TTGlyph>
    <TTGlyph name="Aringacute" xMin="10" yMin="0" xMax="657" yMax="962">
      <contour>
        <pt x="10" y="6" on="1"/>
        <pt x="252" y="659" on="1"/>
        <pt x="229" y="673" on="0"/>
        <pt x="203" y="719" on="0"/>
        <pt x="203" y="748" on="1"/>
        <pt x="203" y="792" on="0"/>
        <pt x="260" y="853" on="0"/>
        <pt x="308" y="860" on="1"/>
        <pt x="372" y="962" on="1"/>
        <pt x="443" y="962" on="1"/>
        <pt x="372" y="856" on="1"/>
        <pt x="412" y="846" on="0"/>
        <pt x="460" y="787" on="0"/>
        <pt x="460" y="748" on="1"/>
        <pt x="460" y="720" on="0"/>
        <pt x="435" y="674" on="0"/>
        <pt x="413" y="660" on="1"/>
        <pt x="657" y="6" on="1"/>
        <pt x="657" y="0" on="1"/>
        <pt x="589" y="0" on="1"/>
        <pt x="503" y="231" on="1"/>
        <pt x="163" y="231" on="1"/>
        <pt x="77" y="0" on="1"/>
        <pt x="10" y="0" on="1"/>
      </contour>
      <contour>
        <pt x="332" y="680" on="1"/>
        <pt x="367" y="680" on="0"/>
        <pt x="409" y="717" on="0"/>
        <pt x="409" y="748" on="1"/>
        <pt x="409" y="780" on="0"/>
        <pt x="367" y="817" on="0"/>
        <pt x="332" y="817" on="1"/>
        <pt x="296" y="817" on="0"/>
        <pt x="254" y="780" on="0"/>
        <pt x="254" y="748" on="1"/>
        <pt x="254" y="717" on="0"/>
        <pt x="296" y="680" on="0"/>
      </contour>
      <contour>
        <pt x="483" y="291" on="1"/>
        <pt x="382" y="563" on="1"/>
        <pt x="356" y="634" on="1"/>
        <pt x="309" y="634" on="1"/>
        <pt x="283" y="563" on="1"/>
        <pt x="183" y="291" on="1"/>
      </contour>
    </TTGlyph>
    <TTGlyph name="Aringacute.sc" xMin="16" yMin="0" xMax="585" yMax="757">
      <contour>
        <pt x="16" y="5" on="1"/>
        <pt x="226" y="517" on="1"/>
        <pt x="184" y="540" on="0"/>
        <pt x="184" y="585" on="1"/>
        <pt x="184" y="620" on="0"/>
        <pt x="234" y="670" on="0"/>
        <pt x="277" y="676" on="1"/>
        <pt x="331" y="757" on="1"/>
        <pt x="399" y="757" on="1"/>
        <pt x="337" y="672" on="1"/>
        <pt x="372" y="664" on="0"/>
        <pt x="415" y="617" on="0"/>
        <pt x="415" y="585" on="1"/>
        <pt x="415" y="564" on="0"/>
        <pt x="393" y="529" on="0"/>
        <pt x="374" y="517" on="1"/>
        <pt x="585" y="5" on="1"/>
        <pt x="585" y="0" on="1"/>
        <pt x="520" y="0" on="1"/>
        <pt x="447" y="173" on="1"/>
        <pt x="153" y="173" on="1"/>
        <pt x="81" y="0" on="1"/>
        <pt x="16" y="0" on="1"/>
      </contour>
      <contour>
        <pt x="299" y="534" on="1"/>
        <pt x="331" y="534" on="0"/>
        <pt x="367" y="562" on="0"/>
        <pt x="367" y="585" on="1"/>
        <pt x="367" y="610" on="0"/>
        <pt x="331" y="638" on="0"/>
        <pt x="299" y="638" on="1"/>
        <pt x="267" y="638" on="0"/>
        <pt x="231" y="610" on="0"/>
        <pt x="231" y="585" on="1"/>
        <pt x="231" y="562" on="0"/>
        <pt x="268" y="534" on="0"/>
      </contour>
      <contour>
        <pt x="429" y="225" on="1"/>
        <pt x="342" y="433" on="1"/>
        <pt x="319" y="492" on="1"/>
        <pt x="280" y="491" on="1"/>
        <pt x="258" y="433" on="1"/>
        <pt x="171" y="225" on="1"/>
      </contour>
    </TTGlyph>
    <TTGlyph name="Atilde" xMin="9" yMin="0" xMax="656" yMax="926">
      <contour>
        <pt x="9" y="6" on="1"/>
        <pt x="281" y="740" on="1"/>
        <pt x="384" y="740" on="1"/>
        <pt x="656" y="6" on="1"/>
        <pt x="656" y="0" on="1"/>
        <pt x="589" y="0" on="1"/>
        <pt x="502" y="231" on="1"/>
        <pt x="162" y="231" on="1"/>
        <pt x="76" y="0" on="1"/>
        <pt x="9" y="0" on="1"/>
      </contour>
      <contour>
        <pt x="483" y="291" on="1"/>
        <pt x="381" y="563" on="1"/>
        <pt x="335" y="688" on="1"/>
        <pt x="329" y="688" on="1"/>
        <pt x="284" y="563" on="1"/>
        <pt x="182" y="291" on="1"/>
      </contour>
      <contour>
        <pt x="146" y="862" on="1"/>
        <pt x="172" y="893" on="0"/>
        <pt x="234" y="926" on="0"/>
        <pt x="265" y="926" on="1"/>
        <pt x="288" y="926" on="0"/>
        <pt x="328" y="913" on="0"/>
        <pt x="366" y="897" on="0"/>
        <pt x="405" y="884" on="0"/>
        <pt x="426" y="884" on="1"/>
        <pt x="472" y="884" on="0"/>
        <pt x="514" y="923" on="1"/>
        <pt x="538" y="897" on="1"/>
        <pt x="514" y="866" on="0"/>
        <pt x="449" y="832" on="0"/>
        <pt x="416" y="832" on="1"/>
        <pt x="395" y="832" on="0"/>
        <pt x="355" y="845" on="0"/>
        <pt x="316" y="860" on="0"/>
        <pt x="277" y="873" on="0"/>
        <pt x="257" y="873" on="1"/>
        <pt x="235" y="873" on="0"/>
        <pt x="192" y="856" on="0"/>
        <pt x="170" y="836" on="1"/>
      </contour>
    </TTGlyph>
    <TTGlyph name="Atilde.sc" xMin="15" yMin="0" xMax="584" yMax="729">
      <contour>
        <pt x="15" y="5" on="1"/>
        <pt x="250" y="577" on="1"/>
        <pt x="350" y="577" on="1"/>
        <pt x="584" y="5" on="1"/>
        <pt x="584" y="0" on="1"/>
        <pt x="519" y="0" on="1"/>
        <pt x="447" y="173" on="1"/>
        <pt x="153" y="173" on="1"/>
        <pt x="80" y="0" on="1"/>
        <pt x="15" y="0" on="1"/>
      </contour>
      <contour>
        <pt x="429" y="225" on="1"/>
        <pt x="342" y="433" on="1"/>
        <pt x="302" y="529" on="1"/>
        <pt x="296" y="529" on="1"/>
        <pt x="257" y="433" on="1"/>
        <pt x="170" y="225" on="1"/>
      </contour>
      <contour>
        <pt x="135" y="672" on="1"/>
        <pt x="158" y="700" on="0"/>
        <pt x="214" y="729" on="0"/>
        <pt x="241" y="729" on="1"/>
        <pt x="261" y="729" on="0"/>
        <pt x="297" y="719" on="0"/>
        <pt x="330" y="707" on="0"/>
        <pt x="364" y="697" on="0"/>
        <pt x="383" y="697" on="1"/>
        <pt x="422" y="697" on="0"/>
        <pt x="462" y="726" on="1"/>
        <pt x="482" y="706" on="1"/>
        <pt x="460" y="678" on="0"/>
        <pt x="402" y="649" on="0"/>
        <pt x="373" y="649" on="1"/>
        <pt x="354" y="649" on="0"/>
        <pt x="318" y="659" on="0"/>
        <pt x="284" y="671" on="0"/>
        <pt x="249" y="681" on="0"/>
        <pt x="232" y="681" on="1"/>
        <pt x="192" y="681" on="0"/>
        <pt x="155" y="651" on="1"/>
      </contour>
    </TTGlyph>
    <TTGlyph name="B" xMin="93" yMin="-10" xMax="601" yMax="749">
      <contour>
        <pt x="319" y="-10" on="1"/>
        <pt x="268" y="-10" on="0"/>
        <pt x="153" y="-3" on="0"/>
        <pt x="93" y="5" on="1"/>
        <pt x="93" y="735" on="1"/>
        <pt x="164" y="742" on="0"/>
        <pt x="263" y="749" on="0"/>
        <pt x="309" y="749" on="1"/>
        <pt x="451" y="749" on="0"/>
        <pt x="577" y="656" on="0"/>
        <pt x="577" y="551" on="1"/>
        <pt x="577" y="483" on="0"/>
        <pt x="509" y="390" on="0"/>
        <pt x="449" y="379" on="1"/>
        <pt x="449" y="375" on="1"/>
        <pt x="524" y="361" on="0"/>
        <pt x="601" y="268" on="0"/>
        <pt x="601" y="193" on="1"/>
        <pt x="601" y="-10" on="0"/>
      </contour>
      <contour>
        <pt x="318" y="45" on="1"/>
        <pt x="428" y="45" on="0"/>
        <pt x="533" y="119" on="0"/>
        <pt x="533" y="197" on="1"/>
        <pt x="533" y="274" on="0"/>
        <pt x="436" y="348" on="0"/>
        <pt x="333" y="348" on="1"/>
        <pt x="159" y="348" on="1"/>
        <pt x="159" y="55" on="1"/>
        <pt x="184" y="50" on="0"/>
        <pt x="266" y="45" on="0"/>
      </contour>
      <contour>
        <pt x="329" y="402" on="1"/>
        <pt x="426" y="402" on="0"/>
        <pt x="509" y="469" on="0"/>
        <pt x="509" y="548" on="1"/>
        <pt x="509" y="587" on="0"/>
        <pt x="487" y="643" on="0"/>
        <pt x="440" y="677" on="0"/>
        <pt x="365" y="693" on="0"/>
        <pt x="312" y="693" on="1"/>
        <pt x="264" y="693" on="0"/>
        <pt x="191" y="690" on="0"/>
        <pt x="159" y="685" on="1"/>
        <pt x="159" y="402" on="1"/>
      </contour>
    </TTGlyph>
    <TTGlyph name="B.sc" xMin="87" yMin="-8" xMax="535" yMax="584">
      <contour>
        <pt x="288" y="-8" on="1"/>
        <pt x="195" y="-8" on="0"/>
        <pt x="87" y="4" on="1"/>
        <pt x="87" y="573" on="1"/>
        <pt x="150" y="579" on="0"/>
        <pt x="238" y="584" on="0"/>
        <pt x="279" y="584" on="1"/>
        <pt x="404" y="584" on="0"/>
        <pt x="514" y="511" on="0"/>
        <pt x="514" y="429" on="1"/>
        <pt x="514" y="376" on="0"/>
        <pt x="454" y="305" on="0"/>
        <pt x="402" y="296" on="1"/>
        <pt x="402" y="293" on="1"/>
        <pt x="467" y="282" on="0"/>
        <pt x="535" y="210" on="0"/>
        <pt x="535" y="152" on="1"/>
        <pt x="535" y="-8" on="0"/>
      </contour>
      <contour>
        <pt x="287" y="43" on="1"/>
        <pt x="381" y="43" on="0"/>
        <pt x="469" y="98" on="0"/>
        <pt x="469" y="156" on="1"/>
        <pt x="469" y="213" on="0"/>
        <pt x="388" y="268" on="0"/>
        <pt x="301" y="268" on="1"/>
        <pt x="151" y="268" on="1"/>
        <pt x="151" y="50" on="1"/>
        <pt x="192" y="43" on="0"/>
      </contour>
      <contour>
        <pt x="297" y="316" on="1"/>
        <pt x="379" y="316" on="0"/>
        <pt x="449" y="366" on="0"/>
        <pt x="449" y="425" on="1"/>
        <pt x="449" y="484" on="0"/>
        <pt x="372" y="533" on="0"/>
        <pt x="281" y="533" on="1"/>
        <pt x="240" y="533" on="0"/>
        <pt x="178" y="531" on="0"/>
        <pt x="151" y="527" on="1"/>
        <pt x="151" y="316" on="1"/>
      </contour>
    </TTGlyph>
    <TTGlyph name="C" xMin="54" yMin="-9" xMax="544" yMax="750">
      <contour>
        <pt x="380" y="-9" on="1"/>
        <pt x="54" y="-7" on="0"/>
        <pt x="54" y="368" on="1"/>
        <pt x="54" y="750" on="0"/>
        <pt x="382" y="750" on="1"/>
        <pt x="415" y="750" on="0"/>
        <pt x="503" y="740" on="0"/>
        <pt x="544" y="732" on="1"/>
        <pt x="544" y="672" on="1"/>
        <pt x="499" y="680" on="0"/>
        <pt x="419" y="689" on="0"/>
        <pt x="388" y="689" on="1"/>
        <pt x="254" y="689" on="0"/>
        <pt x="124" y="533" on="0"/>
        <pt x="124" y="369" on="1"/>
        <pt x="124" y="51" on="0"/>
        <pt x="380" y="51" on="1"/>
        <pt x="396" y="51" on="0"/>
        <pt x="439" y="54" on="0"/>
        <pt x="485" y="60" on="0"/>
        <pt x="529" y="67" on="0"/>
        <pt x="544" y="71" on="1"/>
        <pt x="544" y="13" on="1"/>
        <pt x="527" y="8" on="0"/>
        <pt x="485" y="0" on="0"/>
        <pt x="441" y="-6" on="0"/>
        <pt x="398" y="-9" on="0"/>
      </contour>
    </TTGlyph>
    <TTGlyph name="C.sc" xMin="54" yMin="-7" xMax="483" yMax="585">
      <contour>
        <pt x="338" y="-7" on="1"/>
        <pt x="54" y="-7" on="0"/>
        <pt x="54" y="287" on="1"/>
        <pt x="54" y="585" on="0"/>
        <pt x="339" y="585" on="1"/>
        <pt x="370" y="585" on="0"/>
        <pt x="447" y="577" on="0"/>
        <pt x="483" y="571" on="1"/>
        <pt x="483" y="514" on="1"/>
        <pt x="444" y="521" on="0"/>
        <pt x="374" y="528" on="0"/>
        <pt x="345" y="528" on="1"/>
        <pt x="230" y="528" on="0"/>
        <pt x="122" y="411" on="0"/>
        <pt x="122" y="288" on="1"/>
        <pt x="122" y="167" on="0"/>
        <pt x="227" y="50" on="0"/>
        <pt x="339" y="50" on="1"/>
        <pt x="353" y="50" on="0"/>
        <pt x="391" y="53" on="0"/>
        <pt x="432" y="57" on="0"/>
        <pt x="469" y="62" on="0"/>
        <pt x="483" y="65" on="1"/>
        <pt x="483" y="10" on="1"/>
        <pt x="468" y="7" on="0"/>
        <pt x="431" y="0" on="0"/>
        <pt x="392" y="-4" on="0"/>
        <pt x="354" y="-7" on="0"/>
      </contour>
    </TTGlyph>
    <TTGlyph name="Cacute" xMin="54" yMin="-9" xMax="544" yMax="939">
      <contour>
        <pt x="380" y="-9" on="1"/>
        <pt x="54" y="-7" on="0"/>
        <pt x="54" y="368" on="1"/>
        <pt x="54" y="750" on="0"/>
        <pt x="382" y="750" on="1"/>
        <pt x="415" y="750" on="0"/>
        <pt x="503" y="740" on="0"/>
        <pt x="544" y="732" on="1"/>
        <pt x="544" y="672" on="1"/>
        <pt x="499" y="680" on="0"/>
        <pt x="419" y="689" on="0"/>
        <pt x="388" y="689" on="1"/>
        <pt x="254" y="689" on="0"/>
        <pt x="124" y="533" on="0"/>
        <pt x="124" y="369" on="1"/>
        <pt x="124" y="51" on="0"/>
        <pt x="380" y="51" on="1"/>
        <pt x="396" y="51" on="0"/>
        <pt x="439" y="54" on="0"/>
        <pt x="485" y="60" on="0"/>
        <pt x="529" y="67" on="0"/>
        <pt x="544" y="71" on="1"/>
        <pt x="544" y="13" on="1"/>
        <pt x="527" y="8" on="0"/>
        <pt x="485" y="0" on="0"/>
        <pt x="441" y="-6" on="0"/>
        <pt x="398" y="-9" on="0"/>
      </contour>
      <contour>
        <pt x="313" y="806" on="1"/>
        <pt x="389" y="939" on="1"/>
        <pt x="460" y="939" on="1"/>
        <pt x="367" y="800" on="1"/>
      </contour>
    </TTGlyph>
    <TTGlyph name="Cacute.sc" xMin="54" yMin="-7" xMax="483" yMax="738">
      <contour>
        <pt x="338" y="-7" on="1"/>
        <pt x="54" y="-7" on="0"/>
        <pt x="54" y="287" on="1"/>
        <pt x="54" y="585" on="0"/>
        <pt x="339" y="585" on="1"/>
        <pt x="368" y="585" on="0"/>
        <pt x="445" y="578" on="0"/>
        <pt x="483" y="571" on="1"/>
        <pt x="483" y="514" on="1"/>
        <pt x="441" y="521" on="0"/>
        <pt x="372" y="528" on="0"/>
        <pt x="345" y="528" on="1"/>
        <pt x="231" y="528" on="0"/>
        <pt x="122" y="412" on="0"/>
        <pt x="122" y="288" on="1"/>
        <pt x="122" y="166" on="0"/>
        <pt x="228" y="50" on="0"/>
        <pt x="339" y="50" on="1"/>
        <pt x="352" y="50" on="0"/>
        <pt x="391" y="53" on="0"/>
        <pt x="431" y="57" on="0"/>
        <pt x="469" y="62" on="0"/>
        <pt x="483" y="65" on="1"/>
        <pt x="483" y="10" on="1"/>
        <pt x="468" y="7" on="0"/>
        <pt x="431" y="0" on="0"/>
        <pt x="392" y="-4" on="0"/>
        <pt x="354" y="-7" on="0"/>
      </contour>
      <contour>
        <pt x="277" y="630" on="1"/>
        <pt x="342" y="738" on="1"/>
        <pt x="410" y="738" on="1"/>
        <pt x="328" y="625" on="1"/>
      </contour>
    </TTGlyph>
    <TTGlyph name="Ccaron" xMin="54" yMin="-9" xMax="544" yMax="943">
      <contour>
        <pt x="380" y="-9" on="1"/>
        <pt x="54" y="-7" on="0"/>
        <pt x="54" y="368" on="1"/>
        <pt x="54" y="750" on="0"/>
        <pt x="382" y="750" on="1"/>
        <pt x="415" y="750" on="0"/>
        <pt x="503" y="740" on="0"/>
        <pt x="544" y="732" on="1"/>
        <pt x="544" y="672" on="1"/>
        <pt x="499" y="680" on="0"/>
        <pt x="419" y="689" on="0"/>
        <pt x="388" y="689" on="1"/>
        <pt x="254" y="689" on="0"/>
        <pt x="124" y="533" on="0"/>
        <pt x="124" y="369" on="1"/>
        <pt x="124" y="51" on="0"/>
        <pt x="380" y="51" on="1"/>
        <pt x="396" y="51" on="0"/>
        <pt x="439" y="54" on="0"/>
        <pt x="485" y="60" on="0"/>
        <pt x="529" y="67" on="0"/>
        <pt x="544" y="71" on="1"/>
        <pt x="544" y="13" on="1"/>
        <pt x="527" y="8" on="0"/>
        <pt x="485" y="0" on="0"/>
        <pt x="441" y="-6" on="0"/>
        <pt x="398" y="-9" on="0"/>
      </contour>
      <contour>
        <pt x="191" y="943" on="1"/>
        <pt x="348" y="870" on="1"/>
        <pt x="505" y="943" on="1"/>
        <pt x="505" y="884" on="1"/>
        <pt x="348" y="810" on="1"/>
        <pt x="191" y="884" on="1"/>
      </contour>
    </TTGlyph>
    <TTGlyph name="Ccaron.sc" xMin="54" yMin="-7" xMax="483" yMax="742">
      <contour>
        <pt x="338" y="-7" on="1"/>
        <pt x="54" y="-7" on="0"/>
        <pt x="54" y="287" on="1"/>
        <pt x="54" y="585" on="0"/>
        <pt x="339" y="585" on="1"/>
        <pt x="368" y="585" on="0"/>
        <pt x="445" y="578" on="0"/>
        <pt x="483" y="571" on="1"/>
        <pt x="483" y="514" on="1"/>
        <pt x="441" y="521" on="0"/>
        <pt x="372" y="528" on="0"/>
        <pt x="345" y="528" on="1"/>
        <pt x="231" y="528" on="0"/>
        <pt x="122" y="412" on="0"/>
        <pt x="122" y="288" on="1"/>
        <pt x="122" y="166" on="0"/>
        <pt x="228" y="50" on="0"/>
        <pt x="339" y="50" on="1"/>
        <pt x="352" y="50" on="0"/>
        <pt x="391" y="53" on="0"/>
        <pt x="431" y="57" on="0"/>
        <pt x="469" y="62" on="0"/>
        <pt x="483" y="65" on="1"/>
        <pt x="483" y="10" on="1"/>
        <pt x="468" y="7" on="0"/>
        <pt x="431" y="0" on="0"/>
        <pt x="392" y="-4" on="0"/>
        <pt x="354" y="-7" on="0"/>
      </contour>
      <contour>
        <pt x="170" y="742" on="1"/>
        <pt x="309" y="685" on="1"/>
        <pt x="448" y="742" on="1"/>
        <pt x="448" y="689" on="1"/>
        <pt x="309" y="632" on="1"/>
        <pt x="170" y="689" on="1"/>
      </contour>
    </TTGlyph>
    <TTGlyph name="Ccedilla" xMin="54" yMin="-220" xMax="544" yMax="750">
      <contour>
        <pt x="306" y="-220" on="1"/>
        <pt x="287" y="-220" on="0"/>
        <pt x="243" y="-214" on="0"/>
        <pt x="223" y="-208" on="1"/>
        <pt x="223" y="-158" on="1"/>
        <pt x="255" y="-169" on="0"/>
        <pt x="291" y="-169" on="1"/>
        <pt x="333" y="-169" on="0"/>
        <pt x="369" y="-138" on="0"/>
        <pt x="369" y="-103" on="1"/>
        <pt x="369" y="-81" on="0"/>
        <pt x="354" y="-38" on="0"/>
        <pt x="336" y="-7" on="1"/>
        <pt x="54" y="19" on="0"/>
        <pt x="54" y="368" on="1"/>
        <pt x="54" y="750" on="0"/>
        <pt x="382" y="750" on="1"/>
        <pt x="415" y="750" on="0"/>
        <pt x="503" y="740" on="0"/>
        <pt x="544" y="732" on="1"/>
        <pt x="544" y="672" on="1"/>
        <pt x="499" y="680" on="0"/>
        <pt x="419" y="689" on="0"/>
        <pt x="388" y="689" on="1"/>
        <pt x="254" y="689" on="0"/>
        <pt x="124" y="533" on="0"/>
        <pt x="124" y="369" on="1"/>
        <pt x="124" y="51" on="0"/>
        <pt x="380" y="51" on="1"/>
        <pt x="396" y="51" on="0"/>
        <pt x="439" y="54" on="0"/>
        <pt x="485" y="60" on="0"/>
        <pt x="529" y="67" on="0"/>
        <pt x="544" y="71" on="1"/>
        <pt x="544" y="13" on="1"/>
        <pt x="512" y="5" on="0"/>
        <pt x="427" y="-7" on="0"/>
        <pt x="391" y="-9" on="1"/>
        <pt x="410" y="-43" on="0"/>
        <pt x="424" y="-86" on="0"/>
        <pt x="424" y="-107" on="1"/>
        <pt x="424" y="-161" on="0"/>
        <pt x="363" y="-220" on="0"/>
      </contour>
    </TTGlyph>
    <TTGlyph name="Ccedilla.sc" xMin="54" yMin="-172" xMax="483" yMax="585">
      <contour>
        <pt x="275" y="-172" on="1"/>
        <pt x="260" y="-172" on="0"/>
        <pt x="221" y="-167" on="0"/>
        <pt x="201" y="-162" on="1"/>
        <pt x="201" y="-118" on="1"/>
        <pt x="215" y="-122" on="0"/>
        <pt x="244" y="-126" on="0"/>
        <pt x="261" y="-126" on="1"/>
        <pt x="298" y="-126" on="0"/>
        <pt x="327" y="-101" on="0"/>
        <pt x="327" y="-73" on="1"/>
        <pt x="327" y="-60" on="0"/>
        <pt x="316" y="-31" on="0"/>
        <pt x="301" y="-6" on="1"/>
        <pt x="54" y="11" on="0"/>
        <pt x="54" y="287" on="1"/>
        <pt x="54" y="585" on="0"/>
        <pt x="339" y="585" on="1"/>
        <pt x="368" y="585" on="0"/>
        <pt x="445" y="578" on="0"/>
        <pt x="483" y="571" on="1"/>
        <pt x="483" y="514" on="1"/>
        <pt x="441" y="521" on="0"/>
        <pt x="372" y="528" on="0"/>
        <pt x="345" y="528" on="1"/>
        <pt x="231" y="528" on="0"/>
        <pt x="122" y="412" on="0"/>
        <pt x="122" y="288" on="1"/>
        <pt x="122" y="166" on="0"/>
        <pt x="228" y="50" on="0"/>
        <pt x="339" y="50" on="1"/>
        <pt x="353" y="50" on="0"/>
        <pt x="391" y="53" on="0"/>
        <pt x="432" y="57" on="0"/>
        <pt x="469" y="62" on="0"/>
        <pt x="483" y="65" on="1"/>
        <pt x="483" y="10" on="1"/>
        <pt x="456" y="3" on="0"/>
        <pt x="382" y="-6" on="0"/>
        <pt x="352" y="-7" on="1"/>
        <pt x="366" y="-33" on="0"/>
        <pt x="378" y="-66" on="0"/>
        <pt x="378" y="-82" on="1"/>
        <pt x="378" y="-126" on="0"/>
        <pt x="325" y="-172" on="0"/>
      </contour>
    </TTGlyph>
    <TTGlyph name="Ccircumflex" xMin="54" yMin="-9" xMax="544" yMax="947">
      <contour>
        <pt x="380" y="-9" on="1"/>
        <pt x="54" y="-7" on="0"/>
        <pt x="54" y="368" on="1"/>
        <pt x="54" y="750" on="0"/>
        <pt x="382" y="750" on="1"/>
        <pt x="415" y="750" on="0"/>
        <pt x="503" y="740" on="0"/>
        <pt x="544" y="732" on="1"/>
        <pt x="544" y="672" on="1"/>
        <pt x="499" y="680" on="0"/>
        <pt x="419" y="689" on="0"/>
        <pt x="388" y="689" on="1"/>
        <pt x="254" y="689" on="0"/>
        <pt x="124" y="533" on="0"/>
        <pt x="124" y="369" on="1"/>
        <pt x="124" y="51" on="0"/>
        <pt x="380" y="51" on="1"/>
        <pt x="396" y="51" on="0"/>
        <pt x="439" y="54" on="0"/>
        <pt x="485" y="60" on="0"/>
        <pt x="529" y="67" on="0"/>
        <pt x="544" y="71" on="1"/>
        <pt x="544" y="13" on="1"/>
        <pt x="527" y="8" on="0"/>
        <pt x="485" y="0" on="0"/>
        <pt x="441" y="-6" on="0"/>
        <pt x="398" y="-9" on="0"/>
      </contour>
      <contour>
        <pt x="189" y="874" on="1"/>
        <pt x="346" y="947" on="1"/>
        <pt x="503" y="874" on="1"/>
        <pt x="503" y="814" on="1"/>
        <pt x="346" y="888" on="1"/>
        <pt x="189" y="814" on="1"/>
      </contour>
    </TTGlyph>
    <TTGlyph name="Ccircumflex.sc" xMin="54" yMin="-7" xMax="483" yMax="744">
      <contour>
        <pt x="338" y="-7" on="1"/>
        <pt x="54" y="-7" on="0"/>
        <pt x="54" y="287" on="1"/>
        <pt x="54" y="585" on="0"/>
        <pt x="339" y="585" on="1"/>
        <pt x="368" y="585" on="0"/>
        <pt x="445" y="578" on="0"/>
        <pt x="483" y="571" on="1"/>
        <pt x="483" y="514" on="1"/>
        <pt x="441" y="521" on="0"/>
        <pt x="372" y="528" on="0"/>
        <pt x="345" y="528" on="1"/>
        <pt x="231" y="528" on="0"/>
        <pt x="122" y="412" on="0"/>
        <pt x="122" y="288" on="1"/>
        <pt x="122" y="166" on="0"/>
        <pt x="228" y="50" on="0"/>
        <pt x="339" y="50" on="1"/>
        <pt x="352" y="50" on="0"/>
        <pt x="391" y="53" on="0"/>
        <pt x="431" y="57" on="0"/>
        <pt x="469" y="62" on="0"/>
        <pt x="483" y="65" on="1"/>
        <pt x="483" y="10" on="1"/>
        <pt x="468" y="7" on="0"/>
        <pt x="431" y="0" on="0"/>
        <pt x="392" y="-4" on="0"/>
        <pt x="354" y="-7" on="0"/>
      </contour>
      <contour>
        <pt x="169" y="686" on="1"/>
        <pt x="308" y="744" on="1"/>
        <pt x="448" y="686" on="1"/>
        <pt x="448" y="634" on="1"/>
        <pt x="308" y="691" on="1"/>
        <pt x="169" y="634" on="1"/>
      </contour>
    </TTGlyph>
    <TTGlyph name="Cdotaccent" xMin="54" yMin="-9" xMax="544" yMax="909">
      <contour>
        <pt x="350" y="816" on="1"/>
        <pt x="303" y="816" on="0"/>
        <pt x="303" y="862" on="1"/>
        <pt x="303" y="909" on="0"/>
        <pt x="350" y="909" on="1"/>
        <pt x="372" y="909" on="0"/>
        <pt x="398" y="887" on="0"/>
        <pt x="398" y="862" on="1"/>
        <pt x="398" y="838" on="0"/>
        <pt x="372" y="816" on="0"/>
      </contour>
      <contour>
        <pt x="380" y="-9" on="1"/>
        <pt x="54" y="-7" on="0"/>
        <pt x="54" y="368" on="1"/>
        <pt x="54" y="750" on="0"/>
        <pt x="382" y="750" on="1"/>
        <pt x="415" y="750" on="0"/>
        <pt x="503" y="740" on="0"/>
        <pt x="544" y="732" on="1"/>
        <pt x="544" y="672" on="1"/>
        <pt x="499" y="680" on="0"/>
        <pt x="419" y="689" on="0"/>
        <pt x="388" y="689" on="1"/>
        <pt x="254" y="689" on="0"/>
        <pt x="124" y="533" on="0"/>
        <pt x="124" y="369" on="1"/>
        <pt x="124" y="51" on="0"/>
        <pt x="380" y="51" on="1"/>
        <pt x="396" y="51" on="0"/>
        <pt x="439" y="54" on="0"/>
        <pt x="485" y="60" on="0"/>
        <pt x="529" y="67" on="0"/>
        <pt x="544" y="71" on="1"/>
        <pt x="544" y="13" on="1"/>
        <pt x="527" y="8" on="0"/>
        <pt x="485" y="0" on="0"/>
        <pt x="441" y="-6" on="0"/>
        <pt x="398" y="-9" on="0"/>
      </contour>
    </TTGlyph>
    <TTGlyph name="Cdotaccent.sc" xMin="54" yMin="-7" xMax="483" yMax="720">
      <contour>
        <pt x="338" y="-7" on="1"/>
        <pt x="54" y="-7" on="0"/>
        <pt x="54" y="287" on="1"/>
        <pt x="54" y="585" on="0"/>
        <pt x="339" y="585" on="1"/>
        <pt x="368" y="585" on="0"/>
        <pt x="445" y="578" on="0"/>
        <pt x="483" y="571" on="1"/>
        <pt x="483" y="514" on="1"/>
        <pt x="441" y="521" on="0"/>
        <pt x="372" y="528" on="0"/>
        <pt x="345" y="528" on="1"/>
        <pt x="231" y="528" on="0"/>
        <pt x="122" y="412" on="0"/>
        <pt x="122" y="288" on="1"/>
        <pt x="122" y="166" on="0"/>
        <pt x="228" y="50" on="0"/>
        <pt x="339" y="50" on="1"/>
        <pt x="352" y="50" on="0"/>
        <pt x="391" y="53" on="0"/>
        <pt x="431" y="57" on="0"/>
        <pt x="469" y="62" on="0"/>
        <pt x="483" y="65" on="1"/>
        <pt x="483" y="10" on="1"/>
        <pt x="468" y="7" on="0"/>
        <pt x="431" y="0" on="0"/>
        <pt x="392" y="-4" on="0"/>
        <pt x="354" y="-7" on="0"/>
      </contour>
      <contour>
        <pt x="313" y="636" on="1"/>
        <pt x="291" y="636" on="0"/>
        <pt x="269" y="655" on="0"/>
        <pt x="269" y="678" on="1"/>
        <pt x="269" y="720" on="0"/>
        <pt x="313" y="720" on="1"/>
        <pt x="333" y="720" on="0"/>
        <pt x="357" y="700" on="0"/>
        <pt x="357" y="678" on="1"/>
        <pt x="357" y="656" on="0"/>
        <pt x="333" y="636" on="0"/>
      </contour>
    </TTGlyph>
    <TTGlyph name="D" xMin="93" yMin="-11" xMax="663" yMax="749">
      <contour>
        <pt x="273" y="-11" on="1"/>
        <pt x="216" y="-11" on="0"/>
        <pt x="118" y="-4" on="0"/>
        <pt x="93" y="4" on="1"/>
        <pt x="93" y="738" on="1"/>
        <pt x="115" y="740" on="0"/>
        <pt x="169" y="744" on="0"/>
        <pt x="222" y="747" on="0"/>
        <pt x="272" y="749" on="0"/>
        <pt x="290" y="749" on="1"/>
        <pt x="483" y="749" on="0"/>
        <pt x="663" y="566" on="0"/>
        <pt x="663" y="370" on="1"/>
        <pt x="663" y="173" on="0"/>
        <pt x="476" y="-11" on="0"/>
      </contour>
      <contour>
        <pt x="290" y="48" on="1"/>
        <pt x="447" y="48" on="0"/>
        <pt x="594" y="203" on="0"/>
        <pt x="594" y="370" on="1"/>
        <pt x="594" y="536" on="0"/>
        <pt x="450" y="689" on="0"/>
        <pt x="295" y="689" on="1"/>
        <pt x="267" y="689" on="0"/>
        <pt x="191" y="685" on="0"/>
        <pt x="161" y="681" on="1"/>
        <pt x="161" y="58" on="1"/>
        <pt x="180" y="55" on="0"/>
        <pt x="212" y="51" on="0"/>
        <pt x="242" y="49" on="0"/>
        <pt x="273" y="48" on="0"/>
      </contour>
    </TTGlyph>
    <TTGlyph name="D.sc" xMin="87" yMin="-8" xMax="590" yMax="584">
      <contour>
        <pt x="255" y="-8" on="1"/>
        <pt x="202" y="-8" on="0"/>
        <pt x="111" y="-2" on="0"/>
        <pt x="87" y="4" on="1"/>
        <pt x="87" y="576" on="1"/>
        <pt x="107" y="578" on="0"/>
        <pt x="154" y="581" on="0"/>
        <pt x="202" y="583" on="0"/>
        <pt x="246" y="584" on="0"/>
        <pt x="262" y="584" on="1"/>
        <pt x="431" y="584" on="0"/>
        <pt x="590" y="441" on="0"/>
        <pt x="590" y="288" on="1"/>
        <pt x="590" y="135" on="0"/>
        <pt x="428" y="-8" on="0"/>
      </contour>
      <contour>
        <pt x="266" y="47" on="1"/>
        <pt x="399" y="47" on="0"/>
        <pt x="523" y="163" on="0"/>
        <pt x="523" y="288" on="1"/>
        <pt x="523" y="414" on="0"/>
        <pt x="401" y="528" on="0"/>
        <pt x="268" y="528" on="1"/>
        <pt x="245" y="528" on="0"/>
        <pt x="179" y="524" on="0"/>
        <pt x="153" y="522" on="1"/>
        <pt x="153" y="55" on="1"/>
        <pt x="186" y="50" on="0"/>
        <pt x="235" y="47" on="0"/>
      </contour>
    </TTGlyph>
    <TTGlyph name="Dcaron" xMin="93" yMin="-11" xMax="663" yMax="943">
      <contour>
        <pt x="173" y="943" on="1"/>
        <pt x="330" y="870" on="1"/>
        <pt x="487" y="943" on="1"/>
        <pt x="487" y="884" on="1"/>
        <pt x="330" y="810" on="1"/>
        <pt x="173" y="884" on="1"/>
      </contour>
      <contour>
        <pt x="273" y="-11" on="1"/>
        <pt x="216" y="-11" on="0"/>
        <pt x="118" y="-4" on="0"/>
        <pt x="93" y="4" on="1"/>
        <pt x="93" y="738" on="1"/>
        <pt x="115" y="740" on="0"/>
        <pt x="169" y="744" on="0"/>
        <pt x="222" y="747" on="0"/>
        <pt x="272" y="749" on="0"/>
        <pt x="290" y="749" on="1"/>
        <pt x="483" y="749" on="0"/>
        <pt x="663" y="566" on="0"/>
        <pt x="663" y="370" on="1"/>
        <pt x="663" y="173" on="0"/>
        <pt x="476" y="-11" on="0"/>
      </contour>
      <contour>
        <pt x="290" y="48" on="1"/>
        <pt x="447" y="48" on="0"/>
        <pt x="594" y="203" on="0"/>
        <pt x="594" y="370" on="1"/>
        <pt x="594" y="536" on="0"/>
        <pt x="450" y="689" on="0"/>
        <pt x="295" y="689" on="1"/>
        <pt x="267" y="689" on="0"/>
        <pt x="191" y="685" on="0"/>
        <pt x="161" y="681" on="1"/>
        <pt x="161" y="58" on="1"/>
        <pt x="180" y="55" on="0"/>
        <pt x="212" y="51" on="0"/>
        <pt x="242" y="49" on="0"/>
        <pt x="273" y="48" on="0"/>
      </contour>
    </TTGlyph>
    <TTGlyph name="Dcaron.sc" xMin="87" yMin="-8" xMax="590" yMax="742">
      <contour>
        <pt x="255" y="-8" on="1"/>
        <pt x="202" y="-8" on="0"/>
        <pt x="111" y="-2" on="0"/>
        <pt x="87" y="4" on="1"/>
        <pt x="87" y="576" on="1"/>
        <pt x="107" y="578" on="0"/>
        <pt x="154" y="581" on="0"/>
        <pt x="202" y="583" on="0"/>
        <pt x="246" y="584" on="0"/>
        <pt x="262" y="584" on="1"/>
        <pt x="431" y="584" on="0"/>
        <pt x="590" y="441" on="0"/>
        <pt x="590" y="288" on="1"/>
        <pt x="590" y="135" on="0"/>
        <pt x="428" y="-8" on="0"/>
      </contour>
      <contour>
        <pt x="266" y="47" on="1"/>
        <pt x="399" y="47" on="0"/>
        <pt x="523" y="163" on="0"/>
        <pt x="523" y="288" on="1"/>
        <pt x="523" y="414" on="0"/>
        <pt x="401" y="528" on="0"/>
        <pt x="268" y="528" on="1"/>
        <pt x="245" y="528" on="0"/>
        <pt x="179" y="524" on="0"/>
        <pt x="153" y="522" on="1"/>
        <pt x="153" y="55" on="1"/>
        <pt x="186" y="50" on="0"/>
        <pt x="235" y="47" on="0"/>
      </contour>
      <contour>
        <pt x="159" y="689" on="1"/>
        <pt x="159" y="742" on="1"/>
        <pt x="299" y="685" on="1"/>
        <pt x="438" y="742" on="1"/>
        <pt x="438" y="689" on="1"/>
        <pt x="298" y="632" on="1"/>
      </contour>
    </TTGlyph>
    <TTGlyph name="Dcroat" xMin="5" yMin="-11" xMax="672" yMax="749">
      <contour>
        <pt x="5" y="398" on="1"/>
        <pt x="102" y="398" on="1"/>
        <pt x="102" y="738" on="1"/>
        <pt x="124" y="740" on="0"/>
        <pt x="178" y="744" on="0"/>
        <pt x="231" y="747" on="0"/>
        <pt x="281" y="749" on="0"/>
        <pt x="299" y="749" on="1"/>
        <pt x="492" y="749" on="0"/>
        <pt x="672" y="566" on="0"/>
        <pt x="672" y="370" on="1"/>
        <pt x="672" y="173" on="0"/>
        <pt x="485" y="-11" on="0"/>
        <pt x="282" y="-11" on="1"/>
        <pt x="225" y="-11" on="0"/>
        <pt x="127" y="-4" on="0"/>
        <pt x="102" y="4" on="1"/>
        <pt x="102" y="340" on="1"/>
        <pt x="5" y="340" on="1"/>
      </contour>
      <contour>
        <pt x="299" y="48" on="1"/>
        <pt x="456" y="48" on="0"/>
        <pt x="603" y="203" on="0"/>
        <pt x="603" y="370" on="1"/>
        <pt x="603" y="536" on="0"/>
        <pt x="459" y="689" on="0"/>
        <pt x="304" y="689" on="1"/>
        <pt x="276" y="689" on="0"/>
        <pt x="200" y="685" on="0"/>
        <pt x="170" y="681" on="1"/>
        <pt x="170" y="398" on="1"/>
        <pt x="365" y="398" on="1"/>
        <pt x="365" y="340" on="1"/>
        <pt x="170" y="340" on="1"/>
        <pt x="170" y="58" on="1"/>
        <pt x="189" y="55" on="0"/>
        <pt x="221" y="51" on="0"/>
        <pt x="251" y="49" on="0"/>
        <pt x="282" y="48" on="0"/>
      </contour>
    </TTGlyph>
    <TTGlyph name="Dcroat.sc" xMin="13" yMin="-8" xMax="599" yMax="584">
      <contour>
        <pt x="13" y="315" on="1"/>
        <pt x="97" y="315" on="1"/>
        <pt x="97" y="576" on="1"/>
        <pt x="117" y="578" on="0"/>
        <pt x="165" y="581" on="0"/>
        <pt x="212" y="583" on="0"/>
        <pt x="256" y="584" on="0"/>
        <pt x="272" y="584" on="1"/>
        <pt x="441" y="584" on="0"/>
        <pt x="599" y="441" on="0"/>
        <pt x="599" y="288" on="1"/>
        <pt x="599" y="211" on="0"/>
        <pt x="559" y="99" on="0"/>
        <pt x="476" y="27" on="0"/>
        <pt x="347" y="-8" on="0"/>
        <pt x="257" y="-8" on="1"/>
        <pt x="206" y="-8" on="0"/>
        <pt x="119" y="-2" on="0"/>
        <pt x="97" y="4" on="1"/>
        <pt x="97" y="261" on="1"/>
        <pt x="13" y="261" on="1"/>
      </contour>
      <contour>
        <pt x="276" y="47" on="1"/>
        <pt x="409" y="47" on="0"/>
        <pt x="532" y="163" on="0"/>
        <pt x="532" y="288" on="1"/>
        <pt x="532" y="414" on="0"/>
        <pt x="411" y="528" on="0"/>
        <pt x="278" y="528" on="1"/>
        <pt x="255" y="528" on="0"/>
        <pt x="189" y="524" on="0"/>
        <pt x="163" y="522" on="1"/>
        <pt x="163" y="315" on="1"/>
        <pt x="328" y="315" on="1"/>
        <pt x="328" y="261" on="1"/>
        <pt x="163" y="261" on="1"/>
        <pt x="163" y="55" on="1"/>
        <pt x="196" y="50" on="0"/>
        <pt x="245" y="47" on="0"/>
      </contour>
    </TTGlyph>
    <TTGlyph name="Ddotbelow" xMin="93" yMin="-177" xMax="663" yMax="749">
      <contour>
        <pt x="339" y="-177" on="1"/>
        <pt x="317" y="-177" on="0"/>
        <pt x="294" y="-156" on="0"/>
        <pt x="294" y="-132" on="1"/>
        <pt x="294" y="-107" on="0"/>
        <pt x="317" y="-86" on="0"/>
        <pt x="339" y="-86" on="1"/>
        <pt x="361" y="-86" on="0"/>
        <pt x="385" y="-107" on="0"/>
        <pt x="385" y="-132" on="1"/>
        <pt x="385" y="-156" on="0"/>
        <pt x="361" y="-177" on="0"/>
      </contour>
      <contour>
        <pt x="273" y="-11" on="1"/>
        <pt x="216" y="-11" on="0"/>
        <pt x="118" y="-4" on="0"/>
        <pt x="93" y="4" on="1"/>
        <pt x="93" y="738" on="1"/>
        <pt x="115" y="740" on="0"/>
        <pt x="169" y="744" on="0"/>
        <pt x="222" y="747" on="0"/>
        <pt x="272" y="749" on="0"/>
        <pt x="290" y="749" on="1"/>
        <pt x="483" y="749" on="0"/>
        <pt x="663" y="566" on="0"/>
        <pt x="663" y="370" on="1"/>
        <pt x="663" y="173" on="0"/>
        <pt x="476" y="-11" on="0"/>
      </contour>
      <contour>
        <pt x="290" y="48" on="1"/>
        <pt x="447" y="48" on="0"/>
        <pt x="594" y="203" on="0"/>
        <pt x="594" y="370" on="1"/>
        <pt x="594" y="536" on="0"/>
        <pt x="450" y="689" on="0"/>
        <pt x="295" y="689" on="1"/>
        <pt x="267" y="689" on="0"/>
        <pt x="191" y="685" on="0"/>
        <pt x="161" y="681" on="1"/>
        <pt x="161" y="58" on="1"/>
        <pt x="180" y="55" on="0"/>
        <pt x="212" y="51" on="0"/>
        <pt x="242" y="49" on="0"/>
        <pt x="273" y="48" on="0"/>
      </contour>
    </TTGlyph>
    <TTGlyph name="Ddotbelow.sc" xMin="87" yMin="-142" xMax="590" yMax="584">
      <contour>
        <pt x="255" y="-8" on="1"/>
        <pt x="202" y="-8" on="0"/>
        <pt x="111" y="-2" on="0"/>
        <pt x="87" y="4" on="1"/>
        <pt x="87" y="576" on="1"/>
        <pt x="107" y="578" on="0"/>
        <pt x="154" y="581" on="0"/>
        <pt x="202" y="583" on="0"/>
        <pt x="246" y="584" on="0"/>
        <pt x="262" y="584" on="1"/>
        <pt x="431" y="584" on="0"/>
        <pt x="590" y="441" on="0"/>
        <pt x="590" y="288" on="1"/>
        <pt x="590" y="135" on="0"/>
        <pt x="428" y="-8" on="0"/>
      </contour>
      <contour>
        <pt x="266" y="47" on="1"/>
        <pt x="399" y="47" on="0"/>
        <pt x="523" y="163" on="0"/>
        <pt x="523" y="288" on="1"/>
        <pt x="523" y="414" on="0"/>
        <pt x="401" y="528" on="0"/>
        <pt x="268" y="528" on="1"/>
        <pt x="245" y="528" on="0"/>
        <pt x="179" y="524" on="0"/>
        <pt x="153" y="522" on="1"/>
        <pt x="153" y="55" on="1"/>
        <pt x="186" y="50" on="0"/>
        <pt x="235" y="47" on="0"/>
      </contour>
      <contour>
        <pt x="306" y="-142" on="1"/>
        <pt x="265" y="-142" on="0"/>
        <pt x="265" y="-103" on="1"/>
        <pt x="265" y="-64" on="0"/>
        <pt x="306" y="-64" on="1"/>
        <pt x="326" y="-64" on="0"/>
        <pt x="348" y="-83" on="0"/>
        <pt x="348" y="-103" on="1"/>
        <pt x="348" y="-124" on="0"/>
        <pt x="326" y="-142" on="0"/>
      </contour>
    </TTGlyph>
    <TTGlyph name="Delta" xMin="25" yMin="0" xMax="699" yMax="740">
      <contour>
        <pt x="320" y="740" on="1"/>
        <pt x="404" y="740" on="1"/>
        <pt x="699" y="0" on="1"/>
        <pt x="25" y="0" on="1"/>
      </contour>
      <contour>
        <pt x="610" y="58" on="1"/>
        <pt x="362" y="679" on="1"/>
        <pt x="113" y="58" on="1"/>
      </contour>
    </TTGlyph>
    <TTGlyph name="E" xMin="93" yMin="0" xMax="554" yMax="740">
      <contour>
        <pt x="93" y="740" on="1"/>
        <pt x="546" y="740" on="1"/>
        <pt x="546" y="681" on="1"/>
        <pt x="161" y="681" on="1"/>
        <pt x="161" y="405" on="1"/>
        <pt x="522" y="405" on="1"/>
        <pt x="522" y="347" on="1"/>
        <pt x="161" y="347" on="1"/>
        <pt x="161" y="59" on="1"/>
        <pt x="554" y="59" on="1"/>
        <pt x="554" y="0" on="1"/>
        <pt x="93" y="0" on="1"/>
      </contour>
    </TTGlyph>
    <TTGlyph name="E.sc" xMin="88" yMin="0" xMax="495" yMax="577">
      <contour>
        <pt x="88" y="577" on="1"/>
        <pt x="488" y="577" on="1"/>
        <pt x="488" y="523" on="1"/>
        <pt x="154" y="523" on="1"/>
        <pt x="154" y="319" on="1"/>
        <pt x="466" y="319" on="1"/>
        <pt x="466" y="268" on="1"/>
        <pt x="154" y="268" on="1"/>
        <pt x="154" y="54" on="1"/>
        <pt x="495" y="54" on="1"/>
        <pt x="495" y="0" on="1"/>
        <pt x="88" y="0" on="1"/>
      </contour>
    </TTGlyph>
    <TTGlyph name="Eacute" xMin="93" yMin="0" xMax="554" yMax="939">
      <contour>
        <pt x="287" y="806" on="1"/>
        <pt x="363" y="939" on="1"/>
        <pt x="434" y="939" on="1"/>
        <pt x="341" y="800" on="1"/>
      </contour>
      <contour>
        <pt x="93" y="740" on="1"/>
        <pt x="546" y="740" on="1"/>
        <pt x="546" y="681" on="1"/>
        <pt x="161" y="681" on="1"/>
        <pt x="161" y="405" on="1"/>
        <pt x="522" y="405" on="1"/>
        <pt x="522" y="347" on="1"/>
        <pt x="161" y="347" on="1"/>
        <pt x="161" y="59" on="1"/>
        <pt x="554" y="59" on="1"/>
        <pt x="554" y="0" on="1"/>
        <pt x="93" y="0" on="1"/>
      </contour>
    </TTGlyph>
    <TTGlyph name="Eacute.sc" xMin="88" yMin="0" xMax="495" yMax="738">
      <contour>
        <pt x="88" y="577" on="1"/>
        <pt x="488" y="577" on="1"/>
        <pt x="488" y="523" on="1"/>
        <pt x="154" y="523" on="1"/>
        <pt x="154" y="319" on="1"/>
        <pt x="466" y="319" on="1"/>
        <pt x="466" y="268" on="1"/>
        <pt x="154" y="268" on="1"/>
        <pt x="154" y="54" on="1"/>
        <pt x="495" y="54" on="1"/>
        <pt x="495" y="0" on="1"/>
        <pt x="88" y="0" on="1"/>
      </contour>
      <contour>
        <pt x="257" y="630" on="1"/>
        <pt x="322" y="738" on="1"/>
        <pt x="390" y="738" on="1"/>
        <pt x="309" y="625" on="1"/>
      </contour>
    </TTGlyph>
    <TTGlyph name="Ebreve" xMin="93" yMin="0" xMax="554" yMax="957">
      <contour>
        <pt x="320" y="814" on="1"/>
        <pt x="235" y="814" on="0"/>
        <pt x="148" y="891" on="0"/>
        <pt x="148" y="957" on="1"/>
        <pt x="201" y="957" on="1"/>
        <pt x="201" y="911" on="0"/>
        <pt x="262" y="860" on="0"/>
        <pt x="320" y="860" on="1"/>
        <pt x="377" y="860" on="0"/>
        <pt x="438" y="911" on="0"/>
        <pt x="438" y="957" on="1"/>
        <pt x="492" y="957" on="1"/>
        <pt x="492" y="891" on="0"/>
        <pt x="405" y="814" on="0"/>
      </contour>
      <contour>
        <pt x="93" y="740" on="1"/>
        <pt x="546" y="740" on="1"/>
        <pt x="546" y="681" on="1"/>
        <pt x="161" y="681" on="1"/>
        <pt x="161" y="405" on="1"/>
        <pt x="522" y="405" on="1"/>
        <pt x="522" y="347" on="1"/>
        <pt x="161" y="347" on="1"/>
        <pt x="161" y="59" on="1"/>
        <pt x="554" y="59" on="1"/>
        <pt x="554" y="0" on="1"/>
        <pt x="93" y="0" on="1"/>
      </contour>
    </TTGlyph>
    <TTGlyph name="Ebreve.sc" xMin="88" yMin="0" xMax="495" yMax="750">
      <contour>
        <pt x="288" y="634" on="1"/>
        <pt x="212" y="634" on="0"/>
        <pt x="136" y="698" on="0"/>
        <pt x="136" y="750" on="1"/>
        <pt x="186" y="750" on="1"/>
        <pt x="186" y="714" on="0"/>
        <pt x="237" y="675" on="0"/>
        <pt x="288" y="675" on="1"/>
        <pt x="338" y="675" on="0"/>
        <pt x="390" y="714" on="0"/>
        <pt x="390" y="750" on="1"/>
        <pt x="440" y="750" on="1"/>
        <pt x="440" y="697" on="0"/>
        <pt x="363" y="634" on="0"/>
      </contour>
      <contour>
        <pt x="88" y="577" on="1"/>
        <pt x="488" y="577" on="1"/>
        <pt x="488" y="523" on="1"/>
        <pt x="154" y="523" on="1"/>
        <pt x="154" y="319" on="1"/>
        <pt x="466" y="319" on="1"/>
        <pt x="466" y="268" on="1"/>
        <pt x="154" y="268" on="1"/>
        <pt x="154" y="54" on="1"/>
        <pt x="495" y="54" on="1"/>
        <pt x="495" y="0" on="1"/>
        <pt x="88" y="0" on="1"/>
      </contour>
    </TTGlyph>
    <TTGlyph name="Ecaron" xMin="93" yMin="0" xMax="554" yMax="943">
      <contour>
        <pt x="165" y="943" on="1"/>
        <pt x="322" y="870" on="1"/>
        <pt x="479" y="943" on="1"/>
        <pt x="479" y="884" on="1"/>
        <pt x="322" y="810" on="1"/>
        <pt x="165" y="884" on="1"/>
      </contour>
      <contour>
        <pt x="93" y="740" on="1"/>
        <pt x="546" y="740" on="1"/>
        <pt x="546" y="681" on="1"/>
        <pt x="161" y="681" on="1"/>
        <pt x="161" y="405" on="1"/>
        <pt x="522" y="405" on="1"/>
        <pt x="522" y="347" on="1"/>
        <pt x="161" y="347" on="1"/>
        <pt x="161" y="59" on="1"/>
        <pt x="554" y="59" on="1"/>
        <pt x="554" y="0" on="1"/>
        <pt x="93" y="0" on="1"/>
      </contour>
    </TTGlyph>
    <TTGlyph name="Ecaron.sc" xMin="88" yMin="0" xMax="495" yMax="742">
      <contour>
        <pt x="88" y="577" on="1"/>
        <pt x="488" y="577" on="1"/>
        <pt x="488" y="523" on="1"/>
        <pt x="154" y="523" on="1"/>
        <pt x="154" y="319" on="1"/>
        <pt x="466" y="319" on="1"/>
        <pt x="466" y="268" on="1"/>
        <pt x="154" y="268" on="1"/>
        <pt x="154" y="54" on="1"/>
        <pt x="495" y="54" on="1"/>
        <pt x="495" y="0" on="1"/>
        <pt x="88" y="0" on="1"/>
      </contour>
      <contour>
        <pt x="151" y="689" on="1"/>
        <pt x="151" y="742" on="1"/>
        <pt x="290" y="685" on="1"/>
        <pt x="429" y="742" on="1"/>
        <pt x="429" y="689" on="1"/>
        <pt x="290" y="632" on="1"/>
      </contour>
    </TTGlyph>
    <TTGlyph name="Ecircumflex" xMin="93" yMin="0" xMax="554" yMax="947">
      <contour>
        <pt x="93" y="740" on="1"/>
        <pt x="546" y="740" on="1"/>
        <pt x="546" y="681" on="1"/>
        <pt x="161" y="681" on="1"/>
        <pt x="161" y="405" on="1"/>
        <pt x="522" y="405" on="1"/>
        <pt x="522" y="347" on="1"/>
        <pt x="161" y="347" on="1"/>
        <pt x="161" y="59" on="1"/>
        <pt x="554" y="59" on="1"/>
        <pt x="554" y="0" on="1"/>
        <pt x="93" y="0" on="1"/>
      </contour>
      <contour>
        <pt x="167" y="874" on="1"/>
        <pt x="324" y="947" on="1"/>
        <pt x="481" y="874" on="1"/>
        <pt x="481" y="814" on="1"/>
        <pt x="324" y="888" on="1"/>
        <pt x="167" y="814" on="1"/>
      </contour>
    </TTGlyph>
    <TTGlyph name="Ecircumflex.sc" xMin="88" yMin="0" xMax="495" yMax="744">
      <contour>
        <pt x="88" y="577" on="1"/>
        <pt x="488" y="577" on="1"/>
        <pt x="488" y="523" on="1"/>
        <pt x="154" y="523" on="1"/>
        <pt x="154" y="319" on="1"/>
        <pt x="466" y="319" on="1"/>
        <pt x="466" y="268" on="1"/>
        <pt x="154" y="268" on="1"/>
        <pt x="154" y="54" on="1"/>
        <pt x="495" y="54" on="1"/>
        <pt x="495" y="0" on="1"/>
        <pt x="88" y="0" on="1"/>
      </contour>
      <contour>
        <pt x="153" y="686" on="1"/>
        <pt x="292" y="744" on="1"/>
        <pt x="432" y="686" on="1"/>
        <pt x="432" y="634" on="1"/>
        <pt x="292" y="691" on="1"/>
        <pt x="153" y="634" on="1"/>
      </contour>
    </TTGlyph>
    <TTGlyph name="Edblgrave" xMin="93" yMin="0" xMax="554" yMax="932">
      <contour>
        <pt x="93" y="740" on="1"/>
        <pt x="546" y="740" on="1"/>
        <pt x="546" y="681" on="1"/>
        <pt x="161" y="681" on="1"/>
        <pt x="161" y="405" on="1"/>
        <pt x="522" y="405" on="1"/>
        <pt x="522" y="347" on="1"/>
        <pt x="161" y="347" on="1"/>
        <pt x="161" y="59" on="1"/>
        <pt x="554" y="59" on="1"/>
        <pt x="554" y="0" on="1"/>
        <pt x="93" y="0" on="1"/>
      </contour>
      <contour>
        <pt x="222" y="794" on="1"/>
        <pt x="129" y="932" on="1"/>
        <pt x="198" y="932" on="1"/>
        <pt x="274" y="807" on="1"/>
      </contour>
      <contour>
        <pt x="369" y="794" on="1"/>
        <pt x="276" y="932" on="1"/>
        <pt x="345" y="932" on="1"/>
        <pt x="421" y="807" on="1"/>
      </contour>
    </TTGlyph>
    <TTGlyph name="Edblgrave.sc" xMin="88" yMin="0" xMax="495" yMax="734">
      <contour>
        <pt x="88" y="577" on="1"/>
        <pt x="488" y="577" on="1"/>
        <pt x="488" y="523" on="1"/>
        <pt x="154" y="523" on="1"/>
        <pt x="154" y="319" on="1"/>
        <pt x="466" y="319" on="1"/>
        <pt x="466" y="268" on="1"/>
        <pt x="154" y="268" on="1"/>
        <pt x="154" y="54" on="1"/>
        <pt x="495" y="54" on="1"/>
        <pt x="495" y="0" on="1"/>
        <pt x="88" y="0" on="1"/>
      </contour>
      <contour>
        <pt x="118" y="734" on="1"/>
        <pt x="184" y="734" on="1"/>
        <pt x="249" y="630" on="1"/>
        <pt x="199" y="620" on="1"/>
      </contour>
      <contour>
        <pt x="249" y="734" on="1"/>
        <pt x="315" y="734" on="1"/>
        <pt x="380" y="630" on="1"/>
        <pt x="330" y="620" on="1"/>
      </contour>
    </TTGlyph>
    <TTGlyph name="Edieresis" xMin="93" yMin="0" xMax="554" yMax="916">
      <contour>
        <pt x="196" y="823" on="1"/>
        <pt x="149" y="823" on="0"/>
        <pt x="149" y="870" on="1"/>
        <pt x="149" y="916" on="0"/>
        <pt x="196" y="916" on="1"/>
        <pt x="218" y="916" on="0"/>
        <pt x="244" y="894" on="0"/>
        <pt x="244" y="870" on="1"/>
        <pt x="244" y="845" on="0"/>
        <pt x="218" y="823" on="0"/>
      </contour>
      <contour>
        <pt x="449" y="823" on="1"/>
        <pt x="402" y="823" on="0"/>
        <pt x="402" y="870" on="1"/>
        <pt x="402" y="916" on="0"/>
        <pt x="449" y="916" on="1"/>
        <pt x="471" y="916" on="0"/>
        <pt x="497" y="894" on="0"/>
        <pt x="497" y="870" on="1"/>
        <pt x="497" y="845" on="0"/>
        <pt x="471" y="823" on="0"/>
      </contour>
      <contour>
        <pt x="93" y="740" on="1"/>
        <pt x="546" y="740" on="1"/>
        <pt x="546" y="681" on="1"/>
        <pt x="161" y="681" on="1"/>
        <pt x="161" y="405" on="1"/>
        <pt x="522" y="405" on="1"/>
        <pt x="522" y="347" on="1"/>
        <pt x="161" y="347" on="1"/>
        <pt x="161" y="59" on="1"/>
        <pt x="554" y="59" on="1"/>
        <pt x="554" y="0" on="1"/>
        <pt x="93" y="0" on="1"/>
      </contour>
    </TTGlyph>
    <TTGlyph name="Edieresis.sc" xMin="88" yMin="0" xMax="495" yMax="724">
      <contour>
        <pt x="179" y="641" on="1"/>
        <pt x="135" y="641" on="0"/>
        <pt x="135" y="682" on="1"/>
        <pt x="135" y="724" on="0"/>
        <pt x="179" y="724" on="1"/>
        <pt x="200" y="724" on="0"/>
        <pt x="224" y="704" on="0"/>
        <pt x="224" y="682" on="1"/>
        <pt x="224" y="660" on="0"/>
        <pt x="200" y="641" on="0"/>
      </contour>
      <contour>
        <pt x="403" y="641" on="1"/>
        <pt x="359" y="641" on="0"/>
        <pt x="359" y="682" on="1"/>
        <pt x="359" y="724" on="0"/>
        <pt x="403" y="724" on="1"/>
        <pt x="423" y="724" on="0"/>
        <pt x="447" y="704" on="0"/>
        <pt x="447" y="682" on="1"/>
        <pt x="447" y="660" on="0"/>
        <pt x="423" y="641" on="0"/>
      </contour>
      <contour>
        <pt x="88" y="577" on="1"/>
        <pt x="488" y="577" on="1"/>
        <pt x="488" y="523" on="1"/>
        <pt x="154" y="523" on="1"/>
        <pt x="154" y="319" on="1"/>
        <pt x="466" y="319" on="1"/>
        <pt x="466" y="268" on="1"/>
        <pt x="154" y="268" on="1"/>
        <pt x="154" y="54" on="1"/>
        <pt x="495" y="54" on="1"/>
        <pt x="495" y="0" on="1"/>
        <pt x="88" y="0" on="1"/>
      </contour>
    </TTGlyph>
    <TTGlyph name="Edotaccent" xMin="93" yMin="0" xMax="554" yMax="909">
      <contour>
        <pt x="320" y="816" on="1"/>
        <pt x="273" y="816" on="0"/>
        <pt x="273" y="862" on="1"/>
        <pt x="273" y="909" on="0"/>
        <pt x="320" y="909" on="1"/>
        <pt x="342" y="909" on="0"/>
        <pt x="368" y="887" on="0"/>
        <pt x="368" y="862" on="1"/>
        <pt x="368" y="838" on="0"/>
        <pt x="342" y="816" on="0"/>
      </contour>
      <contour>
        <pt x="93" y="740" on="1"/>
        <pt x="546" y="740" on="1"/>
        <pt x="546" y="681" on="1"/>
        <pt x="161" y="681" on="1"/>
        <pt x="161" y="405" on="1"/>
        <pt x="522" y="405" on="1"/>
        <pt x="522" y="347" on="1"/>
        <pt x="161" y="347" on="1"/>
        <pt x="161" y="59" on="1"/>
        <pt x="554" y="59" on="1"/>
        <pt x="554" y="0" on="1"/>
        <pt x="93" y="0" on="1"/>
      </contour>
    </TTGlyph>
    <TTGlyph name="Edotaccent.sc" xMin="88" yMin="0" xMax="495" yMax="720">
      <contour>
        <pt x="288" y="636" on="1"/>
        <pt x="267" y="636" on="0"/>
        <pt x="244" y="655" on="0"/>
        <pt x="244" y="678" on="1"/>
        <pt x="244" y="720" on="0"/>
        <pt x="288" y="720" on="1"/>
        <pt x="308" y="720" on="0"/>
        <pt x="333" y="700" on="0"/>
        <pt x="333" y="678" on="1"/>
        <pt x="333" y="656" on="0"/>
        <pt x="308" y="636" on="0"/>
      </contour>
      <contour>
        <pt x="88" y="577" on="1"/>
        <pt x="488" y="577" on="1"/>
        <pt x="488" y="523" on="1"/>
        <pt x="154" y="523" on="1"/>
        <pt x="154" y="319" on="1"/>
        <pt x="466" y="319" on="1"/>
        <pt x="466" y="268" on="1"/>
        <pt x="154" y="268" on="1"/>
        <pt x="154" y="54" on="1"/>
        <pt x="495" y="54" on="1"/>
        <pt x="495" y="0" on="1"/>
        <pt x="88" y="0" on="1"/>
      </contour>
    </TTGlyph>
    <TTGlyph name="Edotbelow" xMin="93" yMin="-177" xMax="554" yMax="740">
      <contour>
        <pt x="93" y="740" on="1"/>
        <pt x="546" y="740" on="1"/>
        <pt x="546" y="681" on="1"/>
        <pt x="161" y="681" on="1"/>
        <pt x="161" y="405" on="1"/>
        <pt x="522" y="405" on="1"/>
        <pt x="522" y="347" on="1"/>
        <pt x="161" y="347" on="1"/>
        <pt x="161" y="59" on="1"/>
        <pt x="554" y="59" on="1"/>
        <pt x="554" y="0" on="1"/>
        <pt x="93" y="0" on="1"/>
      </contour>
      <contour>
        <pt x="339" y="-177" on="1"/>
        <pt x="317" y="-177" on="0"/>
        <pt x="294" y="-156" on="0"/>
        <pt x="294" y="-132" on="1"/>
        <pt x="294" y="-107" on="0"/>
        <pt x="317" y="-86" on="0"/>
        <pt x="339" y="-86" on="1"/>
        <pt x="361" y="-86" on="0"/>
        <pt x="385" y="-107" on="0"/>
        <pt x="385" y="-132" on="1"/>
        <pt x="385" y="-156" on="0"/>
        <pt x="361" y="-177" on="0"/>
      </contour>
    </TTGlyph>
    <TTGlyph name="Edotbelow.sc" xMin="88" yMin="-142" xMax="495" yMax="577">
      <contour>
        <pt x="305" y="-142" on="1"/>
        <pt x="263" y="-142" on="0"/>
        <pt x="263" y="-103" on="1"/>
        <pt x="263" y="-64" on="0"/>
        <pt x="305" y="-64" on="1"/>
        <pt x="325" y="-64" on="0"/>
        <pt x="347" y="-83" on="0"/>
        <pt x="347" y="-103" on="1"/>
        <pt x="347" y="-124" on="0"/>
        <pt x="325" y="-142" on="0"/>
      </contour>
      <contour>
        <pt x="88" y="577" on="1"/>
        <pt x="488" y="577" on="1"/>
        <pt x="488" y="523" on="1"/>
        <pt x="154" y="523" on="1"/>
        <pt x="154" y="319" on="1"/>
        <pt x="466" y="319" on="1"/>
        <pt x="466" y="268" on="1"/>
        <pt x="154" y="268" on="1"/>
        <pt x="154" y="54" on="1"/>
        <pt x="495" y="54" on="1"/>
        <pt x="495" y="0" on="1"/>
        <pt x="88" y="0" on="1"/>
      </contour>
    </TTGlyph>
    <TTGlyph name="Egrave" xMin="93" yMin="0" xMax="554" yMax="939">
      <contour>
        <pt x="301" y="800" on="1"/>
        <pt x="208" y="939" on="1"/>
        <pt x="279" y="939" on="1"/>
        <pt x="355" y="813" on="1"/>
      </contour>
      <contour>
        <pt x="93" y="740" on="1"/>
        <pt x="546" y="740" on="1"/>
        <pt x="546" y="681" on="1"/>
        <pt x="161" y="681" on="1"/>
        <pt x="161" y="405" on="1"/>
        <pt x="522" y="405" on="1"/>
        <pt x="522" y="347" on="1"/>
        <pt x="161" y="347" on="1"/>
        <pt x="161" y="59" on="1"/>
        <pt x="554" y="59" on="1"/>
        <pt x="554" y="0" on="1"/>
        <pt x="93" y="0" on="1"/>
      </contour>
    </TTGlyph>
    <TTGlyph name="Egrave.sc" xMin="88" yMin="0" xMax="495" yMax="738">
      <contour>
        <pt x="88" y="577" on="1"/>
        <pt x="488" y="577" on="1"/>
        <pt x="488" y="523" on="1"/>
        <pt x="154" y="523" on="1"/>
        <pt x="154" y="319" on="1"/>
        <pt x="466" y="319" on="1"/>
        <pt x="466" y="268" on="1"/>
        <pt x="154" y="268" on="1"/>
        <pt x="154" y="54" on="1"/>
        <pt x="495" y="54" on="1"/>
        <pt x="495" y="0" on="1"/>
        <pt x="88" y="0" on="1"/>
      </contour>
      <contour>
        <pt x="188" y="738" on="1"/>
        <pt x="257" y="738" on="1"/>
        <pt x="321" y="635" on="1"/>
        <pt x="270" y="625" on="1"/>
      </contour>
    </TTGlyph>
    <TTGlyph name="Einvertedbreve" xMin="93" yMin="0" xMax="554" yMax="961">
      <contour>
        <pt x="93" y="740" on="1"/>
        <pt x="546" y="740" on="1"/>
        <pt x="546" y="681" on="1"/>
        <pt x="161" y="681" on="1"/>
        <pt x="161" y="405" on="1"/>
        <pt x="522" y="405" on="1"/>
        <pt x="522" y="347" on="1"/>
        <pt x="161" y="347" on="1"/>
        <pt x="161" y="59" on="1"/>
        <pt x="554" y="59" on="1"/>
        <pt x="554" y="0" on="1"/>
        <pt x="93" y="0" on="1"/>
      </contour>
      <contour>
        <pt x="440" y="818" on="1"/>
        <pt x="440" y="864" on="0"/>
        <pt x="379" y="915" on="0"/>
        <pt x="321" y="915" on="1"/>
        <pt x="264" y="915" on="0"/>
        <pt x="202" y="864" on="0"/>
        <pt x="202" y="818" on="1"/>
        <pt x="149" y="818" on="1"/>
        <pt x="149" y="884" on="0"/>
        <pt x="236" y="961" on="0"/>
        <pt x="321" y="961" on="1"/>
        <pt x="406" y="961" on="0"/>
        <pt x="493" y="884" on="0"/>
        <pt x="493" y="818" on="1"/>
      </contour>
    </TTGlyph>
    <TTGlyph name="Einvertedbreve.sc" xMin="88" yMin="0" xMax="495" yMax="754">
      <contour>
        <pt x="137" y="638" on="1"/>
        <pt x="137" y="690" on="0"/>
        <pt x="213" y="754" on="0"/>
        <pt x="289" y="754" on="1"/>
        <pt x="364" y="754" on="0"/>
        <pt x="442" y="691" on="0"/>
        <pt x="442" y="638" on="1"/>
        <pt x="391" y="638" on="1"/>
        <pt x="391" y="673" on="0"/>
        <pt x="340" y="712" on="0"/>
        <pt x="289" y="712" on="1"/>
        <pt x="238" y="712" on="0"/>
        <pt x="187" y="673" on="0"/>
        <pt x="187" y="638" on="1"/>
      </contour>
      <contour>
        <pt x="88" y="577" on="1"/>
        <pt x="488" y="577" on="1"/>
        <pt x="488" y="523" on="1"/>
        <pt x="154" y="523" on="1"/>
        <pt x="154" y="319" on="1"/>
        <pt x="466" y="319" on="1"/>
        <pt x="466" y="268" on="1"/>
        <pt x="154" y="268" on="1"/>
        <pt x="154" y="54" on="1"/>
        <pt x="495" y="54" on="1"/>
        <pt x="495" y="0" on="1"/>
        <pt x="88" y="0" on="1"/>
      </contour>
    </TTGlyph>
    <TTGlyph name="Emacron" xMin="93" yMin="0" xMax="554" yMax="895">
      <contour>
        <pt x="169" y="895" on="1"/>
        <pt x="472" y="895" on="1"/>
        <pt x="472" y="842" on="1"/>
        <pt x="169" y="842" on="1"/>
      </contour>
      <contour>
        <pt x="93" y="740" on="1"/>
        <pt x="546" y="740" on="1"/>
        <pt x="546" y="681" on="1"/>
        <pt x="161" y="681" on="1"/>
        <pt x="161" y="405" on="1"/>
        <pt x="522" y="405" on="1"/>
        <pt x="522" y="347" on="1"/>
        <pt x="161" y="347" on="1"/>
        <pt x="161" y="59" on="1"/>
        <pt x="554" y="59" on="1"/>
        <pt x="554" y="0" on="1"/>
        <pt x="93" y="0" on="1"/>
      </contour>
    </TTGlyph>
    <TTGlyph name="Emacron.sc" xMin="88" yMin="0" xMax="495" yMax="705">
      <contour>
        <pt x="88" y="577" on="1"/>
        <pt x="488" y="577" on="1"/>
        <pt x="488" y="523" on="1"/>
        <pt x="154" y="523" on="1"/>
        <pt x="154" y="319" on="1"/>
        <pt x="466" y="319" on="1"/>
        <pt x="466" y="268" on="1"/>
        <pt x="154" y="268" on="1"/>
        <pt x="154" y="54" on="1"/>
        <pt x="495" y="54" on="1"/>
        <pt x="495" y="0" on="1"/>
        <pt x="88" y="0" on="1"/>
      </contour>
      <contour>
        <pt x="153" y="705" on="1"/>
        <pt x="424" y="705" on="1"/>
        <pt x="424" y="657" on="1"/>
        <pt x="153" y="657" on="1"/>
      </contour>
    </TTGlyph>
    <TTGlyph name="Eng" xMin="93" yMin="-187" xMax="679" yMax="740">
      <contour>
        <pt x="536" y="-173" on="1"/>
        <pt x="549" y="-150" on="0"/>
        <pt x="571" y="-99" on="0"/>
        <pt x="589" y="-49" on="0"/>
        <pt x="602" y="-2" on="0"/>
        <pt x="605" y="18" on="1"/>
        <pt x="219" y="548" on="1"/>
        <pt x="162" y="634" on="1"/>
        <pt x="156" y="633" on="1"/>
        <pt x="156" y="0" on="1"/>
        <pt x="93" y="0" on="1"/>
        <pt x="93" y="740" on="1"/>
        <pt x="152" y="740" on="1"/>
        <pt x="550" y="194" on="1"/>
        <pt x="610" y="105" on="1"/>
        <pt x="616" y="105" on="1"/>
        <pt x="616" y="740" on="1"/>
        <pt x="679" y="740" on="1"/>
        <pt x="679" y="78" on="1"/>
        <pt x="679" y="50" on="0"/>
        <pt x="665" y="-19" on="0"/>
        <pt x="640" y="-91" on="0"/>
        <pt x="606" y="-159" on="0"/>
        <pt x="587" y="-187" on="1"/>
      </contour>
    </TTGlyph>
    <TTGlyph name="Eng.sc" xMin="88" yMin="-149" xMax="598" yMax="577">
      <contour>
        <pt x="472" y="-135" on="1"/>
        <pt x="493" y="-96" on="0"/>
        <pt x="525" y="-16" on="0"/>
        <pt x="530" y="15" on="1"/>
        <pt x="204" y="410" on="1"/>
        <pt x="154" y="478" on="1"/>
        <pt x="148" y="478" on="1"/>
        <pt x="148" y="0" on="1"/>
        <pt x="88" y="0" on="1"/>
        <pt x="88" y="577" on="1"/>
        <pt x="144" y="577" on="1"/>
        <pt x="480" y="168" on="1"/>
        <pt x="533" y="98" on="1"/>
        <pt x="537" y="99" on="1"/>
        <pt x="537" y="577" on="1"/>
        <pt x="598" y="577" on="1"/>
        <pt x="598" y="67" on="1"/>
        <pt x="598" y="44" on="0"/>
        <pt x="586" y="-12" on="0"/>
        <pt x="565" y="-69" on="0"/>
        <pt x="536" y="-125" on="0"/>
        <pt x="519" y="-149" on="1"/>
      </contour>
    </TTGlyph>
    <TTGlyph name="Eogonek" xMin="93" yMin="-220" xMax="554" yMax="740">
      <contour>
        <pt x="93" y="740" on="1"/>
        <pt x="546" y="740" on="1"/>
        <pt x="546" y="681" on="1"/>
        <pt x="161" y="681" on="1"/>
        <pt x="161" y="405" on="1"/>
        <pt x="522" y="405" on="1"/>
        <pt x="522" y="347" on="1"/>
        <pt x="161" y="347" on="1"/>
        <pt x="161" y="59" on="1"/>
        <pt x="554" y="59" on="1"/>
        <pt x="554" y="-20" on="1"/>
        <pt x="493" y="-49" on="0"/>
        <pt x="438" y="-105" on="0"/>
        <pt x="438" y="-136" on="1"/>
        <pt x="438" y="-175" on="0"/>
        <pt x="487" y="-175" on="1"/>
        <pt x="518" y="-175" on="0"/>
        <pt x="553" y="-164" on="1"/>
        <pt x="553" y="-208" on="1"/>
        <pt x="539" y="-214" on="0"/>
        <pt x="502" y="-220" on="0"/>
        <pt x="483" y="-220" on="1"/>
        <pt x="387" y="-220" on="0"/>
        <pt x="387" y="-139" on="1"/>
        <pt x="387" y="-120" on="0"/>
        <pt x="399" y="-85" on="0"/>
        <pt x="426" y="-52" on="0"/>
        <pt x="468" y="-18" on="0"/>
        <pt x="499" y="0" on="1"/>
        <pt x="93" y="0" on="1"/>
      </contour>
    </TTGlyph>
    <TTGlyph name="Eogonek.sc" xMin="88" yMin="-172" xMax="495" yMax="577">
      <contour>
        <pt x="431" y="-172" on="1"/>
        <pt x="345" y="-172" on="0"/>
        <pt x="345" y="-108" on="1"/>
        <pt x="345" y="-77" on="0"/>
        <pt x="385" y="-30" on="0"/>
        <pt x="439" y="0" on="1"/>
        <pt x="88" y="0" on="1"/>
        <pt x="88" y="577" on="1"/>
        <pt x="488" y="577" on="1"/>
        <pt x="488" y="523" on="1"/>
        <pt x="154" y="523" on="1"/>
        <pt x="154" y="319" on="1"/>
        <pt x="466" y="319" on="1"/>
        <pt x="466" y="268" on="1"/>
        <pt x="154" y="268" on="1"/>
        <pt x="154" y="54" on="1"/>
        <pt x="495" y="54" on="1"/>
        <pt x="495" y="-14" on="1"/>
        <pt x="444" y="-34" on="0"/>
        <pt x="394" y="-76" on="0"/>
        <pt x="394" y="-102" on="1"/>
        <pt x="394" y="-119" on="0"/>
        <pt x="415" y="-131" on="0"/>
        <pt x="435" y="-131" on="1"/>
        <pt x="449" y="-131" on="0"/>
        <pt x="481" y="-126" on="0"/>
        <pt x="494" y="-122" on="1"/>
        <pt x="494" y="-162" on="1"/>
        <pt x="480" y="-167" on="0"/>
        <pt x="448" y="-172" on="0"/>
      </contour>
    </TTGlyph>
    <TTGlyph name="Eth" xMin="5" yMin="-11" xMax="672" yMax="749">
      <contour>
        <pt x="5" y="398" on="1"/>
        <pt x="102" y="398" on="1"/>
        <pt x="102" y="738" on="1"/>
        <pt x="124" y="740" on="0"/>
        <pt x="178" y="744" on="0"/>
        <pt x="231" y="747" on="0"/>
        <pt x="281" y="749" on="0"/>
        <pt x="299" y="749" on="1"/>
        <pt x="492" y="749" on="0"/>
        <pt x="672" y="566" on="0"/>
        <pt x="672" y="370" on="1"/>
        <pt x="672" y="173" on="0"/>
        <pt x="485" y="-11" on="0"/>
        <pt x="282" y="-11" on="1"/>
        <pt x="225" y="-11" on="0"/>
        <pt x="127" y="-4" on="0"/>
        <pt x="102" y="4" on="1"/>
        <pt x="102" y="340" on="1"/>
        <pt x="5" y="340" on="1"/>
      </contour>
      <contour>
        <pt x="299" y="48" on="1"/>
        <pt x="456" y="48" on="0"/>
        <pt x="603" y="203" on="0"/>
        <pt x="603" y="370" on="1"/>
        <pt x="603" y="536" on="0"/>
        <pt x="459" y="689" on="0"/>
        <pt x="304" y="689" on="1"/>
        <pt x="276" y="689" on="0"/>
        <pt x="200" y="685" on="0"/>
        <pt x="170" y="681" on="1"/>
        <pt x="170" y="398" on="1"/>
        <pt x="365" y="398" on="1"/>
        <pt x="365" y="340" on="1"/>
        <pt x="170" y="340" on="1"/>
        <pt x="170" y="58" on="1"/>
        <pt x="189" y="55" on="0"/>
        <pt x="221" y="51" on="0"/>
        <pt x="251" y="49" on="0"/>
        <pt x="282" y="48" on="0"/>
      </contour>
    </TTGlyph>
    <TTGlyph name="Eth.sc" xMin="13" yMin="-8" xMax="599" yMax="584">
      <contour>
        <pt x="13" y="314" on="1"/>
        <pt x="97" y="314" on="1"/>
        <pt x="97" y="576" on="1"/>
        <pt x="117" y="578" on="0"/>
        <pt x="164" y="581" on="0"/>
        <pt x="212" y="583" on="0"/>
        <pt x="256" y="584" on="0"/>
        <pt x="272" y="584" on="1"/>
        <pt x="441" y="584" on="0"/>
        <pt x="599" y="441" on="0"/>
        <pt x="599" y="288" on="1"/>
        <pt x="599" y="211" on="0"/>
        <pt x="559" y="99" on="0"/>
        <pt x="475" y="27" on="0"/>
        <pt x="346" y="-8" on="0"/>
        <pt x="257" y="-8" on="1"/>
        <pt x="206" y="-8" on="0"/>
        <pt x="119" y="-2" on="0"/>
        <pt x="97" y="4" on="1"/>
        <pt x="97" y="262" on="1"/>
        <pt x="13" y="262" on="1"/>
      </contour>
      <contour>
        <pt x="275" y="47" on="1"/>
        <pt x="408" y="47" on="0"/>
        <pt x="532" y="163" on="0"/>
        <pt x="532" y="288" on="1"/>
        <pt x="532" y="414" on="0"/>
        <pt x="410" y="528" on="0"/>
        <pt x="277" y="528" on="1"/>
        <pt x="254" y="528" on="0"/>
        <pt x="189" y="524" on="0"/>
        <pt x="162" y="522" on="1"/>
        <pt x="162" y="314" on="1"/>
        <pt x="327" y="314" on="1"/>
        <pt x="327" y="262" on="1"/>
        <pt x="162" y="262" on="1"/>
        <pt x="162" y="55" on="1"/>
        <pt x="195" y="50" on="0"/>
        <pt x="245" y="47" on="0"/>
      </contour>
    </TTGlyph>
    <TTGlyph name="Etilde" xMin="93" yMin="0" xMax="554" yMax="926">
      <contour>
        <pt x="134" y="862" on="1"/>
        <pt x="160" y="893" on="0"/>
        <pt x="222" y="926" on="0"/>
        <pt x="253" y="926" on="1"/>
        <pt x="276" y="926" on="0"/>
        <pt x="316" y="913" on="0"/>
        <pt x="354" y="897" on="0"/>
        <pt x="393" y="884" on="0"/>
        <pt x="414" y="884" on="1"/>
        <pt x="460" y="884" on="0"/>
        <pt x="502" y="923" on="1"/>
        <pt x="526" y="897" on="1"/>
        <pt x="502" y="866" on="0"/>
        <pt x="437" y="832" on="0"/>
        <pt x="404" y="832" on="1"/>
        <pt x="383" y="832" on="0"/>
        <pt x="343" y="845" on="0"/>
        <pt x="304" y="860" on="0"/>
        <pt x="265" y="873" on="0"/>
        <pt x="245" y="873" on="1"/>
        <pt x="223" y="873" on="0"/>
        <pt x="180" y="856" on="0"/>
        <pt x="158" y="836" on="1"/>
      </contour>
      <contour>
        <pt x="93" y="740" on="1"/>
        <pt x="546" y="740" on="1"/>
        <pt x="546" y="681" on="1"/>
        <pt x="161" y="681" on="1"/>
        <pt x="161" y="405" on="1"/>
        <pt x="522" y="405" on="1"/>
        <pt x="522" y="347" on="1"/>
        <pt x="161" y="347" on="1"/>
        <pt x="161" y="59" on="1"/>
        <pt x="554" y="59" on="1"/>
        <pt x="554" y="0" on="1"/>
        <pt x="93" y="0" on="1"/>
      </contour>
    </TTGlyph>
    <TTGlyph name="Etilde.sc" xMin="88" yMin="0" xMax="495" yMax="729">
      <contour>
        <pt x="124" y="672" on="1"/>
        <pt x="173" y="729" on="0"/>
        <pt x="230" y="729" on="1"/>
        <pt x="250" y="729" on="0"/>
        <pt x="286" y="719" on="0"/>
        <pt x="320" y="707" on="0"/>
        <pt x="354" y="697" on="0"/>
        <pt x="373" y="697" on="1"/>
        <pt x="411" y="697" on="0"/>
        <pt x="451" y="726" on="1"/>
        <pt x="472" y="706" on="1"/>
        <pt x="449" y="678" on="0"/>
        <pt x="391" y="649" on="0"/>
        <pt x="362" y="649" on="1"/>
        <pt x="343" y="649" on="0"/>
        <pt x="307" y="659" on="0"/>
        <pt x="273" y="671" on="0"/>
        <pt x="238" y="681" on="0"/>
        <pt x="221" y="681" on="1"/>
        <pt x="201" y="681" on="0"/>
        <pt x="163" y="667" on="0"/>
        <pt x="145" y="651" on="1"/>
      </contour>
      <contour>
        <pt x="88" y="577" on="1"/>
        <pt x="488" y="577" on="1"/>
        <pt x="488" y="523" on="1"/>
        <pt x="154" y="523" on="1"/>
        <pt x="154" y="319" on="1"/>
        <pt x="466" y="319" on="1"/>
        <pt x="466" y="268" on="1"/>
        <pt x="154" y="268" on="1"/>
        <pt x="154" y="54" on="1"/>
        <pt x="495" y="54" on="1"/>
        <pt x="495" y="0" on="1"/>
        <pt x="88" y="0" on="1"/>
      </contour>
    </TTGlyph>
    <TTGlyph name="Euro" xMin="46" yMin="-10" xMax="573" yMax="749">
      <contour>
        <pt x="46" y="478" on="1"/>
        <pt x="137" y="478" on="1"/>
        <pt x="147" y="550" on="0"/>
        <pt x="197" y="652" on="0"/>
        <pt x="283" y="718" on="0"/>
        <pt x="404" y="749" on="0"/>
        <pt x="484" y="749" on="1"/>
        <pt x="514" y="749" on="0"/>
        <pt x="554" y="745" on="0"/>
        <pt x="573" y="743" on="1"/>
        <pt x="548" y="684" on="1"/>
        <pt x="540" y="686" on="0"/>
        <pt x="513" y="688" on="0"/>
        <pt x="496" y="688" on="1"/>
        <pt x="427" y="688" on="0"/>
        <pt x="326" y="665" on="0"/>
        <pt x="256" y="615" on="0"/>
        <pt x="215" y="535" on="0"/>
        <pt x="206" y="478" on="1"/>
        <pt x="487" y="478" on="1"/>
        <pt x="470" y="430" on="1"/>
        <pt x="201" y="430" on="1"/>
        <pt x="199" y="416" on="0"/>
        <pt x="199" y="386" on="0"/>
        <pt x="199" y="370" on="1"/>
        <pt x="199" y="354" on="0"/>
        <pt x="199" y="324" on="0"/>
        <pt x="201" y="310" on="1"/>
        <pt x="449" y="310" on="1"/>
        <pt x="432" y="262" on="1"/>
        <pt x="206" y="262" on="1"/>
        <pt x="224" y="150" on="0"/>
        <pt x="359" y="51" on="0"/>
        <pt x="492" y="51" on="1"/>
        <pt x="504" y="51" on="0"/>
        <pt x="537" y="54" on="0"/>
        <pt x="557" y="56" on="1"/>
        <pt x="557" y="-5" on="1"/>
        <pt x="545" y="-8" on="0"/>
        <pt x="512" y="-10" on="0"/>
        <pt x="488" y="-10" on="1"/>
        <pt x="327" y="-9" on="0"/>
        <pt x="158" y="122" on="0"/>
        <pt x="137" y="262" on="1"/>
        <pt x="46" y="262" on="1"/>
        <pt x="46" y="310" on="1"/>
        <pt x="132" y="310" on="1"/>
        <pt x="130" y="324" on="0"/>
        <pt x="130" y="353" on="0"/>
        <pt x="130" y="369" on="1"/>
        <pt x="130" y="385" on="0"/>
        <pt x="130" y="415" on="0"/>
        <pt x="132" y="430" on="1"/>
        <pt x="46" y="430" on="1"/>
      </contour>
    </TTGlyph>
    <TTGlyph name="Euro.tab" xMin="21" yMin="-10" xMax="530" yMax="749">
      <contour>
        <pt x="21" y="478" on="1"/>
        <pt x="109" y="478" on="1"/>
        <pt x="118" y="550" on="0"/>
        <pt x="167" y="653" on="0"/>
        <pt x="249" y="718" on="0"/>
        <pt x="365" y="749" on="0"/>
        <pt x="443" y="749" on="1"/>
        <pt x="472" y="749" on="0"/>
        <pt x="512" y="745" on="0"/>
        <pt x="530" y="743" on="1"/>
        <pt x="506" y="684" on="1"/>
        <pt x="498" y="686" on="0"/>
        <pt x="472" y="688" on="0"/>
        <pt x="455" y="688" on="1"/>
        <pt x="390" y="688" on="0"/>
        <pt x="294" y="665" on="0"/>
        <pt x="226" y="615" on="0"/>
        <pt x="186" y="535" on="0"/>
        <pt x="178" y="478" on="1"/>
        <pt x="448" y="478" on="1"/>
        <pt x="431" y="430" on="1"/>
        <pt x="171" y="430" on="1"/>
        <pt x="170" y="416" on="0"/>
        <pt x="169" y="385" on="0"/>
        <pt x="169" y="370" on="1"/>
        <pt x="169" y="355" on="0"/>
        <pt x="170" y="324" on="0"/>
        <pt x="172" y="310" on="1"/>
        <pt x="411" y="310" on="1"/>
        <pt x="394" y="262" on="1"/>
        <pt x="178" y="262" on="1"/>
        <pt x="196" y="151" on="0"/>
        <pt x="327" y="51" on="0"/>
        <pt x="452" y="51" on="1"/>
        <pt x="463" y="51" on="0"/>
        <pt x="496" y="54" on="0"/>
        <pt x="515" y="56" on="1"/>
        <pt x="515" y="-5" on="1"/>
        <pt x="504" y="-8" on="0"/>
        <pt x="470" y="-10" on="0"/>
        <pt x="447" y="-10" on="1"/>
        <pt x="292" y="-9" on="0"/>
        <pt x="129" y="122" on="0"/>
        <pt x="109" y="262" on="1"/>
        <pt x="21" y="262" on="1"/>
        <pt x="21" y="310" on="1"/>
        <pt x="103" y="310" on="1"/>
        <pt x="102" y="324" on="0"/>
        <pt x="102" y="355" on="0"/>
        <pt x="102" y="369" on="1"/>
        <pt x="102" y="384" on="0"/>
        <pt x="102" y="416" on="0"/>
        <pt x="103" y="430" on="1"/>
        <pt x="21" y="430" on="1"/>
      </contour>
    </TTGlyph>
    <TTGlyph name="F" xMin="93" yMin="0" xMax="541" yMax="740">
      <contour>
        <pt x="93" y="740" on="1"/>
        <pt x="541" y="740" on="1"/>
        <pt x="541" y="681" on="1"/>
        <pt x="161" y="681" on="1"/>
        <pt x="161" y="401" on="1"/>
        <pt x="508" y="401" on="1"/>
        <pt x="508" y="342" on="1"/>
        <pt x="161" y="342" on="1"/>
        <pt x="161" y="0" on="1"/>
        <pt x="93" y="0" on="1"/>
      </contour>
    </TTGlyph>
    <TTGlyph name="F.sc" xMin="88" yMin="0" xMax="484" yMax="577">
      <contour>
        <pt x="88" y="577" on="1"/>
        <pt x="484" y="577" on="1"/>
        <pt x="484" y="522" on="1"/>
        <pt x="154" y="522" on="1"/>
        <pt x="154" y="313" on="1"/>
        <pt x="455" y="313" on="1"/>
        <pt x="455" y="261" on="1"/>
        <pt x="154" y="261" on="1"/>
        <pt x="154" y="0" on="1"/>
        <pt x="88" y="0" on="1"/>
      </contour>
    </TTGlyph>
    <TTGlyph name="F_B.sc" xMin="88" yMin="-8" xMax="1037" yMax="584">
      <contour>
        <pt x="88" y="577" on="1"/>
        <pt x="484" y="577" on="1"/>
        <pt x="484" y="522" on="1"/>
        <pt x="154" y="522" on="1"/>
        <pt x="154" y="313" on="1"/>
        <pt x="455" y="313" on="1"/>
        <pt x="455" y="261" on="1"/>
        <pt x="154" y="261" on="1"/>
        <pt x="154" y="0" on="1"/>
        <pt x="88" y="0" on="1"/>
      </contour>
      <contour>
        <pt x="790" y="-8" on="1"/>
        <pt x="697" y="-8" on="0"/>
        <pt x="589" y="4" on="1"/>
        <pt x="589" y="573" on="1"/>
        <pt x="652" y="579" on="0"/>
        <pt x="740" y="584" on="0"/>
        <pt x="781" y="584" on="1"/>
        <pt x="906" y="584" on="0"/>
        <pt x="1016" y="511" on="0"/>
        <pt x="1016" y="429" on="1"/>
        <pt x="1016" y="376" on="0"/>
        <pt x="956" y="305" on="0"/>
        <pt x="904" y="296" on="1"/>
        <pt x="904" y="293" on="1"/>
        <pt x="969" y="282" on="0"/>
        <pt x="1037" y="210" on="0"/>
        <pt x="1037" y="152" on="1"/>
        <pt x="1037" y="-8" on="0"/>
      </contour>
      <contour>
        <pt x="789" y="43" on="1"/>
        <pt x="883" y="43" on="0"/>
        <pt x="971" y="98" on="0"/>
        <pt x="971" y="156" on="1"/>
        <pt x="971" y="213" on="0"/>
        <pt x="890" y="268" on="0"/>
        <pt x="803" y="268" on="1"/>
        <pt x="653" y="268" on="1"/>
        <pt x="653" y="50" on="1"/>
        <pt x="694" y="43" on="0"/>
      </contour>
      <contour>
        <pt x="799" y="316" on="1"/>
        <pt x="881" y="316" on="0"/>
        <pt x="951" y="366" on="0"/>
        <pt x="951" y="425" on="1"/>
        <pt x="951" y="484" on="0"/>
        <pt x="874" y="533" on="0"/>
        <pt x="783" y="533" on="1"/>
        <pt x="742" y="533" on="0"/>
        <pt x="680" y="531" on="0"/>
        <pt x="653" y="527" on="1"/>
        <pt x="653" y="316" on="1"/>
      </contour>
    </TTGlyph>
    <TTGlyph name="F_F.sc" xMin="88" yMin="0" xMax="985" yMax="577">
      <contour>
        <pt x="88" y="577" on="1"/>
        <pt x="484" y="577" on="1"/>
        <pt x="484" y="522" on="1"/>
        <pt x="154" y="522" on="1"/>
        <pt x="154" y="313" on="1"/>
        <pt x="455" y="313" on="1"/>
        <pt x="455" y="261" on="1"/>
        <pt x="154" y="261" on="1"/>
        <pt x="154" y="0" on="1"/>
        <pt x="88" y="0" on="1"/>
      </contour>
      <contour>
        <pt x="589" y="577" on="1"/>
        <pt x="985" y="577" on="1"/>
        <pt x="985" y="522" on="1"/>
        <pt x="655" y="522" on="1"/>
        <pt x="655" y="313" on="1"/>
        <pt x="956" y="313" on="1"/>
        <pt x="956" y="261" on="1"/>
        <pt x="655" y="261" on="1"/>
        <pt x="655" y="0" on="1"/>
        <pt x="589" y="0" on="1"/>
      </contour>
    </TTGlyph>
    <TTGlyph name="F_F_B.sc" xMin="88" yMin="-8" xMax="1537" yMax="584">
      <contour>
        <pt x="88" y="577" on="1"/>
        <pt x="484" y="577" on="1"/>
        <pt x="484" y="522" on="1"/>
        <pt x="154" y="522" on="1"/>
        <pt x="154" y="313" on="1"/>
        <pt x="455" y="313" on="1"/>
        <pt x="455" y="261" on="1"/>
        <pt x="154" y="261" on="1"/>
        <pt x="154" y="0" on="1"/>
        <pt x="88" y="0" on="1"/>
      </contour>
      <contour>
        <pt x="589" y="577" on="1"/>
        <pt x="985" y="577" on="1"/>
        <pt x="985" y="522" on="1"/>
        <pt x="655" y="522" on="1"/>
        <pt x="655" y="313" on="1"/>
        <pt x="956" y="313" on="1"/>
        <pt x="956" y="261" on="1"/>
        <pt x="655" y="261" on="1"/>
        <pt x="655" y="0" on="1"/>
        <pt x="589" y="0" on="1"/>
      </contour>
      <contour>
        <pt x="1290" y="-8" on="1"/>
        <pt x="1197" y="-8" on="0"/>
        <pt x="1089" y="4" on="1"/>
        <pt x="1089" y="573" on="1"/>
        <pt x="1152" y="579" on="0"/>
        <pt x="1240" y="584" on="0"/>
        <pt x="1281" y="584" on="1"/>
        <pt x="1406" y="584" on="0"/>
        <pt x="1516" y="511" on="0"/>
        <pt x="1516" y="429" on="1"/>
        <pt x="1516" y="376" on="0"/>
        <pt x="1456" y="305" on="0"/>
        <pt x="1404" y="296" on="1"/>
        <pt x="1404" y="293" on="1"/>
        <pt x="1469" y="282" on="0"/>
        <pt x="1537" y="210" on="0"/>
        <pt x="1537" y="152" on="1"/>
        <pt x="1537" y="-8" on="0"/>
      </contour>
      <contour>
        <pt x="1289" y="43" on="1"/>
        <pt x="1383" y="43" on="0"/>
        <pt x="1471" y="98" on="0"/>
        <pt x="1471" y="156" on="1"/>
        <pt x="1471" y="213" on="0"/>
        <pt x="1390" y="268" on="0"/>
        <pt x="1303" y="268" on="1"/>
        <pt x="1153" y="268" on="1"/>
        <pt x="1153" y="50" on="1"/>
        <pt x="1194" y="43" on="0"/>
      </contour>
      <contour>
        <pt x="1299" y="316" on="1"/>
        <pt x="1381" y="316" on="0"/>
        <pt x="1451" y="366" on="0"/>
        <pt x="1451" y="425" on="1"/>
        <pt x="1451" y="484" on="0"/>
        <pt x="1374" y="533" on="0"/>
        <pt x="1283" y="533" on="1"/>
        <pt x="1242" y="533" on="0"/>
        <pt x="1180" y="531" on="0"/>
        <pt x="1153" y="527" on="1"/>
        <pt x="1153" y="316" on="1"/>
      </contour>
    </TTGlyph>
    <TTGlyph name="F_F_H.sc" xMin="88" yMin="0" xMax="1590" yMax="577">
      <contour>
        <pt x="88" y="577" on="1"/>
        <pt x="484" y="577" on="1"/>
        <pt x="484" y="522" on="1"/>
        <pt x="154" y="522" on="1"/>
        <pt x="154" y="313" on="1"/>
        <pt x="455" y="313" on="1"/>
        <pt x="455" y="261" on="1"/>
        <pt x="154" y="261" on="1"/>
        <pt x="154" y="0" on="1"/>
        <pt x="88" y="0" on="1"/>
      </contour>
      <contour>
        <pt x="589" y="577" on="1"/>
        <pt x="985" y="577" on="1"/>
        <pt x="985" y="522" on="1"/>
        <pt x="655" y="522" on="1"/>
        <pt x="655" y="313" on="1"/>
        <pt x="956" y="313" on="1"/>
        <pt x="956" y="261" on="1"/>
        <pt x="655" y="261" on="1"/>
        <pt x="655" y="0" on="1"/>
        <pt x="589" y="0" on="1"/>
      </contour>
      <contour>
        <pt x="1089" y="577" on="1"/>
        <pt x="1155" y="577" on="1"/>
        <pt x="1155" y="323" on="1"/>
        <pt x="1525" y="323" on="1"/>
        <pt x="1525" y="577" on="1"/>
        <pt x="1590" y="577" on="1"/>
        <pt x="1590" y="0" on="1"/>
        <pt x="1525" y="0" on="1"/>
        <pt x="1525" y="269" on="1"/>
        <pt x="1155" y="269" on="1"/>
        <pt x="1155" y="0" on="1"/>
        <pt x="1089" y="0" on="1"/>
      </contour>
    </TTGlyph>
    <TTGlyph name="F_F_I.sc" xMin="88" yMin="0" xMax="1155" yMax="577">
      <contour>
        <pt x="88" y="577" on="1"/>
        <pt x="484" y="577" on="1"/>
        <pt x="484" y="522" on="1"/>
        <pt x="154" y="522" on="1"/>
        <pt x="154" y="313" on="1"/>
        <pt x="455" y="313" on="1"/>
        <pt x="455" y="261" on="1"/>
        <pt x="154" y="261" on="1"/>
        <pt x="154" y="0" on="1"/>
        <pt x="88" y="0" on="1"/>
      </contour>
      <contour>
        <pt x="589" y="577" on="1"/>
        <pt x="985" y="577" on="1"/>
        <pt x="985" y="522" on="1"/>
        <pt x="655" y="522" on="1"/>
        <pt x="655" y="313" on="1"/>
        <pt x="956" y="313" on="1"/>
        <pt x="956" y="261" on="1"/>
        <pt x="655" y="261" on="1"/>
        <pt x="655" y="0" on="1"/>
        <pt x="589" y="0" on="1"/>
      </contour>
      <contour>
        <pt x="1089" y="577" on="1"/>
        <pt x="1155" y="577" on="1"/>
        <pt x="1155" y="0" on="1"/>
        <pt x="1089" y="0" on="1"/>
      </contour>
    </TTGlyph>
    <TTGlyph name="F_F_J.sc" xMin="88" yMin="-146" xMax="1165" yMax="577">
      <contour>
        <pt x="88" y="577" on="1"/>
        <pt x="484" y="577" on="1"/>
        <pt x="484" y="522" on="1"/>
        <pt x="154" y="522" on="1"/>
        <pt x="154" y="313" on="1"/>
        <pt x="455" y="313" on="1"/>
        <pt x="455" y="261" on="1"/>
        <pt x="154" y="261" on="1"/>
        <pt x="154" y="0" on="1"/>
        <pt x="88" y="0" on="1"/>
      </contour>
      <contour>
        <pt x="589" y="577" on="1"/>
        <pt x="985" y="577" on="1"/>
        <pt x="985" y="522" on="1"/>
        <pt x="655" y="522" on="1"/>
        <pt x="655" y="313" on="1"/>
        <pt x="956" y="313" on="1"/>
        <pt x="956" y="261" on="1"/>
        <pt x="655" y="261" on="1"/>
        <pt x="655" y="0" on="1"/>
        <pt x="589" y="0" on="1"/>
      </contour>
      <contour>
        <pt x="1031" y="-124" on="1"/>
        <pt x="1051" y="-87" on="0"/>
        <pt x="1077" y="-23" on="0"/>
        <pt x="1093" y="39" on="0"/>
        <pt x="1099" y="105" on="0"/>
        <pt x="1099" y="144" on="1"/>
        <pt x="1099" y="577" on="1"/>
        <pt x="1165" y="577" on="1"/>
        <pt x="1165" y="141" on="1"/>
        <pt x="1165" y="102" on="0"/>
        <pt x="1156" y="35" on="0"/>
        <pt x="1136" y="-32" on="0"/>
        <pt x="1102" y="-103" on="0"/>
        <pt x="1077" y="-146" on="1"/>
      </contour>
    </TTGlyph>
    <TTGlyph name="F_F_K.sc" xMin="88" yMin="0" xMax="1575" yMax="577">
      <contour>
        <pt x="88" y="577" on="1"/>
        <pt x="484" y="577" on="1"/>
        <pt x="484" y="522" on="1"/>
        <pt x="154" y="522" on="1"/>
        <pt x="154" y="313" on="1"/>
        <pt x="455" y="313" on="1"/>
        <pt x="455" y="261" on="1"/>
        <pt x="154" y="261" on="1"/>
        <pt x="154" y="0" on="1"/>
        <pt x="88" y="0" on="1"/>
      </contour>
      <contour>
        <pt x="589" y="577" on="1"/>
        <pt x="985" y="577" on="1"/>
        <pt x="985" y="522" on="1"/>
        <pt x="655" y="522" on="1"/>
        <pt x="655" y="313" on="1"/>
        <pt x="956" y="313" on="1"/>
        <pt x="956" y="261" on="1"/>
        <pt x="655" y="261" on="1"/>
        <pt x="655" y="0" on="1"/>
        <pt x="589" y="0" on="1"/>
      </contour>
      <contour>
        <pt x="1089" y="577" on="1"/>
        <pt x="1155" y="577" on="1"/>
        <pt x="1155" y="321" on="1"/>
        <pt x="1284" y="321" on="1"/>
        <pt x="1483" y="577" on="1"/>
        <pt x="1560" y="577" on="1"/>
        <pt x="1358" y="319" on="1"/>
        <pt x="1331" y="300" on="1"/>
        <pt x="1331" y="295" on="1"/>
        <pt x="1360" y="276" on="1"/>
        <pt x="1575" y="0" on="1"/>
        <pt x="1499" y="0" on="1"/>
        <pt x="1290" y="266" on="1"/>
        <pt x="1155" y="266" on="1"/>
        <pt x="1155" y="0" on="1"/>
        <pt x="1089" y="0" on="1"/>
      </contour>
    </TTGlyph>
    <TTGlyph name="F_F_L.sc" xMin="88" yMin="0" xMax="1453" yMax="577">
      <contour>
        <pt x="1089" y="577" on="1"/>
        <pt x="1155" y="577" on="1"/>
        <pt x="1155" y="55" on="1"/>
        <pt x="1453" y="55" on="1"/>
        <pt x="1453" y="0" on="1"/>
        <pt x="1089" y="0" on="1"/>
      </contour>
      <contour>
        <pt x="88" y="577" on="1"/>
        <pt x="484" y="577" on="1"/>
        <pt x="484" y="522" on="1"/>
        <pt x="154" y="522" on="1"/>
        <pt x="154" y="313" on="1"/>
        <pt x="455" y="313" on="1"/>
        <pt x="455" y="261" on="1"/>
        <pt x="154" y="261" on="1"/>
        <pt x="154" y="0" on="1"/>
        <pt x="88" y="0" on="1"/>
      </contour>
      <contour>
        <pt x="589" y="577" on="1"/>
        <pt x="985" y="577" on="1"/>
        <pt x="985" y="522" on="1"/>
        <pt x="655" y="522" on="1"/>
        <pt x="655" y="313" on="1"/>
        <pt x="956" y="313" on="1"/>
        <pt x="956" y="261" on="1"/>
        <pt x="655" y="261" on="1"/>
        <pt x="655" y="0" on="1"/>
        <pt x="589" y="0" on="1"/>
      </contour>
    </TTGlyph>
    <TTGlyph name="F_F_T.sc" xMin="88" yMin="0" xMax="1501" yMax="577">
      <contour>
        <pt x="1225" y="522" on="1"/>
        <pt x="1013" y="522" on="1"/>
        <pt x="1013" y="577" on="1"/>
        <pt x="1501" y="577" on="1"/>
        <pt x="1501" y="522" on="1"/>
        <pt x="1291" y="522" on="1"/>
        <pt x="1291" y="0" on="1"/>
        <pt x="1225" y="0" on="1"/>
      </contour>
      <contour>
        <pt x="88" y="577" on="1"/>
        <pt x="484" y="577" on="1"/>
        <pt x="484" y="522" on="1"/>
        <pt x="154" y="522" on="1"/>
        <pt x="154" y="313" on="1"/>
        <pt x="455" y="313" on="1"/>
        <pt x="455" y="261" on="1"/>
        <pt x="154" y="261" on="1"/>
        <pt x="154" y="0" on="1"/>
        <pt x="88" y="0" on="1"/>
      </contour>
      <contour>
        <pt x="589" y="577" on="1"/>
        <pt x="985" y="577" on="1"/>
        <pt x="985" y="522" on="1"/>
        <pt x="655" y="522" on="1"/>
        <pt x="655" y="313" on="1"/>
        <pt x="956" y="313" on="1"/>
        <pt x="956" y="261" on="1"/>
        <pt x="655" y="261" on="1"/>
        <pt x="655" y="0" on="1"/>
        <pt x="589" y="0" on="1"/>
      </contour>
    </TTGlyph>
    <TTGlyph name="F_H.sc" xMin="88" yMin="0" xMax="1090" yMax="577">
      <contour>
        <pt x="88" y="577" on="1"/>
        <pt x="484" y="577" on="1"/>
        <pt x="484" y="522" on="1"/>
        <pt x="154" y="522" on="1"/>
        <pt x="154" y="313" on="1"/>
        <pt x="455" y="313" on="1"/>
        <pt x="455" y="261" on="1"/>
        <pt x="154" y="261" on="1"/>
        <pt x="154" y="0" on="1"/>
        <pt x="88" y="0" on="1"/>
      </contour>
      <contour>
        <pt x="589" y="577" on="1"/>
        <pt x="655" y="577" on="1"/>
        <pt x="655" y="323" on="1"/>
        <pt x="1025" y="323" on="1"/>
        <pt x="1025" y="577" on="1"/>
        <pt x="1090" y="577" on="1"/>
        <pt x="1090" y="0" on="1"/>
        <pt x="1025" y="0" on="1"/>
        <pt x="1025" y="269" on="1"/>
        <pt x="655" y="269" on="1"/>
        <pt x="655" y="0" on="1"/>
        <pt x="589" y="0" on="1"/>
      </contour>
    </TTGlyph>
    <TTGlyph name="F_I.sc" xMin="88" yMin="0" xMax="655" yMax="577">
      <contour>
        <pt x="88" y="577" on="1"/>
        <pt x="484" y="577" on="1"/>
        <pt x="484" y="522" on="1"/>
        <pt x="154" y="522" on="1"/>
        <pt x="154" y="313" on="1"/>
        <pt x="455" y="313" on="1"/>
        <pt x="455" y="261" on="1"/>
        <pt x="154" y="261" on="1"/>
        <pt x="154" y="0" on="1"/>
        <pt x="88" y="0" on="1"/>
      </contour>
      <contour>
        <pt x="589" y="577" on="1"/>
        <pt x="655" y="577" on="1"/>
        <pt x="655" y="0" on="1"/>
        <pt x="589" y="0" on="1"/>
      </contour>
    </TTGlyph>
    <TTGlyph name="F_J.sc" xMin="88" yMin="-146" xMax="665" yMax="577">
      <contour>
        <pt x="88" y="577" on="1"/>
        <pt x="484" y="577" on="1"/>
        <pt x="484" y="522" on="1"/>
        <pt x="154" y="522" on="1"/>
        <pt x="154" y="313" on="1"/>
        <pt x="455" y="313" on="1"/>
        <pt x="455" y="261" on="1"/>
        <pt x="154" y="261" on="1"/>
        <pt x="154" y="0" on="1"/>
        <pt x="88" y="0" on="1"/>
      </contour>
      <contour>
        <pt x="531" y="-124" on="1"/>
        <pt x="551" y="-87" on="0"/>
        <pt x="577" y="-23" on="0"/>
        <pt x="593" y="39" on="0"/>
        <pt x="599" y="105" on="0"/>
        <pt x="599" y="144" on="1"/>
        <pt x="599" y="577" on="1"/>
        <pt x="665" y="577" on="1"/>
        <pt x="665" y="141" on="1"/>
        <pt x="665" y="102" on="0"/>
        <pt x="656" y="35" on="0"/>
        <pt x="636" y="-32" on="0"/>
        <pt x="602" y="-103" on="0"/>
        <pt x="577" y="-146" on="1"/>
      </contour>
    </TTGlyph>
    <TTGlyph name="F_K.sc" xMin="88" yMin="0" xMax="1075" yMax="577">
      <contour>
        <pt x="88" y="577" on="1"/>
        <pt x="484" y="577" on="1"/>
        <pt x="484" y="522" on="1"/>
        <pt x="154" y="522" on="1"/>
        <pt x="154" y="313" on="1"/>
        <pt x="455" y="313" on="1"/>
        <pt x="455" y="261" on="1"/>
        <pt x="154" y="261" on="1"/>
        <pt x="154" y="0" on="1"/>
        <pt x="88" y="0" on="1"/>
      </contour>
      <contour>
        <pt x="589" y="577" on="1"/>
        <pt x="655" y="577" on="1"/>
        <pt x="655" y="321" on="1"/>
        <pt x="784" y="321" on="1"/>
        <pt x="983" y="577" on="1"/>
        <pt x="1060" y="577" on="1"/>
        <pt x="858" y="319" on="1"/>
        <pt x="831" y="300" on="1"/>
        <pt x="831" y="295" on="1"/>
        <pt x="860" y="276" on="1"/>
        <pt x="1075" y="0" on="1"/>
        <pt x="999" y="0" on="1"/>
        <pt x="790" y="266" on="1"/>
        <pt x="655" y="266" on="1"/>
        <pt x="655" y="0" on="1"/>
        <pt x="589" y="0" on="1"/>
      </contour>
    </TTGlyph>
    <TTGlyph name="F_L.sc" xMin="88" yMin="0" xMax="953" yMax="577">
      <contour>
        <pt x="589" y="577" on="1"/>
        <pt x="655" y="577" on="1"/>
        <pt x="655" y="55" on="1"/>
        <pt x="953" y="55" on="1"/>
        <pt x="953" y="0" on="1"/>
        <pt x="589" y="0" on="1"/>
      </contour>
      <contour>
        <pt x="88" y="577" on="1"/>
        <pt x="484" y="577" on="1"/>
        <pt x="484" y="522" on="1"/>
        <pt x="154" y="522" on="1"/>
        <pt x="154" y="313" on="1"/>
        <pt x="455" y="313" on="1"/>
        <pt x="455" y="261" on="1"/>
        <pt x="154" y="261" on="1"/>
        <pt x="154" y="0" on="1"/>
        <pt x="88" y="0" on="1"/>
      </contour>
    </TTGlyph>
    <TTGlyph name="F_T.sc" xMin="88" yMin="0" xMax="1001" yMax="577">
      <contour>
        <pt x="725" y="522" on="1"/>
        <pt x="513" y="522" on="1"/>
        <pt x="513" y="577" on="1"/>
        <pt x="1001" y="577" on="1"/>
        <pt x="1001" y="522" on="1"/>
        <pt x="791" y="522" on="1"/>
        <pt x="791" y="0" on="1"/>
        <pt x="725" y="0" on="1"/>
      </contour>
      <contour>
        <pt x="88" y="577" on="1"/>
        <pt x="484" y="577" on="1"/>
        <pt x="484" y="522" on="1"/>
        <pt x="154" y="522" on="1"/>
        <pt x="154" y="313" on="1"/>
        <pt x="455" y="313" on="1"/>
        <pt x="455" y="261" on="1"/>
        <pt x="154" y="261" on="1"/>
        <pt x="154" y="0" on="1"/>
        <pt x="88" y="0" on="1"/>
      </contour>
    </TTGlyph>
    <TTGlyph name="G" xMin="54" yMin="-9" xMax="585" yMax="750">
      <contour>
        <pt x="389" y="-9" on="1"/>
        <pt x="54" y="-7" on="0"/>
        <pt x="54" y="368" on="1"/>
        <pt x="54" y="750" on="0"/>
        <pt x="398" y="750" on="1"/>
        <pt x="440" y="750" on="0"/>
        <pt x="531" y="737" on="0"/>
        <pt x="579" y="725" on="1"/>
        <pt x="579" y="665" on="1"/>
        <pt x="549" y="672" on="0"/>
        <pt x="502" y="681" on="0"/>
        <pt x="460" y="687" on="0"/>
        <pt x="422" y="689" on="0"/>
        <pt x="402" y="689" on="1"/>
        <pt x="260" y="689" on="0"/>
        <pt x="124" y="532" on="0"/>
        <pt x="124" y="369" on="1"/>
        <pt x="124" y="51" on="0"/>
        <pt x="389" y="51" on="1"/>
        <pt x="414" y="51" on="0"/>
        <pt x="488" y="59" on="0"/>
        <pt x="520" y="65" on="1"/>
        <pt x="520" y="376" on="1"/>
        <pt x="585" y="376" on="1"/>
        <pt x="585" y="21" on="1"/>
        <pt x="537" y="7" on="0"/>
        <pt x="431" y="-9" on="0"/>
      </contour>
    </TTGlyph>
    <TTGlyph name="G.sc" xMin="54" yMin="-7" xMax="520" yMax="585">
      <contour>
        <pt x="345" y="-7" on="1"/>
        <pt x="54" y="-7" on="0"/>
        <pt x="54" y="287" on="1"/>
        <pt x="54" y="585" on="0"/>
        <pt x="354" y="585" on="1"/>
        <pt x="391" y="585" on="0"/>
        <pt x="473" y="575" on="0"/>
        <pt x="515" y="566" on="1"/>
        <pt x="515" y="510" on="1"/>
        <pt x="462" y="520" on="0"/>
        <pt x="393" y="528" on="0"/>
        <pt x="359" y="528" on="1"/>
        <pt x="237" y="528" on="0"/>
        <pt x="122" y="410" on="0"/>
        <pt x="122" y="288" on="1"/>
        <pt x="122" y="167" on="0"/>
        <pt x="232" y="50" on="0"/>
        <pt x="347" y="50" on="1"/>
        <pt x="357" y="50" on="0"/>
        <pt x="385" y="52" on="0"/>
        <pt x="416" y="55" on="0"/>
        <pt x="446" y="59" on="0"/>
        <pt x="458" y="62" on="1"/>
        <pt x="458" y="293" on="1"/>
        <pt x="520" y="293" on="1"/>
        <pt x="520" y="18" on="1"/>
        <pt x="478" y="7" on="0"/>
        <pt x="382" y="-7" on="0"/>
      </contour>
    </TTGlyph>
    <TTGlyph name="Gacute" xMin="54" yMin="-9" xMax="585" yMax="939">
      <contour>
        <pt x="324" y="806" on="1"/>
        <pt x="400" y="939" on="1"/>
        <pt x="471" y="939" on="1"/>
        <pt x="378" y="800" on="1"/>
      </contour>
      <contour>
        <pt x="389" y="-9" on="1"/>
        <pt x="54" y="-7" on="0"/>
        <pt x="54" y="368" on="1"/>
        <pt x="54" y="750" on="0"/>
        <pt x="398" y="750" on="1"/>
        <pt x="440" y="750" on="0"/>
        <pt x="531" y="737" on="0"/>
        <pt x="579" y="725" on="1"/>
        <pt x="579" y="665" on="1"/>
        <pt x="549" y="672" on="0"/>
        <pt x="502" y="681" on="0"/>
        <pt x="460" y="687" on="0"/>
        <pt x="422" y="689" on="0"/>
        <pt x="402" y="689" on="1"/>
        <pt x="260" y="689" on="0"/>
        <pt x="124" y="532" on="0"/>
        <pt x="124" y="369" on="1"/>
        <pt x="124" y="51" on="0"/>
        <pt x="389" y="51" on="1"/>
        <pt x="414" y="51" on="0"/>
        <pt x="488" y="59" on="0"/>
        <pt x="520" y="65" on="1"/>
        <pt x="520" y="376" on="1"/>
        <pt x="585" y="376" on="1"/>
        <pt x="585" y="21" on="1"/>
        <pt x="537" y="7" on="0"/>
        <pt x="431" y="-9" on="0"/>
      </contour>
    </TTGlyph>
    <TTGlyph name="Gacute.sc" xMin="54" yMin="-7" xMax="520" yMax="738">
      <contour>
        <pt x="345" y="-7" on="1"/>
        <pt x="54" y="-7" on="0"/>
        <pt x="54" y="287" on="1"/>
        <pt x="54" y="585" on="0"/>
        <pt x="354" y="585" on="1"/>
        <pt x="392" y="585" on="0"/>
        <pt x="473" y="575" on="0"/>
        <pt x="515" y="566" on="1"/>
        <pt x="515" y="509" on="1"/>
        <pt x="462" y="519" on="0"/>
        <pt x="393" y="528" on="0"/>
        <pt x="359" y="528" on="1"/>
        <pt x="238" y="528" on="0"/>
        <pt x="122" y="411" on="0"/>
        <pt x="122" y="288" on="1"/>
        <pt x="122" y="167" on="0"/>
        <pt x="232" y="50" on="0"/>
        <pt x="347" y="50" on="1"/>
        <pt x="357" y="50" on="0"/>
        <pt x="385" y="52" on="0"/>
        <pt x="416" y="55" on="0"/>
        <pt x="446" y="59" on="0"/>
        <pt x="458" y="62" on="1"/>
        <pt x="458" y="293" on="1"/>
        <pt x="520" y="293" on="1"/>
        <pt x="520" y="18" on="1"/>
        <pt x="478" y="7" on="0"/>
        <pt x="382" y="-7" on="0"/>
      </contour>
      <contour>
        <pt x="287" y="630" on="1"/>
        <pt x="351" y="738" on="1"/>
        <pt x="420" y="738" on="1"/>
        <pt x="338" y="625" on="1"/>
      </contour>
    </TTGlyph>
    <TTGlyph name="Gbreve" xMin="54" yMin="-9" xMax="585" yMax="957">
      <contour>
        <pt x="360" y="814" on="1"/>
        <pt x="275" y="814" on="0"/>
        <pt x="188" y="891" on="0"/>
        <pt x="188" y="957" on="1"/>
        <pt x="241" y="957" on="1"/>
        <pt x="241" y="911" on="0"/>
        <pt x="302" y="860" on="0"/>
        <pt x="360" y="860" on="1"/>
        <pt x="417" y="860" on="0"/>
        <pt x="478" y="911" on="0"/>
        <pt x="478" y="957" on="1"/>
        <pt x="532" y="957" on="1"/>
        <pt x="532" y="891" on="0"/>
        <pt x="445" y="814" on="0"/>
      </contour>
      <contour>
        <pt x="389" y="-9" on="1"/>
        <pt x="54" y="-7" on="0"/>
        <pt x="54" y="368" on="1"/>
        <pt x="54" y="750" on="0"/>
        <pt x="398" y="750" on="1"/>
        <pt x="440" y="750" on="0"/>
        <pt x="531" y="737" on="0"/>
        <pt x="579" y="725" on="1"/>
        <pt x="579" y="665" on="1"/>
        <pt x="549" y="672" on="0"/>
        <pt x="502" y="681" on="0"/>
        <pt x="460" y="687" on="0"/>
        <pt x="422" y="689" on="0"/>
        <pt x="402" y="689" on="1"/>
        <pt x="260" y="689" on="0"/>
        <pt x="124" y="532" on="0"/>
        <pt x="124" y="369" on="1"/>
        <pt x="124" y="51" on="0"/>
        <pt x="389" y="51" on="1"/>
        <pt x="414" y="51" on="0"/>
        <pt x="488" y="59" on="0"/>
        <pt x="520" y="65" on="1"/>
        <pt x="520" y="376" on="1"/>
        <pt x="585" y="376" on="1"/>
        <pt x="585" y="21" on="1"/>
        <pt x="537" y="7" on="0"/>
        <pt x="431" y="-9" on="0"/>
      </contour>
    </TTGlyph>
    <TTGlyph name="Gbreve.sc" xMin="54" yMin="-7" xMax="520" yMax="750">
      <contour>
        <pt x="345" y="-7" on="1"/>
        <pt x="54" y="-7" on="0"/>
        <pt x="54" y="287" on="1"/>
        <pt x="54" y="585" on="0"/>
        <pt x="354" y="585" on="1"/>
        <pt x="392" y="585" on="0"/>
        <pt x="473" y="575" on="0"/>
        <pt x="515" y="566" on="1"/>
        <pt x="515" y="509" on="1"/>
        <pt x="462" y="519" on="0"/>
        <pt x="393" y="528" on="0"/>
        <pt x="359" y="528" on="1"/>
        <pt x="238" y="528" on="0"/>
        <pt x="122" y="411" on="0"/>
        <pt x="122" y="288" on="1"/>
        <pt x="122" y="167" on="0"/>
        <pt x="232" y="50" on="0"/>
        <pt x="347" y="50" on="1"/>
        <pt x="357" y="50" on="0"/>
        <pt x="385" y="52" on="0"/>
        <pt x="416" y="55" on="0"/>
        <pt x="446" y="59" on="0"/>
        <pt x="458" y="62" on="1"/>
        <pt x="458" y="293" on="1"/>
        <pt x="520" y="293" on="1"/>
        <pt x="520" y="18" on="1"/>
        <pt x="478" y="7" on="0"/>
        <pt x="382" y="-7" on="0"/>
      </contour>
      <contour>
        <pt x="321" y="634" on="1"/>
        <pt x="245" y="634" on="0"/>
        <pt x="168" y="698" on="0"/>
        <pt x="168" y="750" on="1"/>
        <pt x="218" y="750" on="1"/>
        <pt x="218" y="714" on="0"/>
        <pt x="270" y="675" on="0"/>
        <pt x="321" y="675" on="1"/>
        <pt x="371" y="675" on="0"/>
        <pt x="422" y="714" on="0"/>
        <pt x="422" y="750" on="1"/>
        <pt x="473" y="750" on="1"/>
        <pt x="473" y="697" on="0"/>
        <pt x="396" y="634" on="0"/>
      </contour>
    </TTGlyph>
    <TTGlyph name="Gcircumflex" xMin="54" yMin="-9" xMax="585" yMax="947">
      <contour>
        <pt x="389" y="-9" on="1"/>
        <pt x="54" y="-7" on="0"/>
        <pt x="54" y="368" on="1"/>
        <pt x="54" y="750" on="0"/>
        <pt x="398" y="750" on="1"/>
        <pt x="440" y="750" on="0"/>
        <pt x="531" y="737" on="0"/>
        <pt x="579" y="725" on="1"/>
        <pt x="579" y="665" on="1"/>
        <pt x="549" y="672" on="0"/>
        <pt x="502" y="681" on="0"/>
        <pt x="460" y="687" on="0"/>
        <pt x="422" y="689" on="0"/>
        <pt x="402" y="689" on="1"/>
        <pt x="260" y="689" on="0"/>
        <pt x="124" y="532" on="0"/>
        <pt x="124" y="369" on="1"/>
        <pt x="124" y="51" on="0"/>
        <pt x="389" y="51" on="1"/>
        <pt x="414" y="51" on="0"/>
        <pt x="488" y="59" on="0"/>
        <pt x="520" y="65" on="1"/>
        <pt x="520" y="376" on="1"/>
        <pt x="585" y="376" on="1"/>
        <pt x="585" y="21" on="1"/>
        <pt x="537" y="7" on="0"/>
        <pt x="431" y="-9" on="0"/>
      </contour>
      <contour>
        <pt x="201" y="874" on="1"/>
        <pt x="358" y="947" on="1"/>
        <pt x="515" y="874" on="1"/>
        <pt x="515" y="814" on="1"/>
        <pt x="358" y="888" on="1"/>
        <pt x="201" y="814" on="1"/>
      </contour>
    </TTGlyph>
    <TTGlyph name="Gcircumflex.sc" xMin="54" yMin="-7" xMax="520" yMax="744">
      <contour>
        <pt x="345" y="-7" on="1"/>
        <pt x="54" y="-7" on="0"/>
        <pt x="54" y="287" on="1"/>
        <pt x="54" y="585" on="0"/>
        <pt x="354" y="585" on="1"/>
        <pt x="392" y="585" on="0"/>
        <pt x="473" y="575" on="0"/>
        <pt x="515" y="566" on="1"/>
        <pt x="515" y="509" on="1"/>
        <pt x="462" y="519" on="0"/>
        <pt x="393" y="528" on="0"/>
        <pt x="359" y="528" on="1"/>
        <pt x="238" y="528" on="0"/>
        <pt x="122" y="411" on="0"/>
        <pt x="122" y="288" on="1"/>
        <pt x="122" y="167" on="0"/>
        <pt x="232" y="50" on="0"/>
        <pt x="347" y="50" on="1"/>
        <pt x="357" y="50" on="0"/>
        <pt x="385" y="52" on="0"/>
        <pt x="416" y="55" on="0"/>
        <pt x="446" y="59" on="0"/>
        <pt x="458" y="62" on="1"/>
        <pt x="458" y="293" on="1"/>
        <pt x="520" y="293" on="1"/>
        <pt x="520" y="18" on="1"/>
        <pt x="478" y="7" on="0"/>
        <pt x="382" y="-7" on="0"/>
      </contour>
      <contour>
        <pt x="179" y="686" on="1"/>
        <pt x="318" y="744" on="1"/>
        <pt x="457" y="686" on="1"/>
        <pt x="457" y="634" on="1"/>
        <pt x="318" y="691" on="1"/>
        <pt x="179" y="634" on="1"/>
      </contour>
    </TTGlyph>
    <TTGlyph name="Gcommaaccent" xMin="54" yMin="-220" xMax="585" yMax="750">
      <contour>
        <pt x="334" y="-69" on="1"/>
        <pt x="404" y="-69" on="1"/>
        <pt x="342" y="-220" on="1"/>
        <pt x="285" y="-220" on="1"/>
      </contour>
      <contour>
        <pt x="389" y="-9" on="1"/>
        <pt x="54" y="-7" on="0"/>
        <pt x="54" y="368" on="1"/>
        <pt x="54" y="750" on="0"/>
        <pt x="398" y="750" on="1"/>
        <pt x="440" y="750" on="0"/>
        <pt x="531" y="737" on="0"/>
        <pt x="579" y="725" on="1"/>
        <pt x="579" y="665" on="1"/>
        <pt x="549" y="672" on="0"/>
        <pt x="502" y="681" on="0"/>
        <pt x="460" y="687" on="0"/>
        <pt x="422" y="689" on="0"/>
        <pt x="402" y="689" on="1"/>
        <pt x="260" y="689" on="0"/>
        <pt x="124" y="532" on="0"/>
        <pt x="124" y="369" on="1"/>
        <pt x="124" y="51" on="0"/>
        <pt x="389" y="51" on="1"/>
        <pt x="414" y="51" on="0"/>
        <pt x="488" y="59" on="0"/>
        <pt x="520" y="65" on="1"/>
        <pt x="520" y="376" on="1"/>
        <pt x="585" y="376" on="1"/>
        <pt x="585" y="21" on="1"/>
        <pt x="537" y="7" on="0"/>
        <pt x="431" y="-9" on="0"/>
      </contour>
    </TTGlyph>
    <TTGlyph name="Gcommaaccent.sc" xMin="54" yMin="-172" xMax="520" yMax="585">
      <contour>
        <pt x="345" y="-7" on="1"/>
        <pt x="54" y="-7" on="0"/>
        <pt x="54" y="287" on="1"/>
        <pt x="54" y="585" on="0"/>
        <pt x="354" y="585" on="1"/>
        <pt x="392" y="585" on="0"/>
        <pt x="473" y="575" on="0"/>
        <pt x="515" y="566" on="1"/>
        <pt x="515" y="509" on="1"/>
        <pt x="462" y="519" on="0"/>
        <pt x="393" y="528" on="0"/>
        <pt x="359" y="528" on="1"/>
        <pt x="238" y="528" on="0"/>
        <pt x="122" y="411" on="0"/>
        <pt x="122" y="288" on="1"/>
        <pt x="122" y="167" on="0"/>
        <pt x="232" y="50" on="0"/>
        <pt x="347" y="50" on="1"/>
        <pt x="357" y="50" on="0"/>
        <pt x="385" y="52" on="0"/>
        <pt x="416" y="55" on="0"/>
        <pt x="446" y="59" on="0"/>
        <pt x="458" y="62" on="1"/>
        <pt x="458" y="293" on="1"/>
        <pt x="520" y="293" on="1"/>
        <pt x="520" y="18" on="1"/>
        <pt x="478" y="7" on="0"/>
        <pt x="382" y="-7" on="0"/>
      </contour>
      <contour>
        <pt x="294" y="-54" on="1"/>
        <pt x="362" y="-54" on="1"/>
        <pt x="307" y="-172" on="1"/>
        <pt x="252" y="-172" on="1"/>
      </contour>
    </TTGlyph>
    <TTGlyph name="Gdotaccent" xMin="54" yMin="-9" xMax="585" yMax="909">
      <contour>
        <pt x="360" y="816" on="1"/>
        <pt x="313" y="816" on="0"/>
        <pt x="313" y="862" on="1"/>
        <pt x="313" y="909" on="0"/>
        <pt x="360" y="909" on="1"/>
        <pt x="382" y="909" on="0"/>
        <pt x="408" y="887" on="0"/>
        <pt x="408" y="862" on="1"/>
        <pt x="408" y="838" on="0"/>
        <pt x="382" y="816" on="0"/>
      </contour>
      <contour>
        <pt x="389" y="-9" on="1"/>
        <pt x="54" y="-7" on="0"/>
        <pt x="54" y="368" on="1"/>
        <pt x="54" y="750" on="0"/>
        <pt x="398" y="750" on="1"/>
        <pt x="440" y="750" on="0"/>
        <pt x="531" y="737" on="0"/>
        <pt x="579" y="725" on="1"/>
        <pt x="579" y="665" on="1"/>
        <pt x="549" y="672" on="0"/>
        <pt x="502" y="681" on="0"/>
        <pt x="460" y="687" on="0"/>
        <pt x="422" y="689" on="0"/>
        <pt x="402" y="689" on="1"/>
        <pt x="260" y="689" on="0"/>
        <pt x="124" y="532" on="0"/>
        <pt x="124" y="369" on="1"/>
        <pt x="124" y="51" on="0"/>
        <pt x="389" y="51" on="1"/>
        <pt x="414" y="51" on="0"/>
        <pt x="488" y="59" on="0"/>
        <pt x="520" y="65" on="1"/>
        <pt x="520" y="376" on="1"/>
        <pt x="585" y="376" on="1"/>
        <pt x="585" y="21" on="1"/>
        <pt x="537" y="7" on="0"/>
        <pt x="431" y="-9" on="0"/>
      </contour>
    </TTGlyph>
    <TTGlyph name="Gdotaccent.sc" xMin="54" yMin="-7" xMax="520" yMax="720">
      <contour>
        <pt x="345" y="-7" on="1"/>
        <pt x="54" y="-7" on="0"/>
        <pt x="54" y="287" on="1"/>
        <pt x="54" y="585" on="0"/>
        <pt x="354" y="585" on="1"/>
        <pt x="392" y="585" on="0"/>
        <pt x="473" y="575" on="0"/>
        <pt x="515" y="566" on="1"/>
        <pt x="515" y="509" on="1"/>
        <pt x="462" y="519" on="0"/>
        <pt x="393" y="528" on="0"/>
        <pt x="359" y="528" on="1"/>
        <pt x="238" y="528" on="0"/>
        <pt x="122" y="411" on="0"/>
        <pt x="122" y="288" on="1"/>
        <pt x="122" y="167" on="0"/>
        <pt x="232" y="50" on="0"/>
        <pt x="347" y="50" on="1"/>
        <pt x="357" y="50" on="0"/>
        <pt x="385" y="52" on="0"/>
        <pt x="416" y="55" on="0"/>
        <pt x="446" y="59" on="0"/>
        <pt x="458" y="62" on="1"/>
        <pt x="458" y="293" on="1"/>
        <pt x="520" y="293" on="1"/>
        <pt x="520" y="18" on="1"/>
        <pt x="478" y="7" on="0"/>
        <pt x="382" y="-7" on="0"/>
      </contour>
      <contour>
        <pt x="322" y="636" on="1"/>
        <pt x="301" y="636" on="0"/>
        <pt x="277" y="655" on="0"/>
        <pt x="277" y="678" on="1"/>
        <pt x="277" y="700" on="0"/>
        <pt x="301" y="720" on="0"/>
        <pt x="322" y="720" on="1"/>
        <pt x="342" y="720" on="0"/>
        <pt x="366" y="700" on="0"/>
        <pt x="366" y="678" on="1"/>
        <pt x="366" y="656" on="0"/>
        <pt x="342" y="636" on="0"/>
      </contour>
    </TTGlyph>
    <TTGlyph name="H" xMin="93" yMin="0" xMax="661" yMax="740">
      <contour>
        <pt x="93" y="740" on="1"/>
        <pt x="161" y="740" on="1"/>
        <pt x="161" y="408" on="1"/>
        <pt x="594" y="408" on="1"/>
        <pt x="594" y="740" on="1"/>
        <pt x="661" y="740" on="1"/>
        <pt x="661" y="0" on="1"/>
        <pt x="594" y="0" on="1"/>
        <pt x="594" y="350" on="1"/>
        <pt x="161" y="350" on="1"/>
        <pt x="161" y="0" on="1"/>
        <pt x="93" y="0" on="1"/>
      </contour>
    </TTGlyph>
    <TTGlyph name="H.sc" xMin="88" yMin="0" xMax="589" yMax="577">
      <contour>
        <pt x="88" y="577" on="1"/>
        <pt x="154" y="577" on="1"/>
        <pt x="154" y="323" on="1"/>
        <pt x="524" y="323" on="1"/>
        <pt x="524" y="577" on="1"/>
        <pt x="589" y="577" on="1"/>
        <pt x="589" y="0" on="1"/>
        <pt x="524" y="0" on="1"/>
        <pt x="524" y="269" on="1"/>
        <pt x="154" y="269" on="1"/>
        <pt x="154" y="0" on="1"/>
        <pt x="88" y="0" on="1"/>
      </contour>
    </TTGlyph>
    <TTGlyph name="Hbar" xMin="7" yMin="0" xMax="764" yMax="740">
      <contour>
        <pt x="7" y="591" on="1"/>
        <pt x="101" y="591" on="1"/>
        <pt x="101" y="740" on="1"/>
        <pt x="169" y="740" on="1"/>
        <pt x="169" y="591" on="1"/>
        <pt x="602" y="591" on="1"/>
        <pt x="602" y="740" on="1"/>
        <pt x="669" y="740" on="1"/>
        <pt x="669" y="591" on="1"/>
        <pt x="764" y="591" on="1"/>
        <pt x="764" y="547" on="1"/>
        <pt x="669" y="547" on="1"/>
        <pt x="669" y="0" on="1"/>
        <pt x="602" y="0" on="1"/>
        <pt x="602" y="350" on="1"/>
        <pt x="169" y="350" on="1"/>
        <pt x="169" y="0" on="1"/>
        <pt x="101" y="0" on="1"/>
        <pt x="101" y="547" on="1"/>
        <pt x="7" y="547" on="1"/>
      </contour>
      <contour>
        <pt x="602" y="408" on="1"/>
        <pt x="602" y="547" on="1"/>
        <pt x="169" y="547" on="1"/>
        <pt x="169" y="408" on="1"/>
      </contour>
    </TTGlyph>
    <TTGlyph name="Hbar.sc" xMin="15" yMin="0" xMax="676" yMax="577">
      <contour>
        <pt x="15" y="465" on="1"/>
        <pt x="95" y="465" on="1"/>
        <pt x="95" y="577" on="1"/>
        <pt x="160" y="577" on="1"/>
        <pt x="160" y="465" on="1"/>
        <pt x="530" y="465" on="1"/>
        <pt x="530" y="577" on="1"/>
        <pt x="595" y="577" on="1"/>
        <pt x="595" y="465" on="1"/>
        <pt x="676" y="465" on="1"/>
        <pt x="676" y="426" on="1"/>
        <pt x="595" y="426" on="1"/>
        <pt x="595" y="0" on="1"/>
        <pt x="530" y="0" on="1"/>
        <pt x="530" y="266" on="1"/>
        <pt x="160" y="266" on="1"/>
        <pt x="160" y="0" on="1"/>
        <pt x="95" y="0" on="1"/>
        <pt x="95" y="426" on="1"/>
        <pt x="15" y="426" on="1"/>
      </contour>
      <contour>
        <pt x="530" y="321" on="1"/>
        <pt x="530" y="426" on="1"/>
        <pt x="160" y="426" on="1"/>
        <pt x="160" y="321" on="1"/>
      </contour>
    </TTGlyph>
    <TTGlyph name="Hcircumflex" xMin="93" yMin="0" xMax="661" yMax="947">
      <contour>
        <pt x="93" y="740" on="1"/>
        <pt x="161" y="740" on="1"/>
        <pt x="161" y="408" on="1"/>
        <pt x="594" y="408" on="1"/>
        <pt x="594" y="740" on="1"/>
        <pt x="661" y="740" on="1"/>
        <pt x="661" y="0" on="1"/>
        <pt x="594" y="0" on="1"/>
        <pt x="594" y="350" on="1"/>
        <pt x="161" y="350" on="1"/>
        <pt x="161" y="0" on="1"/>
        <pt x="93" y="0" on="1"/>
      </contour>
      <contour>
        <pt x="213" y="874" on="1"/>
        <pt x="370" y="947" on="1"/>
        <pt x="527" y="874" on="1"/>
        <pt x="527" y="814" on="1"/>
        <pt x="370" y="888" on="1"/>
        <pt x="213" y="814" on="1"/>
      </contour>
    </TTGlyph>
    <TTGlyph name="Hcircumflex.sc" xMin="88" yMin="0" xMax="589" yMax="744">
      <contour>
        <pt x="88" y="577" on="1"/>
        <pt x="154" y="577" on="1"/>
        <pt x="154" y="323" on="1"/>
        <pt x="524" y="323" on="1"/>
        <pt x="524" y="577" on="1"/>
        <pt x="589" y="577" on="1"/>
        <pt x="589" y="0" on="1"/>
        <pt x="524" y="0" on="1"/>
        <pt x="524" y="269" on="1"/>
        <pt x="154" y="269" on="1"/>
        <pt x="154" y="0" on="1"/>
        <pt x="88" y="0" on="1"/>
      </contour>
      <contour>
        <pt x="194" y="686" on="1"/>
        <pt x="333" y="744" on="1"/>
        <pt x="472" y="686" on="1"/>
        <pt x="472" y="634" on="1"/>
        <pt x="333" y="691" on="1"/>
        <pt x="194" y="634" on="1"/>
      </contour>
    </TTGlyph>
    <TTGlyph name="Hdotbelow" xMin="93" yMin="-177" xMax="661" yMax="740">
      <contour>
        <pt x="93" y="740" on="1"/>
        <pt x="161" y="740" on="1"/>
        <pt x="161" y="408" on="1"/>
        <pt x="594" y="408" on="1"/>
        <pt x="594" y="740" on="1"/>
        <pt x="661" y="740" on="1"/>
        <pt x="661" y="0" on="1"/>
        <pt x="594" y="0" on="1"/>
        <pt x="594" y="350" on="1"/>
        <pt x="161" y="350" on="1"/>
        <pt x="161" y="0" on="1"/>
        <pt x="93" y="0" on="1"/>
      </contour>
      <contour>
        <pt x="386" y="-177" on="1"/>
        <pt x="364" y="-177" on="0"/>
        <pt x="341" y="-156" on="0"/>
        <pt x="341" y="-132" on="1"/>
        <pt x="341" y="-107" on="0"/>
        <pt x="364" y="-86" on="0"/>
        <pt x="386" y="-86" on="1"/>
        <pt x="408" y="-86" on="0"/>
        <pt x="432" y="-107" on="0"/>
        <pt x="432" y="-132" on="1"/>
        <pt x="432" y="-156" on="0"/>
        <pt x="408" y="-177" on="0"/>
      </contour>
    </TTGlyph>
    <TTGlyph name="Hdotbelow.sc" xMin="88" yMin="-142" xMax="589" yMax="577">
      <contour>
        <pt x="88" y="577" on="1"/>
        <pt x="154" y="577" on="1"/>
        <pt x="154" y="323" on="1"/>
        <pt x="524" y="323" on="1"/>
        <pt x="524" y="577" on="1"/>
        <pt x="589" y="577" on="1"/>
        <pt x="589" y="0" on="1"/>
        <pt x="524" y="0" on="1"/>
        <pt x="524" y="269" on="1"/>
        <pt x="154" y="269" on="1"/>
        <pt x="154" y="0" on="1"/>
        <pt x="88" y="0" on="1"/>
      </contour>
      <contour>
        <pt x="346" y="-142" on="1"/>
        <pt x="305" y="-142" on="0"/>
        <pt x="305" y="-103" on="1"/>
        <pt x="305" y="-64" on="0"/>
        <pt x="346" y="-64" on="1"/>
        <pt x="366" y="-64" on="0"/>
        <pt x="388" y="-83" on="0"/>
        <pt x="388" y="-103" on="1"/>
        <pt x="388" y="-124" on="0"/>
        <pt x="366" y="-142" on="0"/>
      </contour>
    </TTGlyph>
    <TTGlyph name="I" xMin="93" yMin="0" xMax="161" yMax="740">
      <contour>
        <pt x="93" y="740" on="1"/>
        <pt x="161" y="740" on="1"/>
        <pt x="161" y="0" on="1"/>
        <pt x="93" y="0" on="1"/>
      </contour>
    </TTGlyph>
    <TTGlyph name="I.sc" xMin="88" yMin="0" xMax="154" yMax="577">
      <contour>
        <pt x="88" y="577" on="1"/>
        <pt x="154" y="577" on="1"/>
        <pt x="154" y="0" on="1"/>
        <pt x="88" y="0" on="1"/>
      </contour>
    </TTGlyph>
    <TTGlyph name="IJ" xMin="93" yMin="-184" xMax="417" yMax="740">
      <contour>
        <pt x="93" y="740" on="1"/>
        <pt x="161" y="740" on="1"/>
        <pt x="161" y="0" on="1"/>
        <pt x="93" y="0" on="1"/>
      </contour>
      <contour>
        <pt x="270" y="-160" on="1"/>
        <pt x="293" y="-112" on="0"/>
        <pt x="323" y="-30" on="0"/>
        <pt x="341" y="49" on="0"/>
        <pt x="349" y="133" on="0"/>
        <pt x="349" y="184" on="1"/>
        <pt x="349" y="740" on="1"/>
        <pt x="417" y="740" on="1"/>
        <pt x="417" y="180" on="1"/>
        <pt x="417" y="131" on="0"/>
        <pt x="407" y="46" on="0"/>
        <pt x="383" y="-39" on="0"/>
        <pt x="345" y="-130" on="0"/>
        <pt x="317" y="-184" on="1"/>
      </contour>
    </TTGlyph>
    <TTGlyph name="Iacute" xMin="93" yMin="0" xMax="242" yMax="939">
      <contour>
        <pt x="93" y="740" on="1"/>
        <pt x="161" y="740" on="1"/>
        <pt x="161" y="0" on="1"/>
        <pt x="93" y="0" on="1"/>
      </contour>
      <contour>
        <pt x="95" y="806" on="1"/>
        <pt x="171" y="939" on="1"/>
        <pt x="242" y="939" on="1"/>
        <pt x="149" y="800" on="1"/>
      </contour>
    </TTGlyph>
    <TTGlyph name="Iacute.sc" xMin="88" yMin="0" xMax="224" yMax="738">
      <contour>
        <pt x="88" y="577" on="1"/>
        <pt x="154" y="577" on="1"/>
        <pt x="154" y="0" on="1"/>
        <pt x="88" y="0" on="1"/>
      </contour>
      <contour>
        <pt x="91" y="630" on="1"/>
        <pt x="156" y="738" on="1"/>
        <pt x="224" y="738" on="1"/>
        <pt x="143" y="625" on="1"/>
      </contour>
    </TTGlyph>
    <TTGlyph name="Ibreve" xMin="-44" yMin="0" xMax="300" yMax="957">
      <contour>
        <pt x="93" y="740" on="1"/>
        <pt x="161" y="740" on="1"/>
        <pt x="161" y="0" on="1"/>
        <pt x="93" y="0" on="1"/>
      </contour>
      <contour>
        <pt x="128" y="814" on="1"/>
        <pt x="43" y="814" on="0"/>
        <pt x="-44" y="891" on="0"/>
        <pt x="-44" y="957" on="1"/>
        <pt x="9" y="957" on="1"/>
        <pt x="9" y="911" on="0"/>
        <pt x="70" y="860" on="0"/>
        <pt x="128" y="860" on="1"/>
        <pt x="185" y="860" on="0"/>
        <pt x="246" y="911" on="0"/>
        <pt x="246" y="957" on="1"/>
        <pt x="300" y="957" on="1"/>
        <pt x="300" y="891" on="0"/>
        <pt x="213" y="814" on="0"/>
      </contour>
    </TTGlyph>
    <TTGlyph name="Ibreve.sc" xMin="-31" yMin="0" xMax="274" yMax="750">
      <contour>
        <pt x="88" y="577" on="1"/>
        <pt x="154" y="577" on="1"/>
        <pt x="154" y="0" on="1"/>
        <pt x="88" y="0" on="1"/>
      </contour>
      <contour>
        <pt x="122" y="634" on="1"/>
        <pt x="46" y="634" on="0"/>
        <pt x="-31" y="698" on="0"/>
        <pt x="-31" y="750" on="1"/>
        <pt x="19" y="750" on="1"/>
        <pt x="19" y="714" on="0"/>
        <pt x="71" y="675" on="0"/>
        <pt x="122" y="675" on="1"/>
        <pt x="172" y="675" on="0"/>
        <pt x="224" y="714" on="0"/>
        <pt x="224" y="750" on="1"/>
        <pt x="274" y="750" on="1"/>
        <pt x="274" y="697" on="0"/>
        <pt x="197" y="634" on="0"/>
      </contour>
    </TTGlyph>
    <TTGlyph name="Icircumflex" xMin="-29" yMin="0" xMax="285" yMax="947">
      <contour>
        <pt x="93" y="740" on="1"/>
        <pt x="161" y="740" on="1"/>
        <pt x="161" y="0" on="1"/>
        <pt x="93" y="0" on="1"/>
      </contour>
      <contour>
        <pt x="-29" y="874" on="1"/>
        <pt x="128" y="947" on="1"/>
        <pt x="285" y="874" on="1"/>
        <pt x="285" y="814" on="1"/>
        <pt x="128" y="888" on="1"/>
        <pt x="-29" y="814" on="1"/>
      </contour>
    </TTGlyph>
    <TTGlyph name="Icircumflex.sc" xMin="-17" yMin="0" xMax="261" yMax="744">
      <contour>
        <pt x="88" y="577" on="1"/>
        <pt x="154" y="577" on="1"/>
        <pt x="154" y="0" on="1"/>
        <pt x="88" y="0" on="1"/>
      </contour>
      <contour>
        <pt x="-17" y="686" on="1"/>
        <pt x="122" y="744" on="1"/>
        <pt x="261" y="686" on="1"/>
        <pt x="261" y="634" on="1"/>
        <pt x="123" y="691" on="1"/>
        <pt x="-17" y="634" on="1"/>
      </contour>
    </TTGlyph>
    <TTGlyph name="Idblgrave" xMin="-60" yMin="0" xMax="232" yMax="932">
      <contour>
        <pt x="93" y="740" on="1"/>
        <pt x="161" y="740" on="1"/>
        <pt x="161" y="0" on="1"/>
        <pt x="93" y="0" on="1"/>
      </contour>
      <contour>
        <pt x="33" y="794" on="1"/>
        <pt x="-60" y="932" on="1"/>
        <pt x="9" y="932" on="1"/>
        <pt x="85" y="807" on="1"/>
      </contour>
      <contour>
        <pt x="180" y="794" on="1"/>
        <pt x="87" y="932" on="1"/>
        <pt x="156" y="932" on="1"/>
        <pt x="232" y="807" on="1"/>
      </contour>
    </TTGlyph>
    <TTGlyph name="Idblgrave.sc" xMin="-46" yMin="0" xMax="216" yMax="734">
      <contour>
        <pt x="88" y="577" on="1"/>
        <pt x="154" y="577" on="1"/>
        <pt x="154" y="0" on="1"/>
        <pt x="88" y="0" on="1"/>
      </contour>
      <contour>
        <pt x="36" y="620" on="1"/>
        <pt x="-46" y="734" on="1"/>
        <pt x="20" y="734" on="1"/>
        <pt x="85" y="630" on="1"/>
      </contour>
      <contour>
        <pt x="167" y="620" on="1"/>
        <pt x="85" y="734" on="1"/>
        <pt x="151" y="734" on="1"/>
        <pt x="216" y="630" on="1"/>
      </contour>
    </TTGlyph>
    <TTGlyph name="Idieresis" xMin="-45" yMin="0" xMax="303" yMax="916">
      <contour>
        <pt x="93" y="740" on="1"/>
        <pt x="161" y="740" on="1"/>
        <pt x="161" y="0" on="1"/>
        <pt x="93" y="0" on="1"/>
      </contour>
      <contour>
        <pt x="2" y="823" on="1"/>
        <pt x="-45" y="823" on="0"/>
        <pt x="-45" y="870" on="1"/>
        <pt x="-45" y="916" on="0"/>
        <pt x="2" y="916" on="1"/>
        <pt x="24" y="916" on="0"/>
        <pt x="50" y="894" on="0"/>
        <pt x="50" y="870" on="1"/>
        <pt x="50" y="845" on="0"/>
        <pt x="24" y="823" on="0"/>
      </contour>
      <contour>
        <pt x="255" y="823" on="1"/>
        <pt x="208" y="823" on="0"/>
        <pt x="208" y="870" on="1"/>
        <pt x="208" y="916" on="0"/>
        <pt x="255" y="916" on="1"/>
        <pt x="277" y="916" on="0"/>
        <pt x="303" y="894" on="0"/>
        <pt x="303" y="870" on="1"/>
        <pt x="303" y="845" on="0"/>
        <pt x="277" y="823" on="0"/>
      </contour>
    </TTGlyph>
    <TTGlyph name="Idieresis.sc" xMin="-33" yMin="0" xMax="278" yMax="724">
      <contour>
        <pt x="88" y="577" on="1"/>
        <pt x="154" y="577" on="1"/>
        <pt x="154" y="0" on="1"/>
        <pt x="88" y="0" on="1"/>
      </contour>
      <contour>
        <pt x="11" y="641" on="1"/>
        <pt x="-33" y="641" on="0"/>
        <pt x="-33" y="682" on="1"/>
        <pt x="-33" y="724" on="0"/>
        <pt x="11" y="724" on="1"/>
        <pt x="31" y="724" on="0"/>
        <pt x="55" y="704" on="0"/>
        <pt x="55" y="682" on="1"/>
        <pt x="55" y="660" on="0"/>
        <pt x="31" y="641" on="0"/>
      </contour>
      <contour>
        <pt x="234" y="641" on="1"/>
        <pt x="190" y="641" on="0"/>
        <pt x="190" y="682" on="1"/>
        <pt x="190" y="724" on="0"/>
        <pt x="234" y="724" on="1"/>
        <pt x="254" y="724" on="0"/>
        <pt x="278" y="704" on="0"/>
        <pt x="278" y="682" on="1"/>
        <pt x="278" y="660" on="0"/>
        <pt x="254" y="641" on="0"/>
      </contour>
    </TTGlyph>
    <TTGlyph name="Idotaccent" xMin="81" yMin="0" xMax="176" yMax="909">
      <contour>
        <pt x="93" y="740" on="1"/>
        <pt x="161" y="740" on="1"/>
        <pt x="161" y="0" on="1"/>
        <pt x="93" y="0" on="1"/>
      </contour>
      <contour>
        <pt x="128" y="816" on="1"/>
        <pt x="81" y="816" on="0"/>
        <pt x="81" y="862" on="1"/>
        <pt x="81" y="909" on="0"/>
        <pt x="128" y="909" on="1"/>
        <pt x="150" y="909" on="0"/>
        <pt x="176" y="887" on="0"/>
        <pt x="176" y="862" on="1"/>
        <pt x="176" y="838" on="0"/>
        <pt x="150" y="816" on="0"/>
      </contour>
    </TTGlyph>
    <TTGlyph name="Idotaccent.sc" xMin="78" yMin="0" xMax="166" yMax="720">
      <contour>
        <pt x="88" y="577" on="1"/>
        <pt x="154" y="577" on="1"/>
        <pt x="154" y="0" on="1"/>
        <pt x="88" y="0" on="1"/>
      </contour>
      <contour>
        <pt x="122" y="636" on="1"/>
        <pt x="100" y="636" on="0"/>
        <pt x="78" y="655" on="0"/>
        <pt x="78" y="678" on="1"/>
        <pt x="78" y="720" on="0"/>
        <pt x="122" y="720" on="1"/>
        <pt x="166" y="720" on="0"/>
        <pt x="166" y="678" on="1"/>
        <pt x="166" y="636" on="0"/>
      </contour>
    </TTGlyph>
    <TTGlyph name="Idotbelow" xMin="83" yMin="-177" xMax="174" yMax="740">
      <contour>
        <pt x="93" y="740" on="1"/>
        <pt x="161" y="740" on="1"/>
        <pt x="161" y="0" on="1"/>
        <pt x="93" y="0" on="1"/>
      </contour>
      <contour>
        <pt x="128" y="-177" on="1"/>
        <pt x="106" y="-177" on="0"/>
        <pt x="83" y="-156" on="0"/>
        <pt x="83" y="-132" on="1"/>
        <pt x="83" y="-107" on="0"/>
        <pt x="106" y="-86" on="0"/>
        <pt x="128" y="-86" on="1"/>
        <pt x="150" y="-86" on="0"/>
        <pt x="174" y="-107" on="0"/>
        <pt x="174" y="-132" on="1"/>
        <pt x="174" y="-156" on="0"/>
        <pt x="150" y="-177" on="0"/>
      </contour>
    </TTGlyph>
    <TTGlyph name="Idotbelow.sc" xMin="81" yMin="-142" xMax="164" yMax="577">
      <contour>
        <pt x="88" y="577" on="1"/>
        <pt x="154" y="577" on="1"/>
        <pt x="154" y="0" on="1"/>
        <pt x="88" y="0" on="1"/>
      </contour>
      <contour>
        <pt x="122" y="-142" on="1"/>
        <pt x="81" y="-142" on="0"/>
        <pt x="81" y="-103" on="1"/>
        <pt x="81" y="-64" on="0"/>
        <pt x="122" y="-64" on="1"/>
        <pt x="142" y="-64" on="0"/>
        <pt x="164" y="-83" on="0"/>
        <pt x="164" y="-103" on="1"/>
        <pt x="164" y="-124" on="0"/>
        <pt x="142" y="-142" on="0"/>
      </contour>
    </TTGlyph>
    <TTGlyph name="Igrave" xMin="13" yMin="0" xMax="161" yMax="939">
      <contour>
        <pt x="93" y="740" on="1"/>
        <pt x="161" y="740" on="1"/>
        <pt x="161" y="0" on="1"/>
        <pt x="93" y="0" on="1"/>
      </contour>
      <contour>
        <pt x="106" y="800" on="1"/>
        <pt x="13" y="939" on="1"/>
        <pt x="84" y="939" on="1"/>
        <pt x="160" y="813" on="1"/>
      </contour>
    </TTGlyph>
    <TTGlyph name="Igrave.sc" xMin="19" yMin="0" xMax="154" yMax="738">
      <contour>
        <pt x="88" y="577" on="1"/>
        <pt x="154" y="577" on="1"/>
        <pt x="154" y="0" on="1"/>
        <pt x="88" y="0" on="1"/>
      </contour>
      <contour>
        <pt x="101" y="625" on="1"/>
        <pt x="19" y="738" on="1"/>
        <pt x="87" y="738" on="1"/>
        <pt x="152" y="635" on="1"/>
      </contour>
    </TTGlyph>
    <TTGlyph name="Iinvertedbreve" xMin="-44" yMin="0" xMax="300" yMax="961">
      <contour>
        <pt x="93" y="740" on="1"/>
        <pt x="161" y="740" on="1"/>
        <pt x="161" y="0" on="1"/>
        <pt x="93" y="0" on="1"/>
      </contour>
      <contour>
        <pt x="247" y="818" on="1"/>
        <pt x="247" y="864" on="0"/>
        <pt x="186" y="915" on="0"/>
        <pt x="128" y="915" on="1"/>
        <pt x="71" y="915" on="0"/>
        <pt x="9" y="864" on="0"/>
        <pt x="9" y="818" on="1"/>
        <pt x="-44" y="818" on="1"/>
        <pt x="-44" y="884" on="0"/>
        <pt x="43" y="961" on="0"/>
        <pt x="128" y="961" on="1"/>
        <pt x="213" y="961" on="0"/>
        <pt x="300" y="884" on="0"/>
        <pt x="300" y="818" on="1"/>
      </contour>
    </TTGlyph>
    <TTGlyph name="Iinvertedbreve.sc" xMin="-31" yMin="0" xMax="275" yMax="754">
      <contour>
        <pt x="88" y="577" on="1"/>
        <pt x="154" y="577" on="1"/>
        <pt x="154" y="0" on="1"/>
        <pt x="88" y="0" on="1"/>
      </contour>
      <contour>
        <pt x="224" y="638" on="1"/>
        <pt x="224" y="673" on="0"/>
        <pt x="173" y="712" on="0"/>
        <pt x="122" y="712" on="1"/>
        <pt x="71" y="712" on="0"/>
        <pt x="20" y="673" on="0"/>
        <pt x="20" y="638" on="1"/>
        <pt x="-31" y="638" on="1"/>
        <pt x="-31" y="690" on="0"/>
        <pt x="46" y="754" on="0"/>
        <pt x="122" y="754" on="1"/>
        <pt x="198" y="754" on="0"/>
        <pt x="275" y="691" on="0"/>
        <pt x="275" y="638" on="1"/>
      </contour>
    </TTGlyph>
    <TTGlyph name="Imacron" xMin="-24" yMin="0" xMax="279" yMax="895">
      <contour>
        <pt x="93" y="740" on="1"/>
        <pt x="161" y="740" on="1"/>
        <pt x="161" y="0" on="1"/>
        <pt x="93" y="0" on="1"/>
      </contour>
      <contour>
        <pt x="-24" y="895" on="1"/>
        <pt x="279" y="895" on="1"/>
        <pt x="279" y="842" on="1"/>
        <pt x="-24" y="842" on="1"/>
      </contour>
    </TTGlyph>
    <TTGlyph name="Imacron.sc" xMin="-14" yMin="0" xMax="257" yMax="705">
      <contour>
        <pt x="88" y="577" on="1"/>
        <pt x="154" y="577" on="1"/>
        <pt x="154" y="0" on="1"/>
        <pt x="88" y="0" on="1"/>
      </contour>
      <contour>
        <pt x="-14" y="705" on="1"/>
        <pt x="257" y="705" on="1"/>
        <pt x="257" y="657" on="1"/>
        <pt x="-14" y="657" on="1"/>
      </contour>
    </TTGlyph>
    <TTGlyph name="Iogonek" xMin="-6" yMin="-220" xMax="161" yMax="740">
      <contour>
        <pt x="93" y="740" on="1"/>
        <pt x="161" y="740" on="1"/>
        <pt x="161" y="-20" on="1"/>
        <pt x="100" y="-49" on="0"/>
        <pt x="45" y="-105" on="0"/>
        <pt x="45" y="-136" on="1"/>
        <pt x="45" y="-175" on="0"/>
        <pt x="94" y="-175" on="1"/>
        <pt x="125" y="-175" on="0"/>
        <pt x="160" y="-164" on="1"/>
        <pt x="160" y="-208" on="1"/>
        <pt x="146" y="-214" on="0"/>
        <pt x="109" y="-220" on="0"/>
        <pt x="90" y="-220" on="1"/>
        <pt x="-6" y="-220" on="0"/>
        <pt x="-6" y="-139" on="1"/>
        <pt x="-6" y="-120" on="0"/>
        <pt x="6" y="-85" on="0"/>
        <pt x="33" y="-52" on="0"/>
        <pt x="75" y="-18" on="0"/>
        <pt x="106" y="0" on="1"/>
        <pt x="93" y="0" on="1"/>
      </contour>
    </TTGlyph>
    <TTGlyph name="Iogonek.sc" xMin="4" yMin="-172" xMax="154" yMax="577">
      <contour>
        <pt x="88" y="577" on="1"/>
        <pt x="154" y="577" on="1"/>
        <pt x="154" y="-14" on="1"/>
        <pt x="103" y="-34" on="0"/>
        <pt x="53" y="-76" on="0"/>
        <pt x="53" y="-102" on="1"/>
        <pt x="53" y="-119" on="0"/>
        <pt x="74" y="-131" on="0"/>
        <pt x="94" y="-131" on="1"/>
        <pt x="108" y="-131" on="0"/>
        <pt x="139" y="-126" on="0"/>
        <pt x="153" y="-122" on="1"/>
        <pt x="153" y="-162" on="1"/>
        <pt x="139" y="-167" on="0"/>
        <pt x="106" y="-172" on="0"/>
        <pt x="89" y="-172" on="1"/>
        <pt x="4" y="-172" on="0"/>
        <pt x="4" y="-108" on="1"/>
        <pt x="4" y="-77" on="0"/>
        <pt x="44" y="-30" on="0"/>
        <pt x="97" y="0" on="1"/>
        <pt x="88" y="0" on="1"/>
      </contour>
    </TTGlyph>
    <TTGlyph name="Itilde" xMin="-59" yMin="0" xMax="333" yMax="926">
      <contour>
        <pt x="93" y="740" on="1"/>
        <pt x="161" y="740" on="1"/>
        <pt x="161" y="0" on="1"/>
        <pt x="93" y="0" on="1"/>
      </contour>
      <contour>
        <pt x="-59" y="862" on="1"/>
        <pt x="-33" y="893" on="0"/>
        <pt x="29" y="926" on="0"/>
        <pt x="60" y="926" on="1"/>
        <pt x="83" y="926" on="0"/>
        <pt x="123" y="913" on="0"/>
        <pt x="161" y="897" on="0"/>
        <pt x="200" y="884" on="0"/>
        <pt x="221" y="884" on="1"/>
        <pt x="267" y="884" on="0"/>
        <pt x="309" y="923" on="1"/>
        <pt x="333" y="897" on="1"/>
        <pt x="309" y="866" on="0"/>
        <pt x="244" y="832" on="0"/>
        <pt x="211" y="832" on="1"/>
        <pt x="190" y="832" on="0"/>
        <pt x="150" y="845" on="0"/>
        <pt x="111" y="860" on="0"/>
        <pt x="72" y="873" on="0"/>
        <pt x="52" y="873" on="1"/>
        <pt x="30" y="873" on="0"/>
        <pt x="-13" y="856" on="0"/>
        <pt x="-35" y="836" on="1"/>
      </contour>
    </TTGlyph>
    <TTGlyph name="Itilde.sc" xMin="-44" yMin="0" xMax="303" yMax="729">
      <contour>
        <pt x="88" y="577" on="1"/>
        <pt x="154" y="577" on="1"/>
        <pt x="154" y="0" on="1"/>
        <pt x="88" y="0" on="1"/>
      </contour>
      <contour>
        <pt x="-44" y="672" on="1"/>
        <pt x="5" y="729" on="0"/>
        <pt x="62" y="729" on="1"/>
        <pt x="82" y="729" on="0"/>
        <pt x="118" y="719" on="0"/>
        <pt x="152" y="707" on="0"/>
        <pt x="186" y="697" on="0"/>
        <pt x="205" y="697" on="1"/>
        <pt x="244" y="697" on="0"/>
        <pt x="282" y="726" on="1"/>
        <pt x="303" y="706" on="1"/>
        <pt x="281" y="678" on="0"/>
        <pt x="223" y="649" on="0"/>
        <pt x="194" y="649" on="1"/>
        <pt x="175" y="649" on="0"/>
        <pt x="140" y="659" on="0"/>
        <pt x="105" y="671" on="0"/>
        <pt x="70" y="681" on="0"/>
        <pt x="52" y="681" on="1"/>
        <pt x="13" y="681" on="0"/>
        <pt x="-24" y="651" on="1"/>
      </contour>
    </TTGlyph>
    <TTGlyph name="J" xMin="16" yMin="-184" xMax="163" yMax="740">
      <contour>
        <pt x="16" y="-160" on="1"/>
        <pt x="39" y="-112" on="0"/>
        <pt x="69" y="-30" on="0"/>
        <pt x="87" y="49" on="0"/>
        <pt x="95" y="133" on="0"/>
        <pt x="95" y="184" on="1"/>
        <pt x="95" y="740" on="1"/>
        <pt x="163" y="740" on="1"/>
        <pt x="163" y="180" on="1"/>
        <pt x="163" y="131" on="0"/>
        <pt x="153" y="46" on="0"/>
        <pt x="129" y="-39" on="0"/>
        <pt x="91" y="-130" on="0"/>
        <pt x="63" y="-184" on="1"/>
      </contour>
    </TTGlyph>
    <TTGlyph name="J.sc" xMin="22" yMin="-146" xMax="156" yMax="577">
      <contour>
        <pt x="22" y="-124" on="1"/>
        <pt x="42" y="-87" on="0"/>
        <pt x="68" y="-23" on="0"/>
        <pt x="84" y="39" on="0"/>
        <pt x="90" y="105" on="0"/>
        <pt x="90" y="144" on="1"/>
        <pt x="90" y="577" on="1"/>
        <pt x="156" y="577" on="1"/>
        <pt x="156" y="141" on="1"/>
        <pt x="156" y="102" on="0"/>
        <pt x="147" y="35" on="0"/>
        <pt x="127" y="-32" on="0"/>
        <pt x="93" y="-103" on="0"/>
        <pt x="68" y="-146" on="1"/>
      </contour>
    </TTGlyph>
    <TTGlyph name="Jcircumflex" xMin="-27" yMin="-184" xMax="287" yMax="947">
      <contour>
        <pt x="16" y="-160" on="1"/>
        <pt x="39" y="-112" on="0"/>
        <pt x="69" y="-30" on="0"/>
        <pt x="87" y="49" on="0"/>
        <pt x="95" y="133" on="0"/>
        <pt x="95" y="184" on="1"/>
        <pt x="95" y="740" on="1"/>
        <pt x="163" y="740" on="1"/>
        <pt x="163" y="180" on="1"/>
        <pt x="163" y="131" on="0"/>
        <pt x="153" y="46" on="0"/>
        <pt x="129" y="-39" on="0"/>
        <pt x="91" y="-130" on="0"/>
        <pt x="63" y="-184" on="1"/>
      </contour>
      <contour>
        <pt x="-27" y="874" on="1"/>
        <pt x="130" y="947" on="1"/>
        <pt x="287" y="874" on="1"/>
        <pt x="287" y="814" on="1"/>
        <pt x="130" y="888" on="1"/>
        <pt x="-27" y="814" on="1"/>
      </contour>
    </TTGlyph>
    <TTGlyph name="Jcircumflex.sc" xMin="-15" yMin="-146" xMax="263" yMax="744">
      <contour>
        <pt x="22" y="-124" on="1"/>
        <pt x="41" y="-87" on="0"/>
        <pt x="67" y="-23" on="0"/>
        <pt x="83" y="39" on="0"/>
        <pt x="89" y="105" on="0"/>
        <pt x="89" y="144" on="1"/>
        <pt x="89" y="577" on="1"/>
        <pt x="155" y="577" on="1"/>
        <pt x="155" y="141" on="1"/>
        <pt x="155" y="102" on="0"/>
        <pt x="146" y="35" on="0"/>
        <pt x="126" y="-32" on="0"/>
        <pt x="92" y="-103" on="0"/>
        <pt x="67" y="-146" on="1"/>
      </contour>
      <contour>
        <pt x="-15" y="686" on="1"/>
        <pt x="123" y="744" on="1"/>
        <pt x="263" y="686" on="1"/>
        <pt x="263" y="634" on="1"/>
        <pt x="124" y="691" on="1"/>
        <pt x="-15" y="634" on="1"/>
      </contour>
    </TTGlyph>
    <TTGlyph name="K" xMin="93" yMin="0" xMax="645" yMax="740">
      <contour>
        <pt x="93" y="740" on="1"/>
        <pt x="161" y="740" on="1"/>
        <pt x="161" y="407" on="1"/>
        <pt x="311" y="407" on="1"/>
        <pt x="548" y="740" on="1"/>
        <pt x="627" y="740" on="1"/>
        <pt x="389" y="408" on="1"/>
        <pt x="360" y="383" on="1"/>
        <pt x="360" y="377" on="1"/>
        <pt x="392" y="353" on="1"/>
        <pt x="645" y="0" on="1"/>
        <pt x="566" y="0" on="1"/>
        <pt x="318" y="348" on="1"/>
        <pt x="161" y="348" on="1"/>
        <pt x="161" y="0" on="1"/>
        <pt x="93" y="0" on="1"/>
      </contour>
    </TTGlyph>
    <TTGlyph name="K.sc" xMin="88" yMin="0" xMax="574" yMax="577">
      <contour>
        <pt x="88" y="577" on="1"/>
        <pt x="154" y="577" on="1"/>
        <pt x="154" y="321" on="1"/>
        <pt x="283" y="321" on="1"/>
        <pt x="482" y="577" on="1"/>
        <pt x="559" y="577" on="1"/>
        <pt x="357" y="319" on="1"/>
        <pt x="330" y="300" on="1"/>
        <pt x="330" y="295" on="1"/>
        <pt x="359" y="276" on="1"/>
        <pt x="574" y="0" on="1"/>
        <pt x="498" y="0" on="1"/>
        <pt x="289" y="266" on="1"/>
        <pt x="154" y="266" on="1"/>
        <pt x="154" y="0" on="1"/>
        <pt x="88" y="0" on="1"/>
      </contour>
    </TTGlyph>
    <TTGlyph name="Kcommaaccent" xMin="93" yMin="-220" xMax="645" yMax="740">
      <contour>
        <pt x="308" y="-69" on="1"/>
        <pt x="378" y="-69" on="1"/>
        <pt x="316" y="-220" on="1"/>
        <pt x="259" y="-220" on="1"/>
      </contour>
      <contour>
        <pt x="93" y="740" on="1"/>
        <pt x="161" y="740" on="1"/>
        <pt x="161" y="407" on="1"/>
        <pt x="311" y="407" on="1"/>
        <pt x="548" y="740" on="1"/>
        <pt x="627" y="740" on="1"/>
        <pt x="389" y="408" on="1"/>
        <pt x="360" y="383" on="1"/>
        <pt x="360" y="377" on="1"/>
        <pt x="392" y="353" on="1"/>
        <pt x="645" y="0" on="1"/>
        <pt x="566" y="0" on="1"/>
        <pt x="318" y="348" on="1"/>
        <pt x="161" y="348" on="1"/>
        <pt x="161" y="0" on="1"/>
        <pt x="93" y="0" on="1"/>
      </contour>
    </TTGlyph>
    <TTGlyph name="Kcommaaccent.sc" xMin="88" yMin="-172" xMax="574" yMax="577">
      <contour>
        <pt x="88" y="577" on="1"/>
        <pt x="154" y="577" on="1"/>
        <pt x="154" y="321" on="1"/>
        <pt x="283" y="321" on="1"/>
        <pt x="482" y="577" on="1"/>
        <pt x="559" y="577" on="1"/>
        <pt x="357" y="319" on="1"/>
        <pt x="330" y="300" on="1"/>
        <pt x="330" y="295" on="1"/>
        <pt x="359" y="276" on="1"/>
        <pt x="574" y="0" on="1"/>
        <pt x="498" y="0" on="1"/>
        <pt x="289" y="266" on="1"/>
        <pt x="154" y="266" on="1"/>
        <pt x="154" y="0" on="1"/>
        <pt x="88" y="0" on="1"/>
      </contour>
      <contour>
        <pt x="279" y="-54" on="1"/>
        <pt x="348" y="-54" on="1"/>
        <pt x="293" y="-172" on="1"/>
        <pt x="238" y="-172" on="1"/>
      </contour>
    </TTGlyph>
    <TTGlyph name="L" xMin="93" yMin="0" xMax="504" yMax="740">
      <contour>
        <pt x="93" y="740" on="1"/>
        <pt x="161" y="740" on="1"/>
        <pt x="161" y="58" on="1"/>
        <pt x="504" y="58" on="1"/>
        <pt x="504" y="0" on="1"/>
        <pt x="93" y="0" on="1"/>
      </contour>
    </TTGlyph>
    <TTGlyph name="L.sc" xMin="88" yMin="0" xMax="452" yMax="577">
      <contour>
        <pt x="88" y="577" on="1"/>
        <pt x="154" y="577" on="1"/>
        <pt x="154" y="55" on="1"/>
        <pt x="452" y="55" on="1"/>
        <pt x="452" y="0" on="1"/>
        <pt x="88" y="0" on="1"/>
      </contour>
    </TTGlyph>
    <TTGlyph name="Lacute" xMin="93" yMin="0" xMax="504" yMax="939">
      <contour>
        <pt x="100" y="806" on="1"/>
        <pt x="176" y="939" on="1"/>
        <pt x="247" y="939" on="1"/>
        <pt x="154" y="800" on="1"/>
      </contour>
      <contour>
        <pt x="93" y="740" on="1"/>
        <pt x="161" y="740" on="1"/>
        <pt x="161" y="58" on="1"/>
        <pt x="504" y="58" on="1"/>
        <pt x="504" y="0" on="1"/>
        <pt x="93" y="0" on="1"/>
      </contour>
    </TTGlyph>
    <TTGlyph name="Lacute.sc" xMin="88" yMin="0" xMax="452" yMax="738">
      <contour>
        <pt x="88" y="577" on="1"/>
        <pt x="154" y="577" on="1"/>
        <pt x="154" y="55" on="1"/>
        <pt x="452" y="55" on="1"/>
        <pt x="452" y="0" on="1"/>
        <pt x="88" y="0" on="1"/>
      </contour>
      <contour>
        <pt x="95" y="630" on="1"/>
        <pt x="160" y="738" on="1"/>
        <pt x="228" y="738" on="1"/>
        <pt x="147" y="625" on="1"/>
      </contour>
    </TTGlyph>
    <TTGlyph name="Lcaron" xMin="93" yMin="0" xMax="504" yMax="752">
      <contour>
        <pt x="390" y="752" on="1"/>
        <pt x="449" y="752" on="1"/>
        <pt x="423" y="524" on="1"/>
        <pt x="390" y="524" on="1"/>
      </contour>
      <contour>
        <pt x="93" y="740" on="1"/>
        <pt x="161" y="740" on="1"/>
        <pt x="161" y="58" on="1"/>
        <pt x="504" y="58" on="1"/>
        <pt x="504" y="0" on="1"/>
        <pt x="93" y="0" on="1"/>
      </contour>
    </TTGlyph>
    <TTGlyph name="Lcaron.sc" xMin="88" yMin="0" xMax="452" yMax="591">
      <contour>
        <pt x="88" y="577" on="1"/>
        <pt x="154" y="577" on="1"/>
        <pt x="154" y="55" on="1"/>
        <pt x="452" y="55" on="1"/>
        <pt x="452" y="0" on="1"/>
        <pt x="88" y="0" on="1"/>
      </contour>
      <contour>
        <pt x="350" y="591" on="1"/>
        <pt x="405" y="591" on="1"/>
        <pt x="382" y="413" on="1"/>
        <pt x="350" y="413" on="1"/>
      </contour>
    </TTGlyph>
    <TTGlyph name="Lcommaaccent" xMin="93" yMin="-220" xMax="504" yMax="740">
      <contour>
        <pt x="270" y="-69" on="1"/>
        <pt x="340" y="-69" on="1"/>
        <pt x="278" y="-220" on="1"/>
        <pt x="221" y="-220" on="1"/>
      </contour>
      <contour>
        <pt x="93" y="740" on="1"/>
        <pt x="161" y="740" on="1"/>
        <pt x="161" y="58" on="1"/>
        <pt x="504" y="58" on="1"/>
        <pt x="504" y="0" on="1"/>
        <pt x="93" y="0" on="1"/>
      </contour>
    </TTGlyph>
    <TTGlyph name="Lcommaaccent.sc" xMin="88" yMin="-172" xMax="452" yMax="577">
      <contour>
        <pt x="88" y="577" on="1"/>
        <pt x="154" y="577" on="1"/>
        <pt x="154" y="55" on="1"/>
        <pt x="452" y="55" on="1"/>
        <pt x="452" y="0" on="1"/>
        <pt x="88" y="0" on="1"/>
      </contour>
      <contour>
        <pt x="240" y="-54" on="1"/>
        <pt x="308" y="-54" on="1"/>
        <pt x="253" y="-172" on="1"/>
        <pt x="198" y="-172" on="1"/>
      </contour>
    </TTGlyph>
    <TTGlyph name="Ldot" xMin="93" yMin="0" xMax="504" yMax="740">
      <contour>
        <pt x="93" y="740" on="1"/>
        <pt x="161" y="740" on="1"/>
        <pt x="161" y="58" on="1"/>
        <pt x="504" y="58" on="1"/>
        <pt x="504" y="0" on="1"/>
        <pt x="93" y="0" on="1"/>
      </contour>
      <contour>
        <pt x="422" y="328" on="1"/>
        <pt x="399" y="328" on="0"/>
        <pt x="375" y="349" on="0"/>
        <pt x="375" y="374" on="1"/>
        <pt x="375" y="421" on="0"/>
        <pt x="422" y="421" on="1"/>
        <pt x="444" y="421" on="0"/>
        <pt x="470" y="399" on="0"/>
        <pt x="470" y="374" on="1"/>
        <pt x="470" y="350" on="0"/>
        <pt x="444" y="328" on="0"/>
      </contour>
    </TTGlyph>
    <TTGlyph name="Ldot.sc" xMin="88" yMin="0" xMax="452" yMax="577">
      <contour>
        <pt x="88" y="577" on="1"/>
        <pt x="154" y="577" on="1"/>
        <pt x="154" y="55" on="1"/>
        <pt x="452" y="55" on="1"/>
        <pt x="452" y="0" on="1"/>
        <pt x="88" y="0" on="1"/>
      </contour>
      <contour>
        <pt x="382" y="252" on="1"/>
        <pt x="338" y="252" on="0"/>
        <pt x="338" y="294" on="1"/>
        <pt x="338" y="336" on="0"/>
        <pt x="382" y="336" on="1"/>
        <pt x="402" y="336" on="0"/>
        <pt x="426" y="317" on="0"/>
        <pt x="426" y="294" on="1"/>
        <pt x="426" y="272" on="0"/>
        <pt x="402" y="252" on="0"/>
      </contour>
    </TTGlyph>
    <TTGlyph name="Lslash" xMin="16" yMin="0" xMax="526" yMax="740">
      <contour>
        <pt x="16" y="286" on="1"/>
        <pt x="115" y="350" on="1"/>
        <pt x="115" y="740" on="1"/>
        <pt x="183" y="740" on="1"/>
        <pt x="183" y="394" on="1"/>
        <pt x="347" y="501" on="1"/>
        <pt x="347" y="440" on="1"/>
        <pt x="183" y="333" on="1"/>
        <pt x="183" y="58" on="1"/>
        <pt x="526" y="58" on="1"/>
        <pt x="526" y="0" on="1"/>
        <pt x="115" y="0" on="1"/>
        <pt x="115" y="288" on="1"/>
        <pt x="16" y="224" on="1"/>
      </contour>
    </TTGlyph>
    <TTGlyph name="Lslash.sc" xMin="22" yMin="0" xMax="471" yMax="577">
      <contour>
        <pt x="22" y="231" on="1"/>
        <pt x="107" y="282" on="1"/>
        <pt x="107" y="577" on="1"/>
        <pt x="172" y="577" on="1"/>
        <pt x="172" y="313" on="1"/>
        <pt x="316" y="397" on="1"/>
        <pt x="316" y="341" on="1"/>
        <pt x="172" y="258" on="1"/>
        <pt x="172" y="55" on="1"/>
        <pt x="471" y="55" on="1"/>
        <pt x="471" y="0" on="1"/>
        <pt x="107" y="0" on="1"/>
        <pt x="107" y="226" on="1"/>
        <pt x="22" y="175" on="1"/>
      </contour>
    </TTGlyph>
    <TTGlyph name="M" xMin="93" yMin="0" xMax="820" yMax="740">
      <contour>
        <pt x="93" y="740" on="1"/>
        <pt x="186" y="740" on="1"/>
        <pt x="389" y="264" on="1"/>
        <pt x="453" y="103" on="1"/>
        <pt x="459" y="103" on="1"/>
        <pt x="524" y="264" on="1"/>
        <pt x="727" y="740" on="1"/>
        <pt x="820" y="740" on="1"/>
        <pt x="820" y="0" on="1"/>
        <pt x="757" y="0" on="1"/>
        <pt x="757" y="647" on="1"/>
        <pt x="751" y="647" on="1"/>
        <pt x="665" y="437" on="1"/>
        <pt x="489" y="29" on="1"/>
        <pt x="424" y="29" on="1"/>
        <pt x="248" y="437" on="1"/>
        <pt x="161" y="647" on="1"/>
        <pt x="156" y="647" on="1"/>
        <pt x="156" y="0" on="1"/>
        <pt x="93" y="0" on="1"/>
      </contour>
    </TTGlyph>
    <TTGlyph name="M.sc" xMin="88" yMin="0" xMax="727" yMax="577">
      <contour>
        <pt x="88" y="577" on="1"/>
        <pt x="176" y="577" on="1"/>
        <pt x="348" y="221" on="1"/>
        <pt x="404" y="96" on="1"/>
        <pt x="410" y="96" on="1"/>
        <pt x="467" y="221" on="1"/>
        <pt x="639" y="577" on="1"/>
        <pt x="727" y="577" on="1"/>
        <pt x="727" y="0" on="1"/>
        <pt x="666" y="0" on="1"/>
        <pt x="666" y="495" on="1"/>
        <pt x="661" y="495" on="1"/>
        <pt x="583" y="325" on="1"/>
        <pt x="438" y="23" on="1"/>
        <pt x="376" y="23" on="1"/>
        <pt x="232" y="325" on="1"/>
        <pt x="154" y="495" on="1"/>
        <pt x="149" y="495" on="1"/>
        <pt x="149" y="0" on="1"/>
        <pt x="88" y="0" on="1"/>
      </contour>
    </TTGlyph>
    <TTGlyph name="N" xMin="93" yMin="0" xMax="679" yMax="740">
      <contour>
        <pt x="93" y="740" on="1"/>
        <pt x="154" y="740" on="1"/>
        <pt x="551" y="194" on="1"/>
        <pt x="611" y="106" on="1"/>
        <pt x="616" y="106" on="1"/>
        <pt x="616" y="740" on="1"/>
        <pt x="679" y="740" on="1"/>
        <pt x="679" y="0" on="1"/>
        <pt x="617" y="0" on="1"/>
        <pt x="218" y="548" on="1"/>
        <pt x="161" y="633" on="1"/>
        <pt x="156" y="633" on="1"/>
        <pt x="156" y="0" on="1"/>
        <pt x="93" y="0" on="1"/>
      </contour>
    </TTGlyph>
    <TTGlyph name="N.sc" xMin="88" yMin="0" xMax="598" yMax="577">
      <contour>
        <pt x="88" y="577" on="1"/>
        <pt x="144" y="577" on="1"/>
        <pt x="480" y="167" on="1"/>
        <pt x="533" y="97" on="1"/>
        <pt x="537" y="98" on="1"/>
        <pt x="537" y="577" on="1"/>
        <pt x="598" y="577" on="1"/>
        <pt x="598" y="0" on="1"/>
        <pt x="542" y="0" on="1"/>
        <pt x="205" y="411" on="1"/>
        <pt x="154" y="479" on="1"/>
        <pt x="148" y="479" on="1"/>
        <pt x="148" y="0" on="1"/>
        <pt x="88" y="0" on="1"/>
      </contour>
    </TTGlyph>
    <TTGlyph name="Nacute" xMin="93" yMin="0" xMax="679" yMax="939">
      <contour>
        <pt x="349" y="806" on="1"/>
        <pt x="425" y="939" on="1"/>
        <pt x="496" y="939" on="1"/>
        <pt x="403" y="800" on="1"/>
      </contour>
      <contour>
        <pt x="93" y="740" on="1"/>
        <pt x="154" y="740" on="1"/>
        <pt x="551" y="194" on="1"/>
        <pt x="611" y="106" on="1"/>
        <pt x="616" y="106" on="1"/>
        <pt x="616" y="740" on="1"/>
        <pt x="679" y="740" on="1"/>
        <pt x="679" y="0" on="1"/>
        <pt x="617" y="0" on="1"/>
        <pt x="218" y="548" on="1"/>
        <pt x="161" y="633" on="1"/>
        <pt x="156" y="633" on="1"/>
        <pt x="156" y="0" on="1"/>
        <pt x="93" y="0" on="1"/>
      </contour>
    </TTGlyph>
    <TTGlyph name="Nacute.sc" xMin="88" yMin="0" xMax="598" yMax="738">
      <contour>
        <pt x="88" y="577" on="1"/>
        <pt x="144" y="577" on="1"/>
        <pt x="480" y="167" on="1"/>
        <pt x="533" y="97" on="1"/>
        <pt x="537" y="98" on="1"/>
        <pt x="537" y="577" on="1"/>
        <pt x="598" y="577" on="1"/>
        <pt x="598" y="0" on="1"/>
        <pt x="542" y="0" on="1"/>
        <pt x="205" y="411" on="1"/>
        <pt x="154" y="479" on="1"/>
        <pt x="148" y="479" on="1"/>
        <pt x="148" y="0" on="1"/>
        <pt x="88" y="0" on="1"/>
      </contour>
      <contour>
        <pt x="308" y="630" on="1"/>
        <pt x="373" y="738" on="1"/>
        <pt x="441" y="738" on="1"/>
        <pt x="360" y="625" on="1"/>
      </contour>
    </TTGlyph>
    <TTGlyph name="Ncaron" xMin="93" yMin="0" xMax="679" yMax="943">
      <contour>
        <pt x="231" y="943" on="1"/>
        <pt x="388" y="870" on="1"/>
        <pt x="545" y="943" on="1"/>
        <pt x="545" y="884" on="1"/>
        <pt x="388" y="810" on="1"/>
        <pt x="231" y="884" on="1"/>
      </contour>
      <contour>
        <pt x="93" y="740" on="1"/>
        <pt x="154" y="740" on="1"/>
        <pt x="551" y="194" on="1"/>
        <pt x="611" y="106" on="1"/>
        <pt x="616" y="106" on="1"/>
        <pt x="616" y="740" on="1"/>
        <pt x="679" y="740" on="1"/>
        <pt x="679" y="0" on="1"/>
        <pt x="617" y="0" on="1"/>
        <pt x="218" y="548" on="1"/>
        <pt x="161" y="633" on="1"/>
        <pt x="156" y="633" on="1"/>
        <pt x="156" y="0" on="1"/>
        <pt x="93" y="0" on="1"/>
      </contour>
    </TTGlyph>
    <TTGlyph name="Ncaron.sc" xMin="88" yMin="0" xMax="598" yMax="742">
      <contour>
        <pt x="88" y="577" on="1"/>
        <pt x="144" y="577" on="1"/>
        <pt x="480" y="167" on="1"/>
        <pt x="533" y="97" on="1"/>
        <pt x="537" y="98" on="1"/>
        <pt x="537" y="577" on="1"/>
        <pt x="598" y="577" on="1"/>
        <pt x="598" y="0" on="1"/>
        <pt x="542" y="0" on="1"/>
        <pt x="205" y="411" on="1"/>
        <pt x="154" y="479" on="1"/>
        <pt x="148" y="479" on="1"/>
        <pt x="148" y="0" on="1"/>
        <pt x="88" y="0" on="1"/>
      </contour>
      <contour>
        <pt x="205" y="689" on="1"/>
        <pt x="205" y="742" on="1"/>
        <pt x="344" y="685" on="1"/>
        <pt x="484" y="742" on="1"/>
        <pt x="484" y="689" on="1"/>
        <pt x="344" y="632" on="1"/>
      </contour>
    </TTGlyph>
    <TTGlyph name="Ncommaaccent" xMin="93" yMin="-220" xMax="679" yMax="740">
      <contour>
        <pt x="369" y="-69" on="1"/>
        <pt x="439" y="-69" on="1"/>
        <pt x="377" y="-220" on="1"/>
        <pt x="320" y="-220" on="1"/>
      </contour>
      <contour>
        <pt x="93" y="740" on="1"/>
        <pt x="154" y="740" on="1"/>
        <pt x="551" y="194" on="1"/>
        <pt x="611" y="106" on="1"/>
        <pt x="616" y="106" on="1"/>
        <pt x="616" y="740" on="1"/>
        <pt x="679" y="740" on="1"/>
        <pt x="679" y="0" on="1"/>
        <pt x="617" y="0" on="1"/>
        <pt x="218" y="548" on="1"/>
        <pt x="161" y="633" on="1"/>
        <pt x="156" y="633" on="1"/>
        <pt x="156" y="0" on="1"/>
        <pt x="93" y="0" on="1"/>
      </contour>
    </TTGlyph>
    <TTGlyph name="Ncommaaccent.sc" xMin="88" yMin="-172" xMax="598" yMax="577">
      <contour>
        <pt x="88" y="577" on="1"/>
        <pt x="144" y="577" on="1"/>
        <pt x="480" y="167" on="1"/>
        <pt x="533" y="97" on="1"/>
        <pt x="537" y="98" on="1"/>
        <pt x="537" y="577" on="1"/>
        <pt x="598" y="577" on="1"/>
        <pt x="598" y="0" on="1"/>
        <pt x="542" y="0" on="1"/>
        <pt x="205" y="411" on="1"/>
        <pt x="154" y="479" on="1"/>
        <pt x="148" y="479" on="1"/>
        <pt x="148" y="0" on="1"/>
        <pt x="88" y="0" on="1"/>
      </contour>
      <contour>
        <pt x="323" y="-54" on="1"/>
        <pt x="392" y="-54" on="1"/>
        <pt x="336" y="-172" on="1"/>
        <pt x="282" y="-172" on="1"/>
      </contour>
    </TTGlyph>
    <TTGlyph name="Ndotaccent" xMin="93" yMin="0" xMax="679" yMax="909">
      <contour>
        <pt x="386" y="816" on="1"/>
        <pt x="339" y="816" on="0"/>
        <pt x="339" y="862" on="1"/>
        <pt x="339" y="909" on="0"/>
        <pt x="386" y="909" on="1"/>
        <pt x="408" y="909" on="0"/>
        <pt x="434" y="887" on="0"/>
        <pt x="434" y="862" on="1"/>
        <pt x="434" y="838" on="0"/>
        <pt x="408" y="816" on="0"/>
      </contour>
      <contour>
        <pt x="93" y="740" on="1"/>
        <pt x="154" y="740" on="1"/>
        <pt x="551" y="194" on="1"/>
        <pt x="611" y="106" on="1"/>
        <pt x="616" y="106" on="1"/>
        <pt x="616" y="740" on="1"/>
        <pt x="679" y="740" on="1"/>
        <pt x="679" y="0" on="1"/>
        <pt x="617" y="0" on="1"/>
        <pt x="218" y="548" on="1"/>
        <pt x="161" y="633" on="1"/>
        <pt x="156" y="633" on="1"/>
        <pt x="156" y="0" on="1"/>
        <pt x="93" y="0" on="1"/>
      </contour>
    </TTGlyph>
    <TTGlyph name="Ndotaccent.sc" xMin="88" yMin="0" xMax="598" yMax="720">
      <contour>
        <pt x="88" y="577" on="1"/>
        <pt x="144" y="577" on="1"/>
        <pt x="480" y="167" on="1"/>
        <pt x="533" y="97" on="1"/>
        <pt x="537" y="98" on="1"/>
        <pt x="537" y="577" on="1"/>
        <pt x="598" y="577" on="1"/>
        <pt x="598" y="0" on="1"/>
        <pt x="542" y="0" on="1"/>
        <pt x="205" y="411" on="1"/>
        <pt x="154" y="479" on="1"/>
        <pt x="148" y="479" on="1"/>
        <pt x="148" y="0" on="1"/>
        <pt x="88" y="0" on="1"/>
      </contour>
      <contour>
        <pt x="344" y="636" on="1"/>
        <pt x="322" y="636" on="0"/>
        <pt x="300" y="655" on="0"/>
        <pt x="300" y="678" on="1"/>
        <pt x="300" y="720" on="0"/>
        <pt x="344" y="720" on="1"/>
        <pt x="388" y="720" on="0"/>
        <pt x="388" y="678" on="1"/>
        <pt x="388" y="636" on="0"/>
      </contour>
    </TTGlyph>
    <TTGlyph name="Ntilde" xMin="93" yMin="0" xMax="679" yMax="926">
      <contour>
        <pt x="199" y="862" on="1"/>
        <pt x="225" y="893" on="0"/>
        <pt x="287" y="926" on="0"/>
        <pt x="318" y="926" on="1"/>
        <pt x="341" y="926" on="0"/>
        <pt x="381" y="913" on="0"/>
        <pt x="419" y="897" on="0"/>
        <pt x="458" y="884" on="0"/>
        <pt x="479" y="884" on="1"/>
        <pt x="525" y="884" on="0"/>
        <pt x="567" y="923" on="1"/>
        <pt x="591" y="897" on="1"/>
        <pt x="567" y="866" on="0"/>
        <pt x="502" y="832" on="0"/>
        <pt x="469" y="832" on="1"/>
        <pt x="448" y="832" on="0"/>
        <pt x="408" y="845" on="0"/>
        <pt x="369" y="860" on="0"/>
        <pt x="330" y="873" on="0"/>
        <pt x="310" y="873" on="1"/>
        <pt x="288" y="873" on="0"/>
        <pt x="245" y="856" on="0"/>
        <pt x="223" y="836" on="1"/>
      </contour>
      <contour>
        <pt x="93" y="740" on="1"/>
        <pt x="154" y="740" on="1"/>
        <pt x="551" y="194" on="1"/>
        <pt x="611" y="106" on="1"/>
        <pt x="616" y="106" on="1"/>
        <pt x="616" y="740" on="1"/>
        <pt x="679" y="740" on="1"/>
        <pt x="679" y="0" on="1"/>
        <pt x="617" y="0" on="1"/>
        <pt x="218" y="548" on="1"/>
        <pt x="161" y="633" on="1"/>
        <pt x="156" y="633" on="1"/>
        <pt x="156" y="0" on="1"/>
        <pt x="93" y="0" on="1"/>
      </contour>
    </TTGlyph>
    <TTGlyph name="Ntilde.sc" xMin="88" yMin="0" xMax="598" yMax="729">
      <contour>
        <pt x="178" y="672" on="1"/>
        <pt x="226" y="729" on="0"/>
        <pt x="284" y="729" on="1"/>
        <pt x="304" y="729" on="0"/>
        <pt x="340" y="719" on="0"/>
        <pt x="374" y="707" on="0"/>
        <pt x="408" y="697" on="0"/>
        <pt x="427" y="697" on="1"/>
        <pt x="465" y="697" on="0"/>
        <pt x="505" y="726" on="1"/>
        <pt x="525" y="706" on="1"/>
        <pt x="503" y="678" on="0"/>
        <pt x="445" y="649" on="0"/>
        <pt x="416" y="649" on="1"/>
        <pt x="397" y="649" on="0"/>
        <pt x="361" y="659" on="0"/>
        <pt x="327" y="671" on="0"/>
        <pt x="292" y="681" on="0"/>
        <pt x="275" y="681" on="1"/>
        <pt x="235" y="681" on="0"/>
        <pt x="198" y="651" on="1"/>
      </contour>
      <contour>
        <pt x="88" y="577" on="1"/>
        <pt x="144" y="577" on="1"/>
        <pt x="480" y="167" on="1"/>
        <pt x="533" y="97" on="1"/>
        <pt x="537" y="98" on="1"/>
        <pt x="537" y="577" on="1"/>
        <pt x="598" y="577" on="1"/>
        <pt x="598" y="0" on="1"/>
        <pt x="542" y="0" on="1"/>
        <pt x="205" y="411" on="1"/>
        <pt x="154" y="479" on="1"/>
        <pt x="148" y="479" on="1"/>
        <pt x="148" y="0" on="1"/>
        <pt x="88" y="0" on="1"/>
      </contour>
    </TTGlyph>
    <TTGlyph name="O" xMin="54" yMin="-10" xMax="681" yMax="750">
      <contour>
        <pt x="368" y="-10" on="1"/>
        <pt x="216" y="-10" on="0"/>
        <pt x="54" y="181" on="0"/>
        <pt x="54" y="369" on="1"/>
        <pt x="54" y="557" on="0"/>
        <pt x="216" y="750" on="0"/>
        <pt x="368" y="750" on="1"/>
        <pt x="518" y="750" on="0"/>
        <pt x="681" y="557" on="0"/>
        <pt x="681" y="369" on="1"/>
        <pt x="681" y="182" on="0"/>
        <pt x="518" y="-10" on="0"/>
      </contour>
      <contour>
        <pt x="368" y="49" on="1"/>
        <pt x="489" y="49" on="0"/>
        <pt x="612" y="210" on="0"/>
        <pt x="612" y="369" on="1"/>
        <pt x="612" y="530" on="0"/>
        <pt x="489" y="691" on="0"/>
        <pt x="368" y="691" on="1"/>
        <pt x="247" y="691" on="0"/>
        <pt x="123" y="530" on="0"/>
        <pt x="123" y="369" on="1"/>
        <pt x="123" y="209" on="0"/>
        <pt x="247" y="49" on="0"/>
      </contour>
    </TTGlyph>
    <TTGlyph name="O.sc" xMin="54" yMin="-8" xMax="604" yMax="585">
      <contour>
        <pt x="330" y="-8" on="1"/>
        <pt x="197" y="-8" on="0"/>
        <pt x="54" y="142" on="0"/>
        <pt x="54" y="288" on="1"/>
        <pt x="54" y="434" on="0"/>
        <pt x="196" y="585" on="0"/>
        <pt x="330" y="585" on="1"/>
        <pt x="462" y="585" on="0"/>
        <pt x="604" y="434" on="0"/>
        <pt x="604" y="288" on="1"/>
        <pt x="604" y="142" on="0"/>
        <pt x="462" y="-8" on="0"/>
      </contour>
      <contour>
        <pt x="330" y="48" on="1"/>
        <pt x="538" y="48" on="0"/>
        <pt x="538" y="288" on="1"/>
        <pt x="538" y="529" on="0"/>
        <pt x="330" y="529" on="1"/>
        <pt x="121" y="529" on="0"/>
        <pt x="121" y="288" on="1"/>
        <pt x="121" y="48" on="0"/>
      </contour>
    </TTGlyph>
    <TTGlyph name="OE" xMin="54" yMin="-8" xMax="904" yMax="748">
      <contour>
        <pt x="371" y="-8" on="1"/>
        <pt x="219" y="-8" on="0"/>
        <pt x="54" y="183" on="0"/>
        <pt x="54" y="369" on="1"/>
        <pt x="54" y="556" on="0"/>
        <pt x="219" y="748" on="0"/>
        <pt x="371" y="748" on="1"/>
        <pt x="399" y="748" on="0"/>
        <pt x="449" y="745" on="0"/>
        <pt x="472" y="740" on="1"/>
        <pt x="896" y="740" on="1"/>
        <pt x="896" y="681" on="1"/>
        <pt x="538" y="681" on="1"/>
        <pt x="538" y="406" on="1"/>
        <pt x="873" y="406" on="1"/>
        <pt x="873" y="347" on="1"/>
        <pt x="538" y="347" on="1"/>
        <pt x="538" y="59" on="1"/>
        <pt x="904" y="59" on="1"/>
        <pt x="904" y="0" on="1"/>
        <pt x="472" y="0" on="1"/>
        <pt x="426" y="-8" on="0"/>
      </contour>
      <contour>
        <pt x="372" y="51" on="1"/>
        <pt x="399" y="51" on="0"/>
        <pt x="449" y="55" on="0"/>
        <pt x="471" y="61" on="1"/>
        <pt x="471" y="679" on="1"/>
        <pt x="448" y="685" on="0"/>
        <pt x="399" y="689" on="0"/>
        <pt x="372" y="689" on="1"/>
        <pt x="248" y="689" on="0"/>
        <pt x="122" y="529" on="0"/>
        <pt x="122" y="369" on="1"/>
        <pt x="122" y="210" on="0"/>
        <pt x="248" y="51" on="0"/>
      </contour>
    </TTGlyph>
    <TTGlyph name="OE.sc" xMin="54" yMin="-7" xMax="805" yMax="584">
      <contour>
        <pt x="333" y="-7" on="1"/>
        <pt x="199" y="-7" on="0"/>
        <pt x="54" y="142" on="0"/>
        <pt x="54" y="288" on="1"/>
        <pt x="54" y="434" on="0"/>
        <pt x="199" y="584" on="0"/>
        <pt x="333" y="584" on="1"/>
        <pt x="383" y="584" on="0"/>
        <pt x="421" y="577" on="1"/>
        <pt x="798" y="577" on="1"/>
        <pt x="798" y="523" on="1"/>
        <pt x="487" y="523" on="1"/>
        <pt x="487" y="319" on="1"/>
        <pt x="778" y="319" on="1"/>
        <pt x="778" y="268" on="1"/>
        <pt x="487" y="268" on="1"/>
        <pt x="487" y="54" on="1"/>
        <pt x="805" y="54" on="1"/>
        <pt x="805" y="0" on="1"/>
        <pt x="421" y="0" on="1"/>
        <pt x="402" y="-3" on="0"/>
        <pt x="356" y="-7" on="0"/>
      </contour>
      <contour>
        <pt x="334" y="49" on="1"/>
        <pt x="358" y="49" on="0"/>
        <pt x="402" y="52" on="0"/>
        <pt x="421" y="57" on="1"/>
        <pt x="421" y="520" on="1"/>
        <pt x="401" y="525" on="0"/>
        <pt x="359" y="528" on="0"/>
        <pt x="334" y="528" on="1"/>
        <pt x="121" y="528" on="0"/>
        <pt x="121" y="288" on="1"/>
        <pt x="121" y="49" on="0"/>
      </contour>
    </TTGlyph>
    <TTGlyph name="Oacute" xMin="54" yMin="-10" xMax="681" yMax="939">
      <contour>
        <pt x="335" y="806" on="1"/>
        <pt x="411" y="939" on="1"/>
        <pt x="482" y="939" on="1"/>
        <pt x="389" y="800" on="1"/>
      </contour>
      <contour>
        <pt x="368" y="-10" on="1"/>
        <pt x="216" y="-10" on="0"/>
        <pt x="54" y="181" on="0"/>
        <pt x="54" y="369" on="1"/>
        <pt x="54" y="557" on="0"/>
        <pt x="216" y="750" on="0"/>
        <pt x="368" y="750" on="1"/>
        <pt x="518" y="750" on="0"/>
        <pt x="681" y="557" on="0"/>
        <pt x="681" y="369" on="1"/>
        <pt x="681" y="182" on="0"/>
        <pt x="518" y="-10" on="0"/>
      </contour>
      <contour>
        <pt x="368" y="49" on="1"/>
        <pt x="489" y="49" on="0"/>
        <pt x="612" y="210" on="0"/>
        <pt x="612" y="369" on="1"/>
        <pt x="612" y="530" on="0"/>
        <pt x="489" y="691" on="0"/>
        <pt x="368" y="691" on="1"/>
        <pt x="247" y="691" on="0"/>
        <pt x="123" y="530" on="0"/>
        <pt x="123" y="369" on="1"/>
        <pt x="123" y="209" on="0"/>
        <pt x="247" y="49" on="0"/>
      </contour>
    </TTGlyph>
    <TTGlyph name="Oacute.sc" xMin="54" yMin="-8" xMax="605" yMax="738">
      <contour>
        <pt x="330" y="-8" on="1"/>
        <pt x="197" y="-8" on="0"/>
        <pt x="54" y="142" on="0"/>
        <pt x="54" y="288" on="1"/>
        <pt x="54" y="434" on="0"/>
        <pt x="197" y="585" on="0"/>
        <pt x="330" y="585" on="1"/>
        <pt x="462" y="585" on="0"/>
        <pt x="605" y="434" on="0"/>
        <pt x="605" y="288" on="1"/>
        <pt x="605" y="142" on="0"/>
        <pt x="462" y="-8" on="0"/>
      </contour>
      <contour>
        <pt x="330" y="48" on="1"/>
        <pt x="538" y="48" on="0"/>
        <pt x="538" y="288" on="1"/>
        <pt x="538" y="529" on="0"/>
        <pt x="330" y="529" on="1"/>
        <pt x="121" y="529" on="0"/>
        <pt x="121" y="288" on="1"/>
        <pt x="121" y="48" on="0"/>
      </contour>
      <contour>
        <pt x="299" y="630" on="1"/>
        <pt x="363" y="738" on="1"/>
        <pt x="432" y="738" on="1"/>
        <pt x="350" y="625" on="1"/>
      </contour>
    </TTGlyph>
</ttFont>
